%TF.GenerationSoftware,KiCad,Pcbnew,7.0.9*%
%TF.CreationDate,2024-01-21T16:29:30-08:00*%
%TF.ProjectId,QSE Filter,51534520-4669-46c7-9465-722e6b696361,rev?*%
%TF.SameCoordinates,Original*%
%TF.FileFunction,Drillmap*%
%TF.FilePolarity,Positive*%
%FSLAX45Y45*%
G04 Gerber Fmt 4.5, Leading zero omitted, Abs format (unit mm)*
G04 Created by KiCad (PCBNEW 7.0.9) date 2024-01-21 16:29:30*
%MOMM*%
%LPD*%
G01*
G04 APERTURE LIST*
%ADD10C,0.100000*%
%ADD11C,0.200000*%
%ADD12C,0.139700*%
%ADD13C,0.149860*%
G04 APERTURE END LIST*
D10*
X7750000Y-4725000D02*
X14275000Y-4725000D01*
X14275000Y-12170000D01*
X7750000Y-12170000D01*
X7750000Y-4725000D01*
D11*
D10*
X8311200Y-8997000D02*
X8351200Y-9037000D01*
X8351200Y-8997000D02*
X8311200Y-9037000D01*
X8489000Y-8997000D02*
X8529000Y-9037000D01*
X8529000Y-8997000D02*
X8489000Y-9037000D01*
X8870000Y-11410000D02*
X8910000Y-11450000D01*
X8910000Y-11410000D02*
X8870000Y-11450000D01*
X8870000Y-11664000D02*
X8910000Y-11704000D01*
X8910000Y-11664000D02*
X8870000Y-11704000D01*
X8920800Y-8336600D02*
X8960800Y-8376600D01*
X8960800Y-8336600D02*
X8920800Y-8376600D01*
X8920800Y-8463600D02*
X8960800Y-8503600D01*
X8960800Y-8463600D02*
X8920800Y-8503600D01*
X8920800Y-8590600D02*
X8960800Y-8630600D01*
X8960800Y-8590600D02*
X8920800Y-8630600D01*
X9047800Y-8336600D02*
X9087800Y-8376600D01*
X9087800Y-8336600D02*
X9047800Y-8376600D01*
X9047800Y-8463600D02*
X9087800Y-8503600D01*
X9087800Y-8463600D02*
X9047800Y-8503600D01*
X9047800Y-8590600D02*
X9087800Y-8630600D01*
X9087800Y-8590600D02*
X9047800Y-8630600D01*
X9124000Y-11410000D02*
X9164000Y-11450000D01*
X9164000Y-11410000D02*
X9124000Y-11450000D01*
X9124000Y-11664000D02*
X9164000Y-11704000D01*
X9164000Y-11664000D02*
X9124000Y-11704000D01*
X9225600Y-9301800D02*
X9265600Y-9341800D01*
X9265600Y-9301800D02*
X9225600Y-9341800D01*
X9225600Y-9428800D02*
X9265600Y-9468800D01*
X9265600Y-9428800D02*
X9225600Y-9468800D01*
X9225600Y-9555800D02*
X9265600Y-9595800D01*
X9265600Y-9555800D02*
X9225600Y-9595800D01*
X9225600Y-9682800D02*
X9265600Y-9722800D01*
X9265600Y-9682800D02*
X9225600Y-9722800D01*
X9225600Y-10470200D02*
X9265600Y-10510200D01*
X9265600Y-10470200D02*
X9225600Y-10510200D01*
X9225600Y-10622600D02*
X9265600Y-10662600D01*
X9265600Y-10622600D02*
X9225600Y-10662600D01*
X9225600Y-10775000D02*
X9265600Y-10815000D01*
X9265600Y-10775000D02*
X9225600Y-10815000D01*
X9225600Y-10927400D02*
X9265600Y-10967400D01*
X9265600Y-10927400D02*
X9225600Y-10967400D01*
X9378000Y-11664000D02*
X9418000Y-11704000D01*
X9418000Y-11664000D02*
X9378000Y-11704000D01*
X9380000Y-6605000D02*
X9420000Y-6645000D01*
X9420000Y-6605000D02*
X9380000Y-6645000D01*
X9632000Y-11664000D02*
X9672000Y-11704000D01*
X9672000Y-11664000D02*
X9632000Y-11704000D01*
X9817500Y-6642500D02*
X9857500Y-6682500D01*
X9857500Y-6642500D02*
X9817500Y-6682500D01*
X9855000Y-8155000D02*
X9895000Y-8195000D01*
X9895000Y-8155000D02*
X9855000Y-8195000D01*
X9855000Y-9730000D02*
X9895000Y-9770000D01*
X9895000Y-9730000D02*
X9855000Y-9770000D01*
X9886000Y-11410000D02*
X9926000Y-11450000D01*
X9926000Y-11410000D02*
X9886000Y-11450000D01*
X9886000Y-11664000D02*
X9926000Y-11704000D01*
X9926000Y-11664000D02*
X9886000Y-11704000D01*
X10013000Y-5822000D02*
X10053000Y-5862000D01*
X10053000Y-5822000D02*
X10013000Y-5862000D01*
X10013000Y-5949000D02*
X10053000Y-5989000D01*
X10053000Y-5949000D02*
X10013000Y-5989000D01*
X10013000Y-7473000D02*
X10053000Y-7513000D01*
X10053000Y-7473000D02*
X10013000Y-7513000D01*
X10013000Y-7600000D02*
X10053000Y-7640000D01*
X10053000Y-7600000D02*
X10013000Y-7640000D01*
X10013000Y-8997000D02*
X10053000Y-9037000D01*
X10053000Y-8997000D02*
X10013000Y-9037000D01*
X10013000Y-9124000D02*
X10053000Y-9164000D01*
X10053000Y-9124000D02*
X10013000Y-9164000D01*
X10013000Y-10775000D02*
X10053000Y-10815000D01*
X10053000Y-10775000D02*
X10013000Y-10815000D01*
X10013000Y-10902000D02*
X10053000Y-10942000D01*
X10053000Y-10902000D02*
X10013000Y-10942000D01*
X10140000Y-5822000D02*
X10180000Y-5862000D01*
X10180000Y-5822000D02*
X10140000Y-5862000D01*
X10140000Y-5949000D02*
X10180000Y-5989000D01*
X10180000Y-5949000D02*
X10140000Y-5989000D01*
X10140000Y-7473000D02*
X10180000Y-7513000D01*
X10180000Y-7473000D02*
X10140000Y-7513000D01*
X10140000Y-7600000D02*
X10180000Y-7640000D01*
X10180000Y-7600000D02*
X10140000Y-7640000D01*
X10140000Y-8997000D02*
X10180000Y-9037000D01*
X10180000Y-8997000D02*
X10140000Y-9037000D01*
X10140000Y-9124000D02*
X10180000Y-9164000D01*
X10180000Y-9124000D02*
X10140000Y-9164000D01*
X10140000Y-10775000D02*
X10180000Y-10815000D01*
X10180000Y-10775000D02*
X10140000Y-10815000D01*
X10140000Y-10902000D02*
X10180000Y-10942000D01*
X10180000Y-10902000D02*
X10140000Y-10942000D01*
X10140000Y-11410000D02*
X10180000Y-11450000D01*
X10180000Y-11410000D02*
X10140000Y-11450000D01*
X10140000Y-11664000D02*
X10180000Y-11704000D01*
X10180000Y-11664000D02*
X10140000Y-11704000D01*
X10267000Y-5822000D02*
X10307000Y-5862000D01*
X10307000Y-5822000D02*
X10267000Y-5862000D01*
X10267000Y-5949000D02*
X10307000Y-5989000D01*
X10307000Y-5949000D02*
X10267000Y-5989000D01*
X10267000Y-7473000D02*
X10307000Y-7513000D01*
X10307000Y-7473000D02*
X10267000Y-7513000D01*
X10267000Y-7600000D02*
X10307000Y-7640000D01*
X10307000Y-7600000D02*
X10267000Y-7640000D01*
X10267000Y-8997000D02*
X10307000Y-9037000D01*
X10307000Y-8997000D02*
X10267000Y-9037000D01*
X10267000Y-9124000D02*
X10307000Y-9164000D01*
X10307000Y-9124000D02*
X10267000Y-9164000D01*
X10267000Y-10775000D02*
X10307000Y-10815000D01*
X10307000Y-10775000D02*
X10267000Y-10815000D01*
X10267000Y-10902000D02*
X10307000Y-10942000D01*
X10307000Y-10902000D02*
X10267000Y-10942000D01*
X11630000Y-7930000D02*
X11670000Y-7970000D01*
X11670000Y-7930000D02*
X11630000Y-7970000D01*
X11630000Y-9240000D02*
X11670000Y-9280000D01*
X11670000Y-9240000D02*
X11630000Y-9280000D01*
X11630000Y-11030000D02*
X11670000Y-11070000D01*
X11670000Y-11030000D02*
X11630000Y-11070000D01*
X11640000Y-7690000D02*
X11680000Y-7730000D01*
X11680000Y-7690000D02*
X11640000Y-7730000D01*
X11640000Y-9460000D02*
X11680000Y-9500000D01*
X11680000Y-9460000D02*
X11640000Y-9500000D01*
X11640000Y-10790000D02*
X11680000Y-10830000D01*
X11680000Y-10790000D02*
X11640000Y-10830000D01*
X11650000Y-6140000D02*
X11690000Y-6180000D01*
X11690000Y-6140000D02*
X11650000Y-6180000D01*
X11650000Y-6360000D02*
X11690000Y-6400000D01*
X11690000Y-6360000D02*
X11650000Y-6400000D01*
X11705000Y-7150000D02*
X11745000Y-7190000D01*
X11745000Y-7150000D02*
X11705000Y-7190000D01*
X11705000Y-10250000D02*
X11745000Y-10290000D01*
X11745000Y-10250000D02*
X11705000Y-10290000D01*
X11714750Y-5592000D02*
X11754750Y-5632000D01*
X11754750Y-5592000D02*
X11714750Y-5632000D01*
X11765600Y-11410000D02*
X11805600Y-11450000D01*
X11805600Y-11410000D02*
X11765600Y-11450000D01*
X11765600Y-11664000D02*
X11805600Y-11704000D01*
X11805600Y-11664000D02*
X11765600Y-11704000D01*
X12019600Y-11410000D02*
X12059600Y-11450000D01*
X12059600Y-11410000D02*
X12019600Y-11450000D01*
X12019600Y-11664000D02*
X12059600Y-11704000D01*
X12059600Y-11664000D02*
X12019600Y-11704000D01*
X12120000Y-6000000D02*
X12160000Y-6040000D01*
X12160000Y-6000000D02*
X12120000Y-6040000D01*
X12130000Y-7550000D02*
X12170000Y-7590000D01*
X12170000Y-7550000D02*
X12130000Y-7590000D01*
X12140000Y-9110000D02*
X12180000Y-9150000D01*
X12180000Y-9110000D02*
X12140000Y-9150000D01*
X12140000Y-10650000D02*
X12180000Y-10690000D01*
X12180000Y-10650000D02*
X12140000Y-10690000D01*
X12187400Y-6665000D02*
X12227400Y-6705000D01*
X12227400Y-6665000D02*
X12187400Y-6705000D01*
X12187400Y-6766600D02*
X12227400Y-6806600D01*
X12227400Y-6766600D02*
X12187400Y-6806600D01*
X12248200Y-10038400D02*
X12288200Y-10078400D01*
X12288200Y-10038400D02*
X12248200Y-10078400D01*
X12248200Y-10165400D02*
X12288200Y-10205400D01*
X12288200Y-10165400D02*
X12248200Y-10205400D01*
X12273600Y-11664000D02*
X12313600Y-11704000D01*
X12313600Y-11664000D02*
X12273600Y-11704000D01*
X12289000Y-6665000D02*
X12329000Y-6705000D01*
X12329000Y-6665000D02*
X12289000Y-6705000D01*
X12289000Y-6766600D02*
X12329000Y-6806600D01*
X12329000Y-6766600D02*
X12289000Y-6806600D01*
X12295000Y-5560000D02*
X12335000Y-5600000D01*
X12335000Y-5560000D02*
X12295000Y-5600000D01*
X12296000Y-8205000D02*
X12336000Y-8245000D01*
X12336000Y-8205000D02*
X12296000Y-8245000D01*
X12296000Y-8332000D02*
X12336000Y-8372000D01*
X12336000Y-8332000D02*
X12296000Y-8372000D01*
X12299000Y-5441000D02*
X12339000Y-5481000D01*
X12339000Y-5441000D02*
X12299000Y-5481000D01*
X12375200Y-10038400D02*
X12415200Y-10078400D01*
X12415200Y-10038400D02*
X12375200Y-10078400D01*
X12375200Y-10165400D02*
X12415200Y-10205400D01*
X12415200Y-10165400D02*
X12375200Y-10205400D01*
X12423000Y-8205000D02*
X12463000Y-8245000D01*
X12463000Y-8205000D02*
X12423000Y-8245000D01*
X12423000Y-8332000D02*
X12463000Y-8372000D01*
X12463000Y-8332000D02*
X12423000Y-8372000D01*
X12426000Y-5441000D02*
X12466000Y-5481000D01*
X12466000Y-5441000D02*
X12426000Y-5481000D01*
X12527600Y-11664000D02*
X12567600Y-11704000D01*
X12567600Y-11664000D02*
X12527600Y-11704000D01*
X12781600Y-11410000D02*
X12821600Y-11450000D01*
X12821600Y-11410000D02*
X12781600Y-11450000D01*
X12781600Y-11664000D02*
X12821600Y-11704000D01*
X12821600Y-11664000D02*
X12781600Y-11704000D01*
X12790000Y-10710000D02*
X12830000Y-10750000D01*
X12830000Y-10710000D02*
X12790000Y-10750000D01*
X12807000Y-5060000D02*
X12847000Y-5100000D01*
X12847000Y-5060000D02*
X12807000Y-5100000D01*
X12807000Y-5187000D02*
X12847000Y-5227000D01*
X12847000Y-5187000D02*
X12807000Y-5227000D01*
X12807000Y-5695000D02*
X12847000Y-5735000D01*
X12847000Y-5695000D02*
X12807000Y-5735000D01*
X12807000Y-5822000D02*
X12847000Y-5862000D01*
X12847000Y-5822000D02*
X12807000Y-5862000D01*
X12908600Y-7422200D02*
X12948600Y-7462200D01*
X12948600Y-7422200D02*
X12908600Y-7462200D01*
X12908600Y-7549200D02*
X12948600Y-7589200D01*
X12948600Y-7549200D02*
X12908600Y-7589200D01*
X12908600Y-7676200D02*
X12948600Y-7716200D01*
X12948600Y-7676200D02*
X12908600Y-7716200D01*
X12934000Y-5060000D02*
X12974000Y-5100000D01*
X12974000Y-5060000D02*
X12934000Y-5100000D01*
X12934000Y-5187000D02*
X12974000Y-5227000D01*
X12974000Y-5187000D02*
X12934000Y-5227000D01*
X12934000Y-5695000D02*
X12974000Y-5735000D01*
X12974000Y-5695000D02*
X12934000Y-5735000D01*
X12934000Y-5822000D02*
X12974000Y-5862000D01*
X12974000Y-5822000D02*
X12934000Y-5862000D01*
X13035600Y-7422200D02*
X13075600Y-7462200D01*
X13075600Y-7422200D02*
X13035600Y-7462200D01*
X13035600Y-7549200D02*
X13075600Y-7589200D01*
X13075600Y-7549200D02*
X13035600Y-7589200D01*
X13035600Y-7676200D02*
X13075600Y-7716200D01*
X13075600Y-7676200D02*
X13035600Y-7716200D01*
X13035600Y-11410000D02*
X13075600Y-11450000D01*
X13075600Y-11410000D02*
X13035600Y-11450000D01*
X13035600Y-11664000D02*
X13075600Y-11704000D01*
X13075600Y-11664000D02*
X13035600Y-11704000D01*
X13162600Y-7422200D02*
X13202600Y-7462200D01*
X13202600Y-7422200D02*
X13162600Y-7462200D01*
X13162600Y-7549200D02*
X13202600Y-7589200D01*
X13202600Y-7549200D02*
X13162600Y-7589200D01*
X13162600Y-7676200D02*
X13202600Y-7716200D01*
X13202600Y-7676200D02*
X13162600Y-7716200D01*
X13315000Y-6076000D02*
X13355000Y-6116000D01*
X13355000Y-6076000D02*
X13315000Y-6116000D01*
X13442000Y-6076000D02*
X13482000Y-6116000D01*
X13482000Y-6076000D02*
X13442000Y-6116000D01*
X13569000Y-6076000D02*
X13609000Y-6116000D01*
X13609000Y-6076000D02*
X13569000Y-6116000D01*
X13670600Y-10216200D02*
X13710600Y-10256200D01*
X13710600Y-10216200D02*
X13670600Y-10256200D01*
X13670600Y-10343200D02*
X13710600Y-10383200D01*
X13710600Y-10343200D02*
X13670600Y-10383200D01*
X13696000Y-6076000D02*
X13736000Y-6116000D01*
X13736000Y-6076000D02*
X13696000Y-6116000D01*
X13797600Y-10216200D02*
X13837600Y-10256200D01*
X13837600Y-10216200D02*
X13797600Y-10256200D01*
X13797600Y-10343200D02*
X13837600Y-10383200D01*
X13837600Y-10343200D02*
X13797600Y-10383200D01*
X13823000Y-6076000D02*
X13863000Y-6116000D01*
X13863000Y-6076000D02*
X13823000Y-6116000D01*
X8441810Y-5530000D02*
G75*
G03*
X8441810Y-5530000I-50000J0D01*
G01*
X8441810Y-5784000D02*
G75*
G03*
X8441810Y-5784000I-50000J0D01*
G01*
X8441810Y-6038000D02*
G75*
G03*
X8441810Y-6038000I-50000J0D01*
G01*
X8441810Y-6292000D02*
G75*
G03*
X8441810Y-6292000I-50000J0D01*
G01*
X8441810Y-6546000D02*
G75*
G03*
X8441810Y-6546000I-50000J0D01*
G01*
X8441810Y-6800000D02*
G75*
G03*
X8441810Y-6800000I-50000J0D01*
G01*
X8441810Y-7054000D02*
G75*
G03*
X8441810Y-7054000I-50000J0D01*
G01*
X8441810Y-7308000D02*
G75*
G03*
X8441810Y-7308000I-50000J0D01*
G01*
X8441810Y-9638000D02*
G75*
G03*
X8441810Y-9638000I-50000J0D01*
G01*
X8441810Y-9892000D02*
G75*
G03*
X8441810Y-9892000I-50000J0D01*
G01*
X8441810Y-10146000D02*
G75*
G03*
X8441810Y-10146000I-50000J0D01*
G01*
X8441810Y-10400000D02*
G75*
G03*
X8441810Y-10400000I-50000J0D01*
G01*
X8441810Y-10654000D02*
G75*
G03*
X8441810Y-10654000I-50000J0D01*
G01*
X8695810Y-5530000D02*
G75*
G03*
X8695810Y-5530000I-50000J0D01*
G01*
X8695810Y-5784000D02*
G75*
G03*
X8695810Y-5784000I-50000J0D01*
G01*
X8695810Y-6038000D02*
G75*
G03*
X8695810Y-6038000I-50000J0D01*
G01*
X8695810Y-6292000D02*
G75*
G03*
X8695810Y-6292000I-50000J0D01*
G01*
X8695810Y-6546000D02*
G75*
G03*
X8695810Y-6546000I-50000J0D01*
G01*
X8695810Y-6800000D02*
G75*
G03*
X8695810Y-6800000I-50000J0D01*
G01*
X8695810Y-7054000D02*
G75*
G03*
X8695810Y-7054000I-50000J0D01*
G01*
X8695810Y-7308000D02*
G75*
G03*
X8695810Y-7308000I-50000J0D01*
G01*
X8695810Y-9638000D02*
G75*
G03*
X8695810Y-9638000I-50000J0D01*
G01*
X8695810Y-9892000D02*
G75*
G03*
X8695810Y-9892000I-50000J0D01*
G01*
X8695810Y-10146000D02*
G75*
G03*
X8695810Y-10146000I-50000J0D01*
G01*
X8695810Y-10400000D02*
G75*
G03*
X8695810Y-10400000I-50000J0D01*
G01*
X8695810Y-10654000D02*
G75*
G03*
X8695810Y-10654000I-50000J0D01*
G01*
D12*
X13315730Y-6470880D02*
X13315730Y-6610580D01*
X13245880Y-6540730D02*
X13385580Y-6540730D01*
X13315730Y-6981420D02*
X13315730Y-7121120D01*
X13245880Y-7051270D02*
X13385580Y-7051270D01*
X13340730Y-5095880D02*
X13340730Y-5235580D01*
X13270880Y-5165730D02*
X13410580Y-5165730D01*
X13340730Y-5606420D02*
X13340730Y-5746120D01*
X13270880Y-5676270D02*
X13410580Y-5676270D01*
X13826270Y-6470880D02*
X13826270Y-6610580D01*
X13756420Y-6540730D02*
X13896120Y-6540730D01*
X13826270Y-6981420D02*
X13826270Y-7121120D01*
X13756420Y-7051270D02*
X13896120Y-7051270D01*
X13851270Y-5095880D02*
X13851270Y-5235580D01*
X13781420Y-5165730D02*
X13921120Y-5165730D01*
X13851270Y-5606420D02*
X13851270Y-5746120D01*
X13781420Y-5676270D02*
X13921120Y-5676270D01*
D13*
X13623984Y-6848984D02*
X13623984Y-6743016D01*
X13518016Y-6743016D01*
X13518016Y-6848984D01*
X13623984Y-6848984D01*
X13648984Y-5473984D02*
X13648984Y-5368016D01*
X13543016Y-5368016D01*
X13543016Y-5473984D01*
X13648984Y-5473984D01*
D11*
X8005777Y-12486484D02*
X8005777Y-12286484D01*
X8005777Y-12286484D02*
X8053396Y-12286484D01*
X8053396Y-12286484D02*
X8081967Y-12296008D01*
X8081967Y-12296008D02*
X8101015Y-12315055D01*
X8101015Y-12315055D02*
X8110539Y-12334103D01*
X8110539Y-12334103D02*
X8120062Y-12372198D01*
X8120062Y-12372198D02*
X8120062Y-12400769D01*
X8120062Y-12400769D02*
X8110539Y-12438865D01*
X8110539Y-12438865D02*
X8101015Y-12457912D01*
X8101015Y-12457912D02*
X8081967Y-12476960D01*
X8081967Y-12476960D02*
X8053396Y-12486484D01*
X8053396Y-12486484D02*
X8005777Y-12486484D01*
X8205777Y-12486484D02*
X8205777Y-12353150D01*
X8205777Y-12391246D02*
X8215301Y-12372198D01*
X8215301Y-12372198D02*
X8224824Y-12362674D01*
X8224824Y-12362674D02*
X8243872Y-12353150D01*
X8243872Y-12353150D02*
X8262920Y-12353150D01*
X8329586Y-12486484D02*
X8329586Y-12353150D01*
X8329586Y-12286484D02*
X8320062Y-12296008D01*
X8320062Y-12296008D02*
X8329586Y-12305531D01*
X8329586Y-12305531D02*
X8339110Y-12296008D01*
X8339110Y-12296008D02*
X8329586Y-12286484D01*
X8329586Y-12286484D02*
X8329586Y-12305531D01*
X8453396Y-12486484D02*
X8434348Y-12476960D01*
X8434348Y-12476960D02*
X8424824Y-12457912D01*
X8424824Y-12457912D02*
X8424824Y-12286484D01*
X8558158Y-12486484D02*
X8539110Y-12476960D01*
X8539110Y-12476960D02*
X8529586Y-12457912D01*
X8529586Y-12457912D02*
X8529586Y-12286484D01*
X8786729Y-12486484D02*
X8786729Y-12286484D01*
X8786729Y-12286484D02*
X8853396Y-12429341D01*
X8853396Y-12429341D02*
X8920063Y-12286484D01*
X8920063Y-12286484D02*
X8920063Y-12486484D01*
X9101015Y-12486484D02*
X9101015Y-12381722D01*
X9101015Y-12381722D02*
X9091491Y-12362674D01*
X9091491Y-12362674D02*
X9072444Y-12353150D01*
X9072444Y-12353150D02*
X9034348Y-12353150D01*
X9034348Y-12353150D02*
X9015301Y-12362674D01*
X9101015Y-12476960D02*
X9081967Y-12486484D01*
X9081967Y-12486484D02*
X9034348Y-12486484D01*
X9034348Y-12486484D02*
X9015301Y-12476960D01*
X9015301Y-12476960D02*
X9005777Y-12457912D01*
X9005777Y-12457912D02*
X9005777Y-12438865D01*
X9005777Y-12438865D02*
X9015301Y-12419817D01*
X9015301Y-12419817D02*
X9034348Y-12410293D01*
X9034348Y-12410293D02*
X9081967Y-12410293D01*
X9081967Y-12410293D02*
X9101015Y-12400769D01*
X9196253Y-12353150D02*
X9196253Y-12553150D01*
X9196253Y-12362674D02*
X9215301Y-12353150D01*
X9215301Y-12353150D02*
X9253396Y-12353150D01*
X9253396Y-12353150D02*
X9272444Y-12362674D01*
X9272444Y-12362674D02*
X9281967Y-12372198D01*
X9281967Y-12372198D02*
X9291491Y-12391246D01*
X9291491Y-12391246D02*
X9291491Y-12448388D01*
X9291491Y-12448388D02*
X9281967Y-12467436D01*
X9281967Y-12467436D02*
X9272444Y-12476960D01*
X9272444Y-12476960D02*
X9253396Y-12486484D01*
X9253396Y-12486484D02*
X9215301Y-12486484D01*
X9215301Y-12486484D02*
X9196253Y-12476960D01*
X9377205Y-12467436D02*
X9386729Y-12476960D01*
X9386729Y-12476960D02*
X9377205Y-12486484D01*
X9377205Y-12486484D02*
X9367682Y-12476960D01*
X9367682Y-12476960D02*
X9377205Y-12467436D01*
X9377205Y-12467436D02*
X9377205Y-12486484D01*
X9377205Y-12362674D02*
X9386729Y-12372198D01*
X9386729Y-12372198D02*
X9377205Y-12381722D01*
X9377205Y-12381722D02*
X9367682Y-12372198D01*
X9367682Y-12372198D02*
X9377205Y-12362674D01*
X9377205Y-12362674D02*
X9377205Y-12381722D01*
D10*
X7705000Y-12795000D02*
X7745000Y-12835000D01*
X7745000Y-12795000D02*
X7705000Y-12835000D01*
D11*
X8043872Y-12706484D02*
X8062920Y-12706484D01*
X8062920Y-12706484D02*
X8081967Y-12716008D01*
X8081967Y-12716008D02*
X8091491Y-12725531D01*
X8091491Y-12725531D02*
X8101015Y-12744579D01*
X8101015Y-12744579D02*
X8110539Y-12782674D01*
X8110539Y-12782674D02*
X8110539Y-12830293D01*
X8110539Y-12830293D02*
X8101015Y-12868388D01*
X8101015Y-12868388D02*
X8091491Y-12887436D01*
X8091491Y-12887436D02*
X8081967Y-12896960D01*
X8081967Y-12896960D02*
X8062920Y-12906484D01*
X8062920Y-12906484D02*
X8043872Y-12906484D01*
X8043872Y-12906484D02*
X8024824Y-12896960D01*
X8024824Y-12896960D02*
X8015301Y-12887436D01*
X8015301Y-12887436D02*
X8005777Y-12868388D01*
X8005777Y-12868388D02*
X7996253Y-12830293D01*
X7996253Y-12830293D02*
X7996253Y-12782674D01*
X7996253Y-12782674D02*
X8005777Y-12744579D01*
X8005777Y-12744579D02*
X8015301Y-12725531D01*
X8015301Y-12725531D02*
X8024824Y-12716008D01*
X8024824Y-12716008D02*
X8043872Y-12706484D01*
X8196253Y-12887436D02*
X8205777Y-12896960D01*
X8205777Y-12896960D02*
X8196253Y-12906484D01*
X8196253Y-12906484D02*
X8186729Y-12896960D01*
X8186729Y-12896960D02*
X8196253Y-12887436D01*
X8196253Y-12887436D02*
X8196253Y-12906484D01*
X8377205Y-12773150D02*
X8377205Y-12906484D01*
X8329586Y-12696960D02*
X8281967Y-12839817D01*
X8281967Y-12839817D02*
X8405777Y-12839817D01*
X8520063Y-12706484D02*
X8539110Y-12706484D01*
X8539110Y-12706484D02*
X8558158Y-12716008D01*
X8558158Y-12716008D02*
X8567682Y-12725531D01*
X8567682Y-12725531D02*
X8577205Y-12744579D01*
X8577205Y-12744579D02*
X8586729Y-12782674D01*
X8586729Y-12782674D02*
X8586729Y-12830293D01*
X8586729Y-12830293D02*
X8577205Y-12868388D01*
X8577205Y-12868388D02*
X8567682Y-12887436D01*
X8567682Y-12887436D02*
X8558158Y-12896960D01*
X8558158Y-12896960D02*
X8539110Y-12906484D01*
X8539110Y-12906484D02*
X8520063Y-12906484D01*
X8520063Y-12906484D02*
X8501015Y-12896960D01*
X8501015Y-12896960D02*
X8491491Y-12887436D01*
X8491491Y-12887436D02*
X8481967Y-12868388D01*
X8481967Y-12868388D02*
X8472444Y-12830293D01*
X8472444Y-12830293D02*
X8472444Y-12782674D01*
X8472444Y-12782674D02*
X8481967Y-12744579D01*
X8481967Y-12744579D02*
X8491491Y-12725531D01*
X8491491Y-12725531D02*
X8501015Y-12716008D01*
X8501015Y-12716008D02*
X8520063Y-12706484D01*
X8710539Y-12706484D02*
X8729586Y-12706484D01*
X8729586Y-12706484D02*
X8748634Y-12716008D01*
X8748634Y-12716008D02*
X8758158Y-12725531D01*
X8758158Y-12725531D02*
X8767682Y-12744579D01*
X8767682Y-12744579D02*
X8777205Y-12782674D01*
X8777205Y-12782674D02*
X8777205Y-12830293D01*
X8777205Y-12830293D02*
X8767682Y-12868388D01*
X8767682Y-12868388D02*
X8758158Y-12887436D01*
X8758158Y-12887436D02*
X8748634Y-12896960D01*
X8748634Y-12896960D02*
X8729586Y-12906484D01*
X8729586Y-12906484D02*
X8710539Y-12906484D01*
X8710539Y-12906484D02*
X8691491Y-12896960D01*
X8691491Y-12896960D02*
X8681967Y-12887436D01*
X8681967Y-12887436D02*
X8672444Y-12868388D01*
X8672444Y-12868388D02*
X8662920Y-12830293D01*
X8662920Y-12830293D02*
X8662920Y-12782674D01*
X8662920Y-12782674D02*
X8672444Y-12744579D01*
X8672444Y-12744579D02*
X8681967Y-12725531D01*
X8681967Y-12725531D02*
X8691491Y-12716008D01*
X8691491Y-12716008D02*
X8710539Y-12706484D01*
X8862920Y-12906484D02*
X8862920Y-12773150D01*
X8862920Y-12792198D02*
X8872444Y-12782674D01*
X8872444Y-12782674D02*
X8891491Y-12773150D01*
X8891491Y-12773150D02*
X8920063Y-12773150D01*
X8920063Y-12773150D02*
X8939110Y-12782674D01*
X8939110Y-12782674D02*
X8948634Y-12801722D01*
X8948634Y-12801722D02*
X8948634Y-12906484D01*
X8948634Y-12801722D02*
X8958158Y-12782674D01*
X8958158Y-12782674D02*
X8977205Y-12773150D01*
X8977205Y-12773150D02*
X9005777Y-12773150D01*
X9005777Y-12773150D02*
X9024825Y-12782674D01*
X9024825Y-12782674D02*
X9034348Y-12801722D01*
X9034348Y-12801722D02*
X9034348Y-12906484D01*
X9129586Y-12906484D02*
X9129586Y-12773150D01*
X9129586Y-12792198D02*
X9139110Y-12782674D01*
X9139110Y-12782674D02*
X9158158Y-12773150D01*
X9158158Y-12773150D02*
X9186729Y-12773150D01*
X9186729Y-12773150D02*
X9205777Y-12782674D01*
X9205777Y-12782674D02*
X9215301Y-12801722D01*
X9215301Y-12801722D02*
X9215301Y-12906484D01*
X9215301Y-12801722D02*
X9224825Y-12782674D01*
X9224825Y-12782674D02*
X9243872Y-12773150D01*
X9243872Y-12773150D02*
X9272444Y-12773150D01*
X9272444Y-12773150D02*
X9291491Y-12782674D01*
X9291491Y-12782674D02*
X9301015Y-12801722D01*
X9301015Y-12801722D02*
X9301015Y-12906484D01*
X9691491Y-12696960D02*
X9520063Y-12954103D01*
X9948634Y-12706484D02*
X9967682Y-12706484D01*
X9967682Y-12706484D02*
X9986729Y-12716008D01*
X9986729Y-12716008D02*
X9996253Y-12725531D01*
X9996253Y-12725531D02*
X10005777Y-12744579D01*
X10005777Y-12744579D02*
X10015301Y-12782674D01*
X10015301Y-12782674D02*
X10015301Y-12830293D01*
X10015301Y-12830293D02*
X10005777Y-12868388D01*
X10005777Y-12868388D02*
X9996253Y-12887436D01*
X9996253Y-12887436D02*
X9986729Y-12896960D01*
X9986729Y-12896960D02*
X9967682Y-12906484D01*
X9967682Y-12906484D02*
X9948634Y-12906484D01*
X9948634Y-12906484D02*
X9929587Y-12896960D01*
X9929587Y-12896960D02*
X9920063Y-12887436D01*
X9920063Y-12887436D02*
X9910539Y-12868388D01*
X9910539Y-12868388D02*
X9901015Y-12830293D01*
X9901015Y-12830293D02*
X9901015Y-12782674D01*
X9901015Y-12782674D02*
X9910539Y-12744579D01*
X9910539Y-12744579D02*
X9920063Y-12725531D01*
X9920063Y-12725531D02*
X9929587Y-12716008D01*
X9929587Y-12716008D02*
X9948634Y-12706484D01*
X10101015Y-12887436D02*
X10110539Y-12896960D01*
X10110539Y-12896960D02*
X10101015Y-12906484D01*
X10101015Y-12906484D02*
X10091491Y-12896960D01*
X10091491Y-12896960D02*
X10101015Y-12887436D01*
X10101015Y-12887436D02*
X10101015Y-12906484D01*
X10234348Y-12706484D02*
X10253396Y-12706484D01*
X10253396Y-12706484D02*
X10272444Y-12716008D01*
X10272444Y-12716008D02*
X10281968Y-12725531D01*
X10281968Y-12725531D02*
X10291491Y-12744579D01*
X10291491Y-12744579D02*
X10301015Y-12782674D01*
X10301015Y-12782674D02*
X10301015Y-12830293D01*
X10301015Y-12830293D02*
X10291491Y-12868388D01*
X10291491Y-12868388D02*
X10281968Y-12887436D01*
X10281968Y-12887436D02*
X10272444Y-12896960D01*
X10272444Y-12896960D02*
X10253396Y-12906484D01*
X10253396Y-12906484D02*
X10234348Y-12906484D01*
X10234348Y-12906484D02*
X10215301Y-12896960D01*
X10215301Y-12896960D02*
X10205777Y-12887436D01*
X10205777Y-12887436D02*
X10196253Y-12868388D01*
X10196253Y-12868388D02*
X10186729Y-12830293D01*
X10186729Y-12830293D02*
X10186729Y-12782674D01*
X10186729Y-12782674D02*
X10196253Y-12744579D01*
X10196253Y-12744579D02*
X10205777Y-12725531D01*
X10205777Y-12725531D02*
X10215301Y-12716008D01*
X10215301Y-12716008D02*
X10234348Y-12706484D01*
X10491491Y-12906484D02*
X10377206Y-12906484D01*
X10434348Y-12906484D02*
X10434348Y-12706484D01*
X10434348Y-12706484D02*
X10415301Y-12735055D01*
X10415301Y-12735055D02*
X10396253Y-12754103D01*
X10396253Y-12754103D02*
X10377206Y-12763627D01*
X10672444Y-12706484D02*
X10577206Y-12706484D01*
X10577206Y-12706484D02*
X10567682Y-12801722D01*
X10567682Y-12801722D02*
X10577206Y-12792198D01*
X10577206Y-12792198D02*
X10596253Y-12782674D01*
X10596253Y-12782674D02*
X10643872Y-12782674D01*
X10643872Y-12782674D02*
X10662920Y-12792198D01*
X10662920Y-12792198D02*
X10672444Y-12801722D01*
X10672444Y-12801722D02*
X10681968Y-12820769D01*
X10681968Y-12820769D02*
X10681968Y-12868388D01*
X10681968Y-12868388D02*
X10672444Y-12887436D01*
X10672444Y-12887436D02*
X10662920Y-12896960D01*
X10662920Y-12896960D02*
X10643872Y-12906484D01*
X10643872Y-12906484D02*
X10596253Y-12906484D01*
X10596253Y-12906484D02*
X10577206Y-12896960D01*
X10577206Y-12896960D02*
X10567682Y-12887436D01*
X10748634Y-12706484D02*
X10881968Y-12706484D01*
X10881968Y-12706484D02*
X10796253Y-12906484D01*
X10948634Y-12706484D02*
X10948634Y-12744579D01*
X11024825Y-12706484D02*
X11024825Y-12744579D01*
X11320063Y-12982674D02*
X11310539Y-12973150D01*
X11310539Y-12973150D02*
X11291491Y-12944579D01*
X11291491Y-12944579D02*
X11281968Y-12925531D01*
X11281968Y-12925531D02*
X11272444Y-12896960D01*
X11272444Y-12896960D02*
X11262920Y-12849341D01*
X11262920Y-12849341D02*
X11262920Y-12811246D01*
X11262920Y-12811246D02*
X11272444Y-12763627D01*
X11272444Y-12763627D02*
X11281968Y-12735055D01*
X11281968Y-12735055D02*
X11291491Y-12716008D01*
X11291491Y-12716008D02*
X11310539Y-12687436D01*
X11310539Y-12687436D02*
X11320063Y-12677912D01*
X11501015Y-12906484D02*
X11386729Y-12906484D01*
X11443872Y-12906484D02*
X11443872Y-12706484D01*
X11443872Y-12706484D02*
X11424825Y-12735055D01*
X11424825Y-12735055D02*
X11405777Y-12754103D01*
X11405777Y-12754103D02*
X11386729Y-12763627D01*
X11577206Y-12725531D02*
X11586729Y-12716008D01*
X11586729Y-12716008D02*
X11605777Y-12706484D01*
X11605777Y-12706484D02*
X11653396Y-12706484D01*
X11653396Y-12706484D02*
X11672444Y-12716008D01*
X11672444Y-12716008D02*
X11681968Y-12725531D01*
X11681968Y-12725531D02*
X11691491Y-12744579D01*
X11691491Y-12744579D02*
X11691491Y-12763627D01*
X11691491Y-12763627D02*
X11681968Y-12792198D01*
X11681968Y-12792198D02*
X11567682Y-12906484D01*
X11567682Y-12906484D02*
X11691491Y-12906484D01*
X11881968Y-12906484D02*
X11767682Y-12906484D01*
X11824825Y-12906484D02*
X11824825Y-12706484D01*
X11824825Y-12706484D02*
X11805777Y-12735055D01*
X11805777Y-12735055D02*
X11786729Y-12754103D01*
X11786729Y-12754103D02*
X11767682Y-12763627D01*
X12120063Y-12906484D02*
X12120063Y-12706484D01*
X12205777Y-12906484D02*
X12205777Y-12801722D01*
X12205777Y-12801722D02*
X12196253Y-12782674D01*
X12196253Y-12782674D02*
X12177206Y-12773150D01*
X12177206Y-12773150D02*
X12148634Y-12773150D01*
X12148634Y-12773150D02*
X12129587Y-12782674D01*
X12129587Y-12782674D02*
X12120063Y-12792198D01*
X12329587Y-12906484D02*
X12310539Y-12896960D01*
X12310539Y-12896960D02*
X12301015Y-12887436D01*
X12301015Y-12887436D02*
X12291491Y-12868388D01*
X12291491Y-12868388D02*
X12291491Y-12811246D01*
X12291491Y-12811246D02*
X12301015Y-12792198D01*
X12301015Y-12792198D02*
X12310539Y-12782674D01*
X12310539Y-12782674D02*
X12329587Y-12773150D01*
X12329587Y-12773150D02*
X12358158Y-12773150D01*
X12358158Y-12773150D02*
X12377206Y-12782674D01*
X12377206Y-12782674D02*
X12386730Y-12792198D01*
X12386730Y-12792198D02*
X12396253Y-12811246D01*
X12396253Y-12811246D02*
X12396253Y-12868388D01*
X12396253Y-12868388D02*
X12386730Y-12887436D01*
X12386730Y-12887436D02*
X12377206Y-12896960D01*
X12377206Y-12896960D02*
X12358158Y-12906484D01*
X12358158Y-12906484D02*
X12329587Y-12906484D01*
X12510539Y-12906484D02*
X12491491Y-12896960D01*
X12491491Y-12896960D02*
X12481968Y-12877912D01*
X12481968Y-12877912D02*
X12481968Y-12706484D01*
X12662920Y-12896960D02*
X12643872Y-12906484D01*
X12643872Y-12906484D02*
X12605777Y-12906484D01*
X12605777Y-12906484D02*
X12586730Y-12896960D01*
X12586730Y-12896960D02*
X12577206Y-12877912D01*
X12577206Y-12877912D02*
X12577206Y-12801722D01*
X12577206Y-12801722D02*
X12586730Y-12782674D01*
X12586730Y-12782674D02*
X12605777Y-12773150D01*
X12605777Y-12773150D02*
X12643872Y-12773150D01*
X12643872Y-12773150D02*
X12662920Y-12782674D01*
X12662920Y-12782674D02*
X12672444Y-12801722D01*
X12672444Y-12801722D02*
X12672444Y-12820769D01*
X12672444Y-12820769D02*
X12577206Y-12839817D01*
X12748634Y-12896960D02*
X12767682Y-12906484D01*
X12767682Y-12906484D02*
X12805777Y-12906484D01*
X12805777Y-12906484D02*
X12824825Y-12896960D01*
X12824825Y-12896960D02*
X12834349Y-12877912D01*
X12834349Y-12877912D02*
X12834349Y-12868388D01*
X12834349Y-12868388D02*
X12824825Y-12849341D01*
X12824825Y-12849341D02*
X12805777Y-12839817D01*
X12805777Y-12839817D02*
X12777206Y-12839817D01*
X12777206Y-12839817D02*
X12758158Y-12830293D01*
X12758158Y-12830293D02*
X12748634Y-12811246D01*
X12748634Y-12811246D02*
X12748634Y-12801722D01*
X12748634Y-12801722D02*
X12758158Y-12782674D01*
X12758158Y-12782674D02*
X12777206Y-12773150D01*
X12777206Y-12773150D02*
X12805777Y-12773150D01*
X12805777Y-12773150D02*
X12824825Y-12782674D01*
X12901015Y-12982674D02*
X12910539Y-12973150D01*
X12910539Y-12973150D02*
X12929587Y-12944579D01*
X12929587Y-12944579D02*
X12939111Y-12925531D01*
X12939111Y-12925531D02*
X12948634Y-12896960D01*
X12948634Y-12896960D02*
X12958158Y-12849341D01*
X12958158Y-12849341D02*
X12958158Y-12811246D01*
X12958158Y-12811246D02*
X12948634Y-12763627D01*
X12948634Y-12763627D02*
X12939111Y-12735055D01*
X12939111Y-12735055D02*
X12929587Y-12716008D01*
X12929587Y-12716008D02*
X12910539Y-12687436D01*
X12910539Y-12687436D02*
X12901015Y-12677912D01*
D10*
X7745000Y-13079000D02*
G75*
G03*
X7745000Y-13079000I-50000J0D01*
G01*
D11*
X8110539Y-13170484D02*
X7996253Y-13170484D01*
X8053396Y-13170484D02*
X8053396Y-12970484D01*
X8053396Y-12970484D02*
X8034348Y-12999055D01*
X8034348Y-12999055D02*
X8015301Y-13018103D01*
X8015301Y-13018103D02*
X7996253Y-13027627D01*
X8196253Y-13151436D02*
X8205777Y-13160960D01*
X8205777Y-13160960D02*
X8196253Y-13170484D01*
X8196253Y-13170484D02*
X8186729Y-13160960D01*
X8186729Y-13160960D02*
X8196253Y-13151436D01*
X8196253Y-13151436D02*
X8196253Y-13170484D01*
X8329586Y-12970484D02*
X8348634Y-12970484D01*
X8348634Y-12970484D02*
X8367682Y-12980008D01*
X8367682Y-12980008D02*
X8377205Y-12989531D01*
X8377205Y-12989531D02*
X8386729Y-13008579D01*
X8386729Y-13008579D02*
X8396253Y-13046674D01*
X8396253Y-13046674D02*
X8396253Y-13094293D01*
X8396253Y-13094293D02*
X8386729Y-13132388D01*
X8386729Y-13132388D02*
X8377205Y-13151436D01*
X8377205Y-13151436D02*
X8367682Y-13160960D01*
X8367682Y-13160960D02*
X8348634Y-13170484D01*
X8348634Y-13170484D02*
X8329586Y-13170484D01*
X8329586Y-13170484D02*
X8310539Y-13160960D01*
X8310539Y-13160960D02*
X8301015Y-13151436D01*
X8301015Y-13151436D02*
X8291491Y-13132388D01*
X8291491Y-13132388D02*
X8281967Y-13094293D01*
X8281967Y-13094293D02*
X8281967Y-13046674D01*
X8281967Y-13046674D02*
X8291491Y-13008579D01*
X8291491Y-13008579D02*
X8301015Y-12989531D01*
X8301015Y-12989531D02*
X8310539Y-12980008D01*
X8310539Y-12980008D02*
X8329586Y-12970484D01*
X8520063Y-12970484D02*
X8539110Y-12970484D01*
X8539110Y-12970484D02*
X8558158Y-12980008D01*
X8558158Y-12980008D02*
X8567682Y-12989531D01*
X8567682Y-12989531D02*
X8577205Y-13008579D01*
X8577205Y-13008579D02*
X8586729Y-13046674D01*
X8586729Y-13046674D02*
X8586729Y-13094293D01*
X8586729Y-13094293D02*
X8577205Y-13132388D01*
X8577205Y-13132388D02*
X8567682Y-13151436D01*
X8567682Y-13151436D02*
X8558158Y-13160960D01*
X8558158Y-13160960D02*
X8539110Y-13170484D01*
X8539110Y-13170484D02*
X8520063Y-13170484D01*
X8520063Y-13170484D02*
X8501015Y-13160960D01*
X8501015Y-13160960D02*
X8491491Y-13151436D01*
X8491491Y-13151436D02*
X8481967Y-13132388D01*
X8481967Y-13132388D02*
X8472444Y-13094293D01*
X8472444Y-13094293D02*
X8472444Y-13046674D01*
X8472444Y-13046674D02*
X8481967Y-13008579D01*
X8481967Y-13008579D02*
X8491491Y-12989531D01*
X8491491Y-12989531D02*
X8501015Y-12980008D01*
X8501015Y-12980008D02*
X8520063Y-12970484D01*
X8710539Y-12970484D02*
X8729586Y-12970484D01*
X8729586Y-12970484D02*
X8748634Y-12980008D01*
X8748634Y-12980008D02*
X8758158Y-12989531D01*
X8758158Y-12989531D02*
X8767682Y-13008579D01*
X8767682Y-13008579D02*
X8777205Y-13046674D01*
X8777205Y-13046674D02*
X8777205Y-13094293D01*
X8777205Y-13094293D02*
X8767682Y-13132388D01*
X8767682Y-13132388D02*
X8758158Y-13151436D01*
X8758158Y-13151436D02*
X8748634Y-13160960D01*
X8748634Y-13160960D02*
X8729586Y-13170484D01*
X8729586Y-13170484D02*
X8710539Y-13170484D01*
X8710539Y-13170484D02*
X8691491Y-13160960D01*
X8691491Y-13160960D02*
X8681967Y-13151436D01*
X8681967Y-13151436D02*
X8672444Y-13132388D01*
X8672444Y-13132388D02*
X8662920Y-13094293D01*
X8662920Y-13094293D02*
X8662920Y-13046674D01*
X8662920Y-13046674D02*
X8672444Y-13008579D01*
X8672444Y-13008579D02*
X8681967Y-12989531D01*
X8681967Y-12989531D02*
X8691491Y-12980008D01*
X8691491Y-12980008D02*
X8710539Y-12970484D01*
X8862920Y-13170484D02*
X8862920Y-13037150D01*
X8862920Y-13056198D02*
X8872444Y-13046674D01*
X8872444Y-13046674D02*
X8891491Y-13037150D01*
X8891491Y-13037150D02*
X8920063Y-13037150D01*
X8920063Y-13037150D02*
X8939110Y-13046674D01*
X8939110Y-13046674D02*
X8948634Y-13065722D01*
X8948634Y-13065722D02*
X8948634Y-13170484D01*
X8948634Y-13065722D02*
X8958158Y-13046674D01*
X8958158Y-13046674D02*
X8977205Y-13037150D01*
X8977205Y-13037150D02*
X9005777Y-13037150D01*
X9005777Y-13037150D02*
X9024825Y-13046674D01*
X9024825Y-13046674D02*
X9034348Y-13065722D01*
X9034348Y-13065722D02*
X9034348Y-13170484D01*
X9129586Y-13170484D02*
X9129586Y-13037150D01*
X9129586Y-13056198D02*
X9139110Y-13046674D01*
X9139110Y-13046674D02*
X9158158Y-13037150D01*
X9158158Y-13037150D02*
X9186729Y-13037150D01*
X9186729Y-13037150D02*
X9205777Y-13046674D01*
X9205777Y-13046674D02*
X9215301Y-13065722D01*
X9215301Y-13065722D02*
X9215301Y-13170484D01*
X9215301Y-13065722D02*
X9224825Y-13046674D01*
X9224825Y-13046674D02*
X9243872Y-13037150D01*
X9243872Y-13037150D02*
X9272444Y-13037150D01*
X9272444Y-13037150D02*
X9291491Y-13046674D01*
X9291491Y-13046674D02*
X9301015Y-13065722D01*
X9301015Y-13065722D02*
X9301015Y-13170484D01*
X9691491Y-12960960D02*
X9520063Y-13218103D01*
X9948634Y-12970484D02*
X9967682Y-12970484D01*
X9967682Y-12970484D02*
X9986729Y-12980008D01*
X9986729Y-12980008D02*
X9996253Y-12989531D01*
X9996253Y-12989531D02*
X10005777Y-13008579D01*
X10005777Y-13008579D02*
X10015301Y-13046674D01*
X10015301Y-13046674D02*
X10015301Y-13094293D01*
X10015301Y-13094293D02*
X10005777Y-13132388D01*
X10005777Y-13132388D02*
X9996253Y-13151436D01*
X9996253Y-13151436D02*
X9986729Y-13160960D01*
X9986729Y-13160960D02*
X9967682Y-13170484D01*
X9967682Y-13170484D02*
X9948634Y-13170484D01*
X9948634Y-13170484D02*
X9929587Y-13160960D01*
X9929587Y-13160960D02*
X9920063Y-13151436D01*
X9920063Y-13151436D02*
X9910539Y-13132388D01*
X9910539Y-13132388D02*
X9901015Y-13094293D01*
X9901015Y-13094293D02*
X9901015Y-13046674D01*
X9901015Y-13046674D02*
X9910539Y-13008579D01*
X9910539Y-13008579D02*
X9920063Y-12989531D01*
X9920063Y-12989531D02*
X9929587Y-12980008D01*
X9929587Y-12980008D02*
X9948634Y-12970484D01*
X10101015Y-13151436D02*
X10110539Y-13160960D01*
X10110539Y-13160960D02*
X10101015Y-13170484D01*
X10101015Y-13170484D02*
X10091491Y-13160960D01*
X10091491Y-13160960D02*
X10101015Y-13151436D01*
X10101015Y-13151436D02*
X10101015Y-13170484D01*
X10234348Y-12970484D02*
X10253396Y-12970484D01*
X10253396Y-12970484D02*
X10272444Y-12980008D01*
X10272444Y-12980008D02*
X10281968Y-12989531D01*
X10281968Y-12989531D02*
X10291491Y-13008579D01*
X10291491Y-13008579D02*
X10301015Y-13046674D01*
X10301015Y-13046674D02*
X10301015Y-13094293D01*
X10301015Y-13094293D02*
X10291491Y-13132388D01*
X10291491Y-13132388D02*
X10281968Y-13151436D01*
X10281968Y-13151436D02*
X10272444Y-13160960D01*
X10272444Y-13160960D02*
X10253396Y-13170484D01*
X10253396Y-13170484D02*
X10234348Y-13170484D01*
X10234348Y-13170484D02*
X10215301Y-13160960D01*
X10215301Y-13160960D02*
X10205777Y-13151436D01*
X10205777Y-13151436D02*
X10196253Y-13132388D01*
X10196253Y-13132388D02*
X10186729Y-13094293D01*
X10186729Y-13094293D02*
X10186729Y-13046674D01*
X10186729Y-13046674D02*
X10196253Y-13008579D01*
X10196253Y-13008579D02*
X10205777Y-12989531D01*
X10205777Y-12989531D02*
X10215301Y-12980008D01*
X10215301Y-12980008D02*
X10234348Y-12970484D01*
X10367682Y-12970484D02*
X10491491Y-12970484D01*
X10491491Y-12970484D02*
X10424825Y-13046674D01*
X10424825Y-13046674D02*
X10453396Y-13046674D01*
X10453396Y-13046674D02*
X10472444Y-13056198D01*
X10472444Y-13056198D02*
X10481968Y-13065722D01*
X10481968Y-13065722D02*
X10491491Y-13084769D01*
X10491491Y-13084769D02*
X10491491Y-13132388D01*
X10491491Y-13132388D02*
X10481968Y-13151436D01*
X10481968Y-13151436D02*
X10472444Y-13160960D01*
X10472444Y-13160960D02*
X10453396Y-13170484D01*
X10453396Y-13170484D02*
X10396253Y-13170484D01*
X10396253Y-13170484D02*
X10377206Y-13160960D01*
X10377206Y-13160960D02*
X10367682Y-13151436D01*
X10586729Y-13170484D02*
X10624825Y-13170484D01*
X10624825Y-13170484D02*
X10643872Y-13160960D01*
X10643872Y-13160960D02*
X10653396Y-13151436D01*
X10653396Y-13151436D02*
X10672444Y-13122865D01*
X10672444Y-13122865D02*
X10681968Y-13084769D01*
X10681968Y-13084769D02*
X10681968Y-13008579D01*
X10681968Y-13008579D02*
X10672444Y-12989531D01*
X10672444Y-12989531D02*
X10662920Y-12980008D01*
X10662920Y-12980008D02*
X10643872Y-12970484D01*
X10643872Y-12970484D02*
X10605777Y-12970484D01*
X10605777Y-12970484D02*
X10586729Y-12980008D01*
X10586729Y-12980008D02*
X10577206Y-12989531D01*
X10577206Y-12989531D02*
X10567682Y-13008579D01*
X10567682Y-13008579D02*
X10567682Y-13056198D01*
X10567682Y-13056198D02*
X10577206Y-13075246D01*
X10577206Y-13075246D02*
X10586729Y-13084769D01*
X10586729Y-13084769D02*
X10605777Y-13094293D01*
X10605777Y-13094293D02*
X10643872Y-13094293D01*
X10643872Y-13094293D02*
X10662920Y-13084769D01*
X10662920Y-13084769D02*
X10672444Y-13075246D01*
X10672444Y-13075246D02*
X10681968Y-13056198D01*
X10853396Y-13037150D02*
X10853396Y-13170484D01*
X10805777Y-12960960D02*
X10758158Y-13103817D01*
X10758158Y-13103817D02*
X10881968Y-13103817D01*
X10948634Y-12970484D02*
X10948634Y-13008579D01*
X11024825Y-12970484D02*
X11024825Y-13008579D01*
X11320063Y-13246674D02*
X11310539Y-13237150D01*
X11310539Y-13237150D02*
X11291491Y-13208579D01*
X11291491Y-13208579D02*
X11281968Y-13189531D01*
X11281968Y-13189531D02*
X11272444Y-13160960D01*
X11272444Y-13160960D02*
X11262920Y-13113341D01*
X11262920Y-13113341D02*
X11262920Y-13075246D01*
X11262920Y-13075246D02*
X11272444Y-13027627D01*
X11272444Y-13027627D02*
X11281968Y-12999055D01*
X11281968Y-12999055D02*
X11291491Y-12980008D01*
X11291491Y-12980008D02*
X11310539Y-12951436D01*
X11310539Y-12951436D02*
X11320063Y-12941912D01*
X11386729Y-12989531D02*
X11396253Y-12980008D01*
X11396253Y-12980008D02*
X11415301Y-12970484D01*
X11415301Y-12970484D02*
X11462920Y-12970484D01*
X11462920Y-12970484D02*
X11481968Y-12980008D01*
X11481968Y-12980008D02*
X11491491Y-12989531D01*
X11491491Y-12989531D02*
X11501015Y-13008579D01*
X11501015Y-13008579D02*
X11501015Y-13027627D01*
X11501015Y-13027627D02*
X11491491Y-13056198D01*
X11491491Y-13056198D02*
X11377206Y-13170484D01*
X11377206Y-13170484D02*
X11501015Y-13170484D01*
X11672444Y-12970484D02*
X11634348Y-12970484D01*
X11634348Y-12970484D02*
X11615301Y-12980008D01*
X11615301Y-12980008D02*
X11605777Y-12989531D01*
X11605777Y-12989531D02*
X11586729Y-13018103D01*
X11586729Y-13018103D02*
X11577206Y-13056198D01*
X11577206Y-13056198D02*
X11577206Y-13132388D01*
X11577206Y-13132388D02*
X11586729Y-13151436D01*
X11586729Y-13151436D02*
X11596253Y-13160960D01*
X11596253Y-13160960D02*
X11615301Y-13170484D01*
X11615301Y-13170484D02*
X11653396Y-13170484D01*
X11653396Y-13170484D02*
X11672444Y-13160960D01*
X11672444Y-13160960D02*
X11681968Y-13151436D01*
X11681968Y-13151436D02*
X11691491Y-13132388D01*
X11691491Y-13132388D02*
X11691491Y-13084769D01*
X11691491Y-13084769D02*
X11681968Y-13065722D01*
X11681968Y-13065722D02*
X11672444Y-13056198D01*
X11672444Y-13056198D02*
X11653396Y-13046674D01*
X11653396Y-13046674D02*
X11615301Y-13046674D01*
X11615301Y-13046674D02*
X11596253Y-13056198D01*
X11596253Y-13056198D02*
X11586729Y-13065722D01*
X11586729Y-13065722D02*
X11577206Y-13084769D01*
X11929587Y-13170484D02*
X11929587Y-12970484D01*
X12015301Y-13170484D02*
X12015301Y-13065722D01*
X12015301Y-13065722D02*
X12005777Y-13046674D01*
X12005777Y-13046674D02*
X11986730Y-13037150D01*
X11986730Y-13037150D02*
X11958158Y-13037150D01*
X11958158Y-13037150D02*
X11939110Y-13046674D01*
X11939110Y-13046674D02*
X11929587Y-13056198D01*
X12139110Y-13170484D02*
X12120063Y-13160960D01*
X12120063Y-13160960D02*
X12110539Y-13151436D01*
X12110539Y-13151436D02*
X12101015Y-13132388D01*
X12101015Y-13132388D02*
X12101015Y-13075246D01*
X12101015Y-13075246D02*
X12110539Y-13056198D01*
X12110539Y-13056198D02*
X12120063Y-13046674D01*
X12120063Y-13046674D02*
X12139110Y-13037150D01*
X12139110Y-13037150D02*
X12167682Y-13037150D01*
X12167682Y-13037150D02*
X12186730Y-13046674D01*
X12186730Y-13046674D02*
X12196253Y-13056198D01*
X12196253Y-13056198D02*
X12205777Y-13075246D01*
X12205777Y-13075246D02*
X12205777Y-13132388D01*
X12205777Y-13132388D02*
X12196253Y-13151436D01*
X12196253Y-13151436D02*
X12186730Y-13160960D01*
X12186730Y-13160960D02*
X12167682Y-13170484D01*
X12167682Y-13170484D02*
X12139110Y-13170484D01*
X12320063Y-13170484D02*
X12301015Y-13160960D01*
X12301015Y-13160960D02*
X12291491Y-13141912D01*
X12291491Y-13141912D02*
X12291491Y-12970484D01*
X12472444Y-13160960D02*
X12453396Y-13170484D01*
X12453396Y-13170484D02*
X12415301Y-13170484D01*
X12415301Y-13170484D02*
X12396253Y-13160960D01*
X12396253Y-13160960D02*
X12386730Y-13141912D01*
X12386730Y-13141912D02*
X12386730Y-13065722D01*
X12386730Y-13065722D02*
X12396253Y-13046674D01*
X12396253Y-13046674D02*
X12415301Y-13037150D01*
X12415301Y-13037150D02*
X12453396Y-13037150D01*
X12453396Y-13037150D02*
X12472444Y-13046674D01*
X12472444Y-13046674D02*
X12481968Y-13065722D01*
X12481968Y-13065722D02*
X12481968Y-13084769D01*
X12481968Y-13084769D02*
X12386730Y-13103817D01*
X12558158Y-13160960D02*
X12577206Y-13170484D01*
X12577206Y-13170484D02*
X12615301Y-13170484D01*
X12615301Y-13170484D02*
X12634349Y-13160960D01*
X12634349Y-13160960D02*
X12643872Y-13141912D01*
X12643872Y-13141912D02*
X12643872Y-13132388D01*
X12643872Y-13132388D02*
X12634349Y-13113341D01*
X12634349Y-13113341D02*
X12615301Y-13103817D01*
X12615301Y-13103817D02*
X12586730Y-13103817D01*
X12586730Y-13103817D02*
X12567682Y-13094293D01*
X12567682Y-13094293D02*
X12558158Y-13075246D01*
X12558158Y-13075246D02*
X12558158Y-13065722D01*
X12558158Y-13065722D02*
X12567682Y-13046674D01*
X12567682Y-13046674D02*
X12586730Y-13037150D01*
X12586730Y-13037150D02*
X12615301Y-13037150D01*
X12615301Y-13037150D02*
X12634349Y-13046674D01*
X12710539Y-13246674D02*
X12720063Y-13237150D01*
X12720063Y-13237150D02*
X12739111Y-13208579D01*
X12739111Y-13208579D02*
X12748634Y-13189531D01*
X12748634Y-13189531D02*
X12758158Y-13160960D01*
X12758158Y-13160960D02*
X12767682Y-13113341D01*
X12767682Y-13113341D02*
X12767682Y-13075246D01*
X12767682Y-13075246D02*
X12758158Y-13027627D01*
X12758158Y-13027627D02*
X12748634Y-12999055D01*
X12748634Y-12999055D02*
X12739111Y-12980008D01*
X12739111Y-12980008D02*
X12720063Y-12951436D01*
X12720063Y-12951436D02*
X12710539Y-12941912D01*
D12*
X7675150Y-13273150D02*
X7675150Y-13412850D01*
X7605300Y-13343000D02*
X7745000Y-13343000D01*
D11*
X8110539Y-13434484D02*
X7996253Y-13434484D01*
X8053396Y-13434484D02*
X8053396Y-13234484D01*
X8053396Y-13234484D02*
X8034348Y-13263055D01*
X8034348Y-13263055D02*
X8015301Y-13282103D01*
X8015301Y-13282103D02*
X7996253Y-13291627D01*
X8196253Y-13415436D02*
X8205777Y-13424960D01*
X8205777Y-13424960D02*
X8196253Y-13434484D01*
X8196253Y-13434484D02*
X8186729Y-13424960D01*
X8186729Y-13424960D02*
X8196253Y-13415436D01*
X8196253Y-13415436D02*
X8196253Y-13434484D01*
X8272443Y-13234484D02*
X8396253Y-13234484D01*
X8396253Y-13234484D02*
X8329586Y-13310674D01*
X8329586Y-13310674D02*
X8358158Y-13310674D01*
X8358158Y-13310674D02*
X8377205Y-13320198D01*
X8377205Y-13320198D02*
X8386729Y-13329722D01*
X8386729Y-13329722D02*
X8396253Y-13348769D01*
X8396253Y-13348769D02*
X8396253Y-13396388D01*
X8396253Y-13396388D02*
X8386729Y-13415436D01*
X8386729Y-13415436D02*
X8377205Y-13424960D01*
X8377205Y-13424960D02*
X8358158Y-13434484D01*
X8358158Y-13434484D02*
X8301015Y-13434484D01*
X8301015Y-13434484D02*
X8281967Y-13424960D01*
X8281967Y-13424960D02*
X8272443Y-13415436D01*
X8491491Y-13434484D02*
X8529586Y-13434484D01*
X8529586Y-13434484D02*
X8548634Y-13424960D01*
X8548634Y-13424960D02*
X8558158Y-13415436D01*
X8558158Y-13415436D02*
X8577205Y-13386865D01*
X8577205Y-13386865D02*
X8586729Y-13348769D01*
X8586729Y-13348769D02*
X8586729Y-13272579D01*
X8586729Y-13272579D02*
X8577205Y-13253531D01*
X8577205Y-13253531D02*
X8567682Y-13244008D01*
X8567682Y-13244008D02*
X8548634Y-13234484D01*
X8548634Y-13234484D02*
X8510539Y-13234484D01*
X8510539Y-13234484D02*
X8491491Y-13244008D01*
X8491491Y-13244008D02*
X8481967Y-13253531D01*
X8481967Y-13253531D02*
X8472444Y-13272579D01*
X8472444Y-13272579D02*
X8472444Y-13320198D01*
X8472444Y-13320198D02*
X8481967Y-13339246D01*
X8481967Y-13339246D02*
X8491491Y-13348769D01*
X8491491Y-13348769D02*
X8510539Y-13358293D01*
X8510539Y-13358293D02*
X8548634Y-13358293D01*
X8548634Y-13358293D02*
X8567682Y-13348769D01*
X8567682Y-13348769D02*
X8577205Y-13339246D01*
X8577205Y-13339246D02*
X8586729Y-13320198D01*
X8653396Y-13234484D02*
X8786729Y-13234484D01*
X8786729Y-13234484D02*
X8701015Y-13434484D01*
X8862920Y-13434484D02*
X8862920Y-13301150D01*
X8862920Y-13320198D02*
X8872444Y-13310674D01*
X8872444Y-13310674D02*
X8891491Y-13301150D01*
X8891491Y-13301150D02*
X8920063Y-13301150D01*
X8920063Y-13301150D02*
X8939110Y-13310674D01*
X8939110Y-13310674D02*
X8948634Y-13329722D01*
X8948634Y-13329722D02*
X8948634Y-13434484D01*
X8948634Y-13329722D02*
X8958158Y-13310674D01*
X8958158Y-13310674D02*
X8977205Y-13301150D01*
X8977205Y-13301150D02*
X9005777Y-13301150D01*
X9005777Y-13301150D02*
X9024825Y-13310674D01*
X9024825Y-13310674D02*
X9034348Y-13329722D01*
X9034348Y-13329722D02*
X9034348Y-13434484D01*
X9129586Y-13434484D02*
X9129586Y-13301150D01*
X9129586Y-13320198D02*
X9139110Y-13310674D01*
X9139110Y-13310674D02*
X9158158Y-13301150D01*
X9158158Y-13301150D02*
X9186729Y-13301150D01*
X9186729Y-13301150D02*
X9205777Y-13310674D01*
X9205777Y-13310674D02*
X9215301Y-13329722D01*
X9215301Y-13329722D02*
X9215301Y-13434484D01*
X9215301Y-13329722D02*
X9224825Y-13310674D01*
X9224825Y-13310674D02*
X9243872Y-13301150D01*
X9243872Y-13301150D02*
X9272444Y-13301150D01*
X9272444Y-13301150D02*
X9291491Y-13310674D01*
X9291491Y-13310674D02*
X9301015Y-13329722D01*
X9301015Y-13329722D02*
X9301015Y-13434484D01*
X9691491Y-13224960D02*
X9520063Y-13482103D01*
X9948634Y-13234484D02*
X9967682Y-13234484D01*
X9967682Y-13234484D02*
X9986729Y-13244008D01*
X9986729Y-13244008D02*
X9996253Y-13253531D01*
X9996253Y-13253531D02*
X10005777Y-13272579D01*
X10005777Y-13272579D02*
X10015301Y-13310674D01*
X10015301Y-13310674D02*
X10015301Y-13358293D01*
X10015301Y-13358293D02*
X10005777Y-13396388D01*
X10005777Y-13396388D02*
X9996253Y-13415436D01*
X9996253Y-13415436D02*
X9986729Y-13424960D01*
X9986729Y-13424960D02*
X9967682Y-13434484D01*
X9967682Y-13434484D02*
X9948634Y-13434484D01*
X9948634Y-13434484D02*
X9929587Y-13424960D01*
X9929587Y-13424960D02*
X9920063Y-13415436D01*
X9920063Y-13415436D02*
X9910539Y-13396388D01*
X9910539Y-13396388D02*
X9901015Y-13358293D01*
X9901015Y-13358293D02*
X9901015Y-13310674D01*
X9901015Y-13310674D02*
X9910539Y-13272579D01*
X9910539Y-13272579D02*
X9920063Y-13253531D01*
X9920063Y-13253531D02*
X9929587Y-13244008D01*
X9929587Y-13244008D02*
X9948634Y-13234484D01*
X10101015Y-13415436D02*
X10110539Y-13424960D01*
X10110539Y-13424960D02*
X10101015Y-13434484D01*
X10101015Y-13434484D02*
X10091491Y-13424960D01*
X10091491Y-13424960D02*
X10101015Y-13415436D01*
X10101015Y-13415436D02*
X10101015Y-13434484D01*
X10234348Y-13234484D02*
X10253396Y-13234484D01*
X10253396Y-13234484D02*
X10272444Y-13244008D01*
X10272444Y-13244008D02*
X10281968Y-13253531D01*
X10281968Y-13253531D02*
X10291491Y-13272579D01*
X10291491Y-13272579D02*
X10301015Y-13310674D01*
X10301015Y-13310674D02*
X10301015Y-13358293D01*
X10301015Y-13358293D02*
X10291491Y-13396388D01*
X10291491Y-13396388D02*
X10281968Y-13415436D01*
X10281968Y-13415436D02*
X10272444Y-13424960D01*
X10272444Y-13424960D02*
X10253396Y-13434484D01*
X10253396Y-13434484D02*
X10234348Y-13434484D01*
X10234348Y-13434484D02*
X10215301Y-13424960D01*
X10215301Y-13424960D02*
X10205777Y-13415436D01*
X10205777Y-13415436D02*
X10196253Y-13396388D01*
X10196253Y-13396388D02*
X10186729Y-13358293D01*
X10186729Y-13358293D02*
X10186729Y-13310674D01*
X10186729Y-13310674D02*
X10196253Y-13272579D01*
X10196253Y-13272579D02*
X10205777Y-13253531D01*
X10205777Y-13253531D02*
X10215301Y-13244008D01*
X10215301Y-13244008D02*
X10234348Y-13234484D01*
X10481968Y-13234484D02*
X10386729Y-13234484D01*
X10386729Y-13234484D02*
X10377206Y-13329722D01*
X10377206Y-13329722D02*
X10386729Y-13320198D01*
X10386729Y-13320198D02*
X10405777Y-13310674D01*
X10405777Y-13310674D02*
X10453396Y-13310674D01*
X10453396Y-13310674D02*
X10472444Y-13320198D01*
X10472444Y-13320198D02*
X10481968Y-13329722D01*
X10481968Y-13329722D02*
X10491491Y-13348769D01*
X10491491Y-13348769D02*
X10491491Y-13396388D01*
X10491491Y-13396388D02*
X10481968Y-13415436D01*
X10481968Y-13415436D02*
X10472444Y-13424960D01*
X10472444Y-13424960D02*
X10453396Y-13434484D01*
X10453396Y-13434484D02*
X10405777Y-13434484D01*
X10405777Y-13434484D02*
X10386729Y-13424960D01*
X10386729Y-13424960D02*
X10377206Y-13415436D01*
X10672444Y-13234484D02*
X10577206Y-13234484D01*
X10577206Y-13234484D02*
X10567682Y-13329722D01*
X10567682Y-13329722D02*
X10577206Y-13320198D01*
X10577206Y-13320198D02*
X10596253Y-13310674D01*
X10596253Y-13310674D02*
X10643872Y-13310674D01*
X10643872Y-13310674D02*
X10662920Y-13320198D01*
X10662920Y-13320198D02*
X10672444Y-13329722D01*
X10672444Y-13329722D02*
X10681968Y-13348769D01*
X10681968Y-13348769D02*
X10681968Y-13396388D01*
X10681968Y-13396388D02*
X10672444Y-13415436D01*
X10672444Y-13415436D02*
X10662920Y-13424960D01*
X10662920Y-13424960D02*
X10643872Y-13434484D01*
X10643872Y-13434484D02*
X10596253Y-13434484D01*
X10596253Y-13434484D02*
X10577206Y-13424960D01*
X10577206Y-13424960D02*
X10567682Y-13415436D01*
X10805777Y-13234484D02*
X10824825Y-13234484D01*
X10824825Y-13234484D02*
X10843872Y-13244008D01*
X10843872Y-13244008D02*
X10853396Y-13253531D01*
X10853396Y-13253531D02*
X10862920Y-13272579D01*
X10862920Y-13272579D02*
X10872444Y-13310674D01*
X10872444Y-13310674D02*
X10872444Y-13358293D01*
X10872444Y-13358293D02*
X10862920Y-13396388D01*
X10862920Y-13396388D02*
X10853396Y-13415436D01*
X10853396Y-13415436D02*
X10843872Y-13424960D01*
X10843872Y-13424960D02*
X10824825Y-13434484D01*
X10824825Y-13434484D02*
X10805777Y-13434484D01*
X10805777Y-13434484D02*
X10786729Y-13424960D01*
X10786729Y-13424960D02*
X10777206Y-13415436D01*
X10777206Y-13415436D02*
X10767682Y-13396388D01*
X10767682Y-13396388D02*
X10758158Y-13358293D01*
X10758158Y-13358293D02*
X10758158Y-13310674D01*
X10758158Y-13310674D02*
X10767682Y-13272579D01*
X10767682Y-13272579D02*
X10777206Y-13253531D01*
X10777206Y-13253531D02*
X10786729Y-13244008D01*
X10786729Y-13244008D02*
X10805777Y-13234484D01*
X10948634Y-13234484D02*
X10948634Y-13272579D01*
X11024825Y-13234484D02*
X11024825Y-13272579D01*
X11320063Y-13510674D02*
X11310539Y-13501150D01*
X11310539Y-13501150D02*
X11291491Y-13472579D01*
X11291491Y-13472579D02*
X11281968Y-13453531D01*
X11281968Y-13453531D02*
X11272444Y-13424960D01*
X11272444Y-13424960D02*
X11262920Y-13377341D01*
X11262920Y-13377341D02*
X11262920Y-13339246D01*
X11262920Y-13339246D02*
X11272444Y-13291627D01*
X11272444Y-13291627D02*
X11281968Y-13263055D01*
X11281968Y-13263055D02*
X11291491Y-13244008D01*
X11291491Y-13244008D02*
X11310539Y-13215436D01*
X11310539Y-13215436D02*
X11320063Y-13205912D01*
X11424825Y-13320198D02*
X11405777Y-13310674D01*
X11405777Y-13310674D02*
X11396253Y-13301150D01*
X11396253Y-13301150D02*
X11386729Y-13282103D01*
X11386729Y-13282103D02*
X11386729Y-13272579D01*
X11386729Y-13272579D02*
X11396253Y-13253531D01*
X11396253Y-13253531D02*
X11405777Y-13244008D01*
X11405777Y-13244008D02*
X11424825Y-13234484D01*
X11424825Y-13234484D02*
X11462920Y-13234484D01*
X11462920Y-13234484D02*
X11481968Y-13244008D01*
X11481968Y-13244008D02*
X11491491Y-13253531D01*
X11491491Y-13253531D02*
X11501015Y-13272579D01*
X11501015Y-13272579D02*
X11501015Y-13282103D01*
X11501015Y-13282103D02*
X11491491Y-13301150D01*
X11491491Y-13301150D02*
X11481968Y-13310674D01*
X11481968Y-13310674D02*
X11462920Y-13320198D01*
X11462920Y-13320198D02*
X11424825Y-13320198D01*
X11424825Y-13320198D02*
X11405777Y-13329722D01*
X11405777Y-13329722D02*
X11396253Y-13339246D01*
X11396253Y-13339246D02*
X11386729Y-13358293D01*
X11386729Y-13358293D02*
X11386729Y-13396388D01*
X11386729Y-13396388D02*
X11396253Y-13415436D01*
X11396253Y-13415436D02*
X11405777Y-13424960D01*
X11405777Y-13424960D02*
X11424825Y-13434484D01*
X11424825Y-13434484D02*
X11462920Y-13434484D01*
X11462920Y-13434484D02*
X11481968Y-13424960D01*
X11481968Y-13424960D02*
X11491491Y-13415436D01*
X11491491Y-13415436D02*
X11501015Y-13396388D01*
X11501015Y-13396388D02*
X11501015Y-13358293D01*
X11501015Y-13358293D02*
X11491491Y-13339246D01*
X11491491Y-13339246D02*
X11481968Y-13329722D01*
X11481968Y-13329722D02*
X11462920Y-13320198D01*
X11739110Y-13434484D02*
X11739110Y-13234484D01*
X11824825Y-13434484D02*
X11824825Y-13329722D01*
X11824825Y-13329722D02*
X11815301Y-13310674D01*
X11815301Y-13310674D02*
X11796253Y-13301150D01*
X11796253Y-13301150D02*
X11767682Y-13301150D01*
X11767682Y-13301150D02*
X11748634Y-13310674D01*
X11748634Y-13310674D02*
X11739110Y-13320198D01*
X11948634Y-13434484D02*
X11929587Y-13424960D01*
X11929587Y-13424960D02*
X11920063Y-13415436D01*
X11920063Y-13415436D02*
X11910539Y-13396388D01*
X11910539Y-13396388D02*
X11910539Y-13339246D01*
X11910539Y-13339246D02*
X11920063Y-13320198D01*
X11920063Y-13320198D02*
X11929587Y-13310674D01*
X11929587Y-13310674D02*
X11948634Y-13301150D01*
X11948634Y-13301150D02*
X11977206Y-13301150D01*
X11977206Y-13301150D02*
X11996253Y-13310674D01*
X11996253Y-13310674D02*
X12005777Y-13320198D01*
X12005777Y-13320198D02*
X12015301Y-13339246D01*
X12015301Y-13339246D02*
X12015301Y-13396388D01*
X12015301Y-13396388D02*
X12005777Y-13415436D01*
X12005777Y-13415436D02*
X11996253Y-13424960D01*
X11996253Y-13424960D02*
X11977206Y-13434484D01*
X11977206Y-13434484D02*
X11948634Y-13434484D01*
X12129587Y-13434484D02*
X12110539Y-13424960D01*
X12110539Y-13424960D02*
X12101015Y-13405912D01*
X12101015Y-13405912D02*
X12101015Y-13234484D01*
X12281968Y-13424960D02*
X12262920Y-13434484D01*
X12262920Y-13434484D02*
X12224825Y-13434484D01*
X12224825Y-13434484D02*
X12205777Y-13424960D01*
X12205777Y-13424960D02*
X12196253Y-13405912D01*
X12196253Y-13405912D02*
X12196253Y-13329722D01*
X12196253Y-13329722D02*
X12205777Y-13310674D01*
X12205777Y-13310674D02*
X12224825Y-13301150D01*
X12224825Y-13301150D02*
X12262920Y-13301150D01*
X12262920Y-13301150D02*
X12281968Y-13310674D01*
X12281968Y-13310674D02*
X12291491Y-13329722D01*
X12291491Y-13329722D02*
X12291491Y-13348769D01*
X12291491Y-13348769D02*
X12196253Y-13367817D01*
X12367682Y-13424960D02*
X12386730Y-13434484D01*
X12386730Y-13434484D02*
X12424825Y-13434484D01*
X12424825Y-13434484D02*
X12443872Y-13424960D01*
X12443872Y-13424960D02*
X12453396Y-13405912D01*
X12453396Y-13405912D02*
X12453396Y-13396388D01*
X12453396Y-13396388D02*
X12443872Y-13377341D01*
X12443872Y-13377341D02*
X12424825Y-13367817D01*
X12424825Y-13367817D02*
X12396253Y-13367817D01*
X12396253Y-13367817D02*
X12377206Y-13358293D01*
X12377206Y-13358293D02*
X12367682Y-13339246D01*
X12367682Y-13339246D02*
X12367682Y-13329722D01*
X12367682Y-13329722D02*
X12377206Y-13310674D01*
X12377206Y-13310674D02*
X12396253Y-13301150D01*
X12396253Y-13301150D02*
X12424825Y-13301150D01*
X12424825Y-13301150D02*
X12443872Y-13310674D01*
X12520063Y-13510674D02*
X12529587Y-13501150D01*
X12529587Y-13501150D02*
X12548634Y-13472579D01*
X12548634Y-13472579D02*
X12558158Y-13453531D01*
X12558158Y-13453531D02*
X12567682Y-13424960D01*
X12567682Y-13424960D02*
X12577206Y-13377341D01*
X12577206Y-13377341D02*
X12577206Y-13339246D01*
X12577206Y-13339246D02*
X12567682Y-13291627D01*
X12567682Y-13291627D02*
X12558158Y-13263055D01*
X12558158Y-13263055D02*
X12548634Y-13244008D01*
X12548634Y-13244008D02*
X12529587Y-13215436D01*
X12529587Y-13215436D02*
X12520063Y-13205912D01*
D13*
X7723054Y-13659984D02*
X7723054Y-13554016D01*
X7617086Y-13554016D01*
X7617086Y-13659984D01*
X7723054Y-13659984D01*
D11*
X8110539Y-13698484D02*
X7996253Y-13698484D01*
X8053396Y-13698484D02*
X8053396Y-13498484D01*
X8053396Y-13498484D02*
X8034348Y-13527055D01*
X8034348Y-13527055D02*
X8015301Y-13546103D01*
X8015301Y-13546103D02*
X7996253Y-13555627D01*
X8196253Y-13679436D02*
X8205777Y-13688960D01*
X8205777Y-13688960D02*
X8196253Y-13698484D01*
X8196253Y-13698484D02*
X8186729Y-13688960D01*
X8186729Y-13688960D02*
X8196253Y-13679436D01*
X8196253Y-13679436D02*
X8196253Y-13698484D01*
X8377205Y-13565150D02*
X8377205Y-13698484D01*
X8329586Y-13488960D02*
X8281967Y-13631817D01*
X8281967Y-13631817D02*
X8405777Y-13631817D01*
X8491491Y-13698484D02*
X8529586Y-13698484D01*
X8529586Y-13698484D02*
X8548634Y-13688960D01*
X8548634Y-13688960D02*
X8558158Y-13679436D01*
X8558158Y-13679436D02*
X8577205Y-13650865D01*
X8577205Y-13650865D02*
X8586729Y-13612769D01*
X8586729Y-13612769D02*
X8586729Y-13536579D01*
X8586729Y-13536579D02*
X8577205Y-13517531D01*
X8577205Y-13517531D02*
X8567682Y-13508008D01*
X8567682Y-13508008D02*
X8548634Y-13498484D01*
X8548634Y-13498484D02*
X8510539Y-13498484D01*
X8510539Y-13498484D02*
X8491491Y-13508008D01*
X8491491Y-13508008D02*
X8481967Y-13517531D01*
X8481967Y-13517531D02*
X8472444Y-13536579D01*
X8472444Y-13536579D02*
X8472444Y-13584198D01*
X8472444Y-13584198D02*
X8481967Y-13603246D01*
X8481967Y-13603246D02*
X8491491Y-13612769D01*
X8491491Y-13612769D02*
X8510539Y-13622293D01*
X8510539Y-13622293D02*
X8548634Y-13622293D01*
X8548634Y-13622293D02*
X8567682Y-13612769D01*
X8567682Y-13612769D02*
X8577205Y-13603246D01*
X8577205Y-13603246D02*
X8586729Y-13584198D01*
X8681967Y-13698484D02*
X8720063Y-13698484D01*
X8720063Y-13698484D02*
X8739110Y-13688960D01*
X8739110Y-13688960D02*
X8748634Y-13679436D01*
X8748634Y-13679436D02*
X8767682Y-13650865D01*
X8767682Y-13650865D02*
X8777205Y-13612769D01*
X8777205Y-13612769D02*
X8777205Y-13536579D01*
X8777205Y-13536579D02*
X8767682Y-13517531D01*
X8767682Y-13517531D02*
X8758158Y-13508008D01*
X8758158Y-13508008D02*
X8739110Y-13498484D01*
X8739110Y-13498484D02*
X8701015Y-13498484D01*
X8701015Y-13498484D02*
X8681967Y-13508008D01*
X8681967Y-13508008D02*
X8672444Y-13517531D01*
X8672444Y-13517531D02*
X8662920Y-13536579D01*
X8662920Y-13536579D02*
X8662920Y-13584198D01*
X8662920Y-13584198D02*
X8672444Y-13603246D01*
X8672444Y-13603246D02*
X8681967Y-13612769D01*
X8681967Y-13612769D02*
X8701015Y-13622293D01*
X8701015Y-13622293D02*
X8739110Y-13622293D01*
X8739110Y-13622293D02*
X8758158Y-13612769D01*
X8758158Y-13612769D02*
X8767682Y-13603246D01*
X8767682Y-13603246D02*
X8777205Y-13584198D01*
X8862920Y-13698484D02*
X8862920Y-13565150D01*
X8862920Y-13584198D02*
X8872444Y-13574674D01*
X8872444Y-13574674D02*
X8891491Y-13565150D01*
X8891491Y-13565150D02*
X8920063Y-13565150D01*
X8920063Y-13565150D02*
X8939110Y-13574674D01*
X8939110Y-13574674D02*
X8948634Y-13593722D01*
X8948634Y-13593722D02*
X8948634Y-13698484D01*
X8948634Y-13593722D02*
X8958158Y-13574674D01*
X8958158Y-13574674D02*
X8977205Y-13565150D01*
X8977205Y-13565150D02*
X9005777Y-13565150D01*
X9005777Y-13565150D02*
X9024825Y-13574674D01*
X9024825Y-13574674D02*
X9034348Y-13593722D01*
X9034348Y-13593722D02*
X9034348Y-13698484D01*
X9129586Y-13698484D02*
X9129586Y-13565150D01*
X9129586Y-13584198D02*
X9139110Y-13574674D01*
X9139110Y-13574674D02*
X9158158Y-13565150D01*
X9158158Y-13565150D02*
X9186729Y-13565150D01*
X9186729Y-13565150D02*
X9205777Y-13574674D01*
X9205777Y-13574674D02*
X9215301Y-13593722D01*
X9215301Y-13593722D02*
X9215301Y-13698484D01*
X9215301Y-13593722D02*
X9224825Y-13574674D01*
X9224825Y-13574674D02*
X9243872Y-13565150D01*
X9243872Y-13565150D02*
X9272444Y-13565150D01*
X9272444Y-13565150D02*
X9291491Y-13574674D01*
X9291491Y-13574674D02*
X9301015Y-13593722D01*
X9301015Y-13593722D02*
X9301015Y-13698484D01*
X9691491Y-13488960D02*
X9520063Y-13746103D01*
X9948634Y-13498484D02*
X9967682Y-13498484D01*
X9967682Y-13498484D02*
X9986729Y-13508008D01*
X9986729Y-13508008D02*
X9996253Y-13517531D01*
X9996253Y-13517531D02*
X10005777Y-13536579D01*
X10005777Y-13536579D02*
X10015301Y-13574674D01*
X10015301Y-13574674D02*
X10015301Y-13622293D01*
X10015301Y-13622293D02*
X10005777Y-13660388D01*
X10005777Y-13660388D02*
X9996253Y-13679436D01*
X9996253Y-13679436D02*
X9986729Y-13688960D01*
X9986729Y-13688960D02*
X9967682Y-13698484D01*
X9967682Y-13698484D02*
X9948634Y-13698484D01*
X9948634Y-13698484D02*
X9929587Y-13688960D01*
X9929587Y-13688960D02*
X9920063Y-13679436D01*
X9920063Y-13679436D02*
X9910539Y-13660388D01*
X9910539Y-13660388D02*
X9901015Y-13622293D01*
X9901015Y-13622293D02*
X9901015Y-13574674D01*
X9901015Y-13574674D02*
X9910539Y-13536579D01*
X9910539Y-13536579D02*
X9920063Y-13517531D01*
X9920063Y-13517531D02*
X9929587Y-13508008D01*
X9929587Y-13508008D02*
X9948634Y-13498484D01*
X10101015Y-13679436D02*
X10110539Y-13688960D01*
X10110539Y-13688960D02*
X10101015Y-13698484D01*
X10101015Y-13698484D02*
X10091491Y-13688960D01*
X10091491Y-13688960D02*
X10101015Y-13679436D01*
X10101015Y-13679436D02*
X10101015Y-13698484D01*
X10234348Y-13498484D02*
X10253396Y-13498484D01*
X10253396Y-13498484D02*
X10272444Y-13508008D01*
X10272444Y-13508008D02*
X10281968Y-13517531D01*
X10281968Y-13517531D02*
X10291491Y-13536579D01*
X10291491Y-13536579D02*
X10301015Y-13574674D01*
X10301015Y-13574674D02*
X10301015Y-13622293D01*
X10301015Y-13622293D02*
X10291491Y-13660388D01*
X10291491Y-13660388D02*
X10281968Y-13679436D01*
X10281968Y-13679436D02*
X10272444Y-13688960D01*
X10272444Y-13688960D02*
X10253396Y-13698484D01*
X10253396Y-13698484D02*
X10234348Y-13698484D01*
X10234348Y-13698484D02*
X10215301Y-13688960D01*
X10215301Y-13688960D02*
X10205777Y-13679436D01*
X10205777Y-13679436D02*
X10196253Y-13660388D01*
X10196253Y-13660388D02*
X10186729Y-13622293D01*
X10186729Y-13622293D02*
X10186729Y-13574674D01*
X10186729Y-13574674D02*
X10196253Y-13536579D01*
X10196253Y-13536579D02*
X10205777Y-13517531D01*
X10205777Y-13517531D02*
X10215301Y-13508008D01*
X10215301Y-13508008D02*
X10234348Y-13498484D01*
X10481968Y-13498484D02*
X10386729Y-13498484D01*
X10386729Y-13498484D02*
X10377206Y-13593722D01*
X10377206Y-13593722D02*
X10386729Y-13584198D01*
X10386729Y-13584198D02*
X10405777Y-13574674D01*
X10405777Y-13574674D02*
X10453396Y-13574674D01*
X10453396Y-13574674D02*
X10472444Y-13584198D01*
X10472444Y-13584198D02*
X10481968Y-13593722D01*
X10481968Y-13593722D02*
X10491491Y-13612769D01*
X10491491Y-13612769D02*
X10491491Y-13660388D01*
X10491491Y-13660388D02*
X10481968Y-13679436D01*
X10481968Y-13679436D02*
X10472444Y-13688960D01*
X10472444Y-13688960D02*
X10453396Y-13698484D01*
X10453396Y-13698484D02*
X10405777Y-13698484D01*
X10405777Y-13698484D02*
X10386729Y-13688960D01*
X10386729Y-13688960D02*
X10377206Y-13679436D01*
X10586729Y-13698484D02*
X10624825Y-13698484D01*
X10624825Y-13698484D02*
X10643872Y-13688960D01*
X10643872Y-13688960D02*
X10653396Y-13679436D01*
X10653396Y-13679436D02*
X10672444Y-13650865D01*
X10672444Y-13650865D02*
X10681968Y-13612769D01*
X10681968Y-13612769D02*
X10681968Y-13536579D01*
X10681968Y-13536579D02*
X10672444Y-13517531D01*
X10672444Y-13517531D02*
X10662920Y-13508008D01*
X10662920Y-13508008D02*
X10643872Y-13498484D01*
X10643872Y-13498484D02*
X10605777Y-13498484D01*
X10605777Y-13498484D02*
X10586729Y-13508008D01*
X10586729Y-13508008D02*
X10577206Y-13517531D01*
X10577206Y-13517531D02*
X10567682Y-13536579D01*
X10567682Y-13536579D02*
X10567682Y-13584198D01*
X10567682Y-13584198D02*
X10577206Y-13603246D01*
X10577206Y-13603246D02*
X10586729Y-13612769D01*
X10586729Y-13612769D02*
X10605777Y-13622293D01*
X10605777Y-13622293D02*
X10643872Y-13622293D01*
X10643872Y-13622293D02*
X10662920Y-13612769D01*
X10662920Y-13612769D02*
X10672444Y-13603246D01*
X10672444Y-13603246D02*
X10681968Y-13584198D01*
X10805777Y-13498484D02*
X10824825Y-13498484D01*
X10824825Y-13498484D02*
X10843872Y-13508008D01*
X10843872Y-13508008D02*
X10853396Y-13517531D01*
X10853396Y-13517531D02*
X10862920Y-13536579D01*
X10862920Y-13536579D02*
X10872444Y-13574674D01*
X10872444Y-13574674D02*
X10872444Y-13622293D01*
X10872444Y-13622293D02*
X10862920Y-13660388D01*
X10862920Y-13660388D02*
X10853396Y-13679436D01*
X10853396Y-13679436D02*
X10843872Y-13688960D01*
X10843872Y-13688960D02*
X10824825Y-13698484D01*
X10824825Y-13698484D02*
X10805777Y-13698484D01*
X10805777Y-13698484D02*
X10786729Y-13688960D01*
X10786729Y-13688960D02*
X10777206Y-13679436D01*
X10777206Y-13679436D02*
X10767682Y-13660388D01*
X10767682Y-13660388D02*
X10758158Y-13622293D01*
X10758158Y-13622293D02*
X10758158Y-13574674D01*
X10758158Y-13574674D02*
X10767682Y-13536579D01*
X10767682Y-13536579D02*
X10777206Y-13517531D01*
X10777206Y-13517531D02*
X10786729Y-13508008D01*
X10786729Y-13508008D02*
X10805777Y-13498484D01*
X10948634Y-13498484D02*
X10948634Y-13536579D01*
X11024825Y-13498484D02*
X11024825Y-13536579D01*
X11320063Y-13774674D02*
X11310539Y-13765150D01*
X11310539Y-13765150D02*
X11291491Y-13736579D01*
X11291491Y-13736579D02*
X11281968Y-13717531D01*
X11281968Y-13717531D02*
X11272444Y-13688960D01*
X11272444Y-13688960D02*
X11262920Y-13641341D01*
X11262920Y-13641341D02*
X11262920Y-13603246D01*
X11262920Y-13603246D02*
X11272444Y-13555627D01*
X11272444Y-13555627D02*
X11281968Y-13527055D01*
X11281968Y-13527055D02*
X11291491Y-13508008D01*
X11291491Y-13508008D02*
X11310539Y-13479436D01*
X11310539Y-13479436D02*
X11320063Y-13469912D01*
X11386729Y-13517531D02*
X11396253Y-13508008D01*
X11396253Y-13508008D02*
X11415301Y-13498484D01*
X11415301Y-13498484D02*
X11462920Y-13498484D01*
X11462920Y-13498484D02*
X11481968Y-13508008D01*
X11481968Y-13508008D02*
X11491491Y-13517531D01*
X11491491Y-13517531D02*
X11501015Y-13536579D01*
X11501015Y-13536579D02*
X11501015Y-13555627D01*
X11501015Y-13555627D02*
X11491491Y-13584198D01*
X11491491Y-13584198D02*
X11377206Y-13698484D01*
X11377206Y-13698484D02*
X11501015Y-13698484D01*
X11739110Y-13698484D02*
X11739110Y-13498484D01*
X11824825Y-13698484D02*
X11824825Y-13593722D01*
X11824825Y-13593722D02*
X11815301Y-13574674D01*
X11815301Y-13574674D02*
X11796253Y-13565150D01*
X11796253Y-13565150D02*
X11767682Y-13565150D01*
X11767682Y-13565150D02*
X11748634Y-13574674D01*
X11748634Y-13574674D02*
X11739110Y-13584198D01*
X11948634Y-13698484D02*
X11929587Y-13688960D01*
X11929587Y-13688960D02*
X11920063Y-13679436D01*
X11920063Y-13679436D02*
X11910539Y-13660388D01*
X11910539Y-13660388D02*
X11910539Y-13603246D01*
X11910539Y-13603246D02*
X11920063Y-13584198D01*
X11920063Y-13584198D02*
X11929587Y-13574674D01*
X11929587Y-13574674D02*
X11948634Y-13565150D01*
X11948634Y-13565150D02*
X11977206Y-13565150D01*
X11977206Y-13565150D02*
X11996253Y-13574674D01*
X11996253Y-13574674D02*
X12005777Y-13584198D01*
X12005777Y-13584198D02*
X12015301Y-13603246D01*
X12015301Y-13603246D02*
X12015301Y-13660388D01*
X12015301Y-13660388D02*
X12005777Y-13679436D01*
X12005777Y-13679436D02*
X11996253Y-13688960D01*
X11996253Y-13688960D02*
X11977206Y-13698484D01*
X11977206Y-13698484D02*
X11948634Y-13698484D01*
X12129587Y-13698484D02*
X12110539Y-13688960D01*
X12110539Y-13688960D02*
X12101015Y-13669912D01*
X12101015Y-13669912D02*
X12101015Y-13498484D01*
X12281968Y-13688960D02*
X12262920Y-13698484D01*
X12262920Y-13698484D02*
X12224825Y-13698484D01*
X12224825Y-13698484D02*
X12205777Y-13688960D01*
X12205777Y-13688960D02*
X12196253Y-13669912D01*
X12196253Y-13669912D02*
X12196253Y-13593722D01*
X12196253Y-13593722D02*
X12205777Y-13574674D01*
X12205777Y-13574674D02*
X12224825Y-13565150D01*
X12224825Y-13565150D02*
X12262920Y-13565150D01*
X12262920Y-13565150D02*
X12281968Y-13574674D01*
X12281968Y-13574674D02*
X12291491Y-13593722D01*
X12291491Y-13593722D02*
X12291491Y-13612769D01*
X12291491Y-13612769D02*
X12196253Y-13631817D01*
X12367682Y-13688960D02*
X12386730Y-13698484D01*
X12386730Y-13698484D02*
X12424825Y-13698484D01*
X12424825Y-13698484D02*
X12443872Y-13688960D01*
X12443872Y-13688960D02*
X12453396Y-13669912D01*
X12453396Y-13669912D02*
X12453396Y-13660388D01*
X12453396Y-13660388D02*
X12443872Y-13641341D01*
X12443872Y-13641341D02*
X12424825Y-13631817D01*
X12424825Y-13631817D02*
X12396253Y-13631817D01*
X12396253Y-13631817D02*
X12377206Y-13622293D01*
X12377206Y-13622293D02*
X12367682Y-13603246D01*
X12367682Y-13603246D02*
X12367682Y-13593722D01*
X12367682Y-13593722D02*
X12377206Y-13574674D01*
X12377206Y-13574674D02*
X12396253Y-13565150D01*
X12396253Y-13565150D02*
X12424825Y-13565150D01*
X12424825Y-13565150D02*
X12443872Y-13574674D01*
X12520063Y-13774674D02*
X12529587Y-13765150D01*
X12529587Y-13765150D02*
X12548634Y-13736579D01*
X12548634Y-13736579D02*
X12558158Y-13717531D01*
X12558158Y-13717531D02*
X12567682Y-13688960D01*
X12567682Y-13688960D02*
X12577206Y-13641341D01*
X12577206Y-13641341D02*
X12577206Y-13603246D01*
X12577206Y-13603246D02*
X12567682Y-13555627D01*
X12567682Y-13555627D02*
X12558158Y-13527055D01*
X12558158Y-13527055D02*
X12548634Y-13508008D01*
X12548634Y-13508008D02*
X12529587Y-13479436D01*
X12529587Y-13479436D02*
X12520063Y-13469912D01*
M02*
