%TF.GenerationSoftware,KiCad,Pcbnew,7.0.8*%
%TF.CreationDate,2024-01-03T10:18:07-08:00*%
%TF.ProjectId,QSE Filter,51534520-4669-46c7-9465-722e6b696361,rev?*%
%TF.SameCoordinates,Original*%
%TF.FileFunction,Legend,Top*%
%TF.FilePolarity,Positive*%
%FSLAX46Y46*%
G04 Gerber Fmt 4.6, Leading zero omitted, Abs format (unit mm)*
G04 Created by KiCad (PCBNEW 7.0.8) date 2024-01-03 10:18:07*
%MOMM*%
%LPD*%
G01*
G04 APERTURE LIST*
%ADD10C,0.150000*%
%ADD11C,0.120000*%
%ADD12C,0.152400*%
G04 APERTURE END LIST*
D10*
X120664819Y-98816666D02*
X120188628Y-99149999D01*
X120664819Y-99388094D02*
X119664819Y-99388094D01*
X119664819Y-99388094D02*
X119664819Y-99007142D01*
X119664819Y-99007142D02*
X119712438Y-98911904D01*
X119712438Y-98911904D02*
X119760057Y-98864285D01*
X119760057Y-98864285D02*
X119855295Y-98816666D01*
X119855295Y-98816666D02*
X119998152Y-98816666D01*
X119998152Y-98816666D02*
X120093390Y-98864285D01*
X120093390Y-98864285D02*
X120141009Y-98911904D01*
X120141009Y-98911904D02*
X120188628Y-99007142D01*
X120188628Y-99007142D02*
X120188628Y-99388094D01*
X119998152Y-97959523D02*
X120664819Y-97959523D01*
X119617200Y-98197618D02*
X120331485Y-98435713D01*
X120331485Y-98435713D02*
X120331485Y-97816666D01*
X120774819Y-83446666D02*
X120298628Y-83779999D01*
X120774819Y-84018094D02*
X119774819Y-84018094D01*
X119774819Y-84018094D02*
X119774819Y-83637142D01*
X119774819Y-83637142D02*
X119822438Y-83541904D01*
X119822438Y-83541904D02*
X119870057Y-83494285D01*
X119870057Y-83494285D02*
X119965295Y-83446666D01*
X119965295Y-83446666D02*
X120108152Y-83446666D01*
X120108152Y-83446666D02*
X120203390Y-83494285D01*
X120203390Y-83494285D02*
X120251009Y-83541904D01*
X120251009Y-83541904D02*
X120298628Y-83637142D01*
X120298628Y-83637142D02*
X120298628Y-84018094D01*
X119774819Y-83113332D02*
X119774819Y-82494285D01*
X119774819Y-82494285D02*
X120155771Y-82827618D01*
X120155771Y-82827618D02*
X120155771Y-82684761D01*
X120155771Y-82684761D02*
X120203390Y-82589523D01*
X120203390Y-82589523D02*
X120251009Y-82541904D01*
X120251009Y-82541904D02*
X120346247Y-82494285D01*
X120346247Y-82494285D02*
X120584342Y-82494285D01*
X120584342Y-82494285D02*
X120679580Y-82541904D01*
X120679580Y-82541904D02*
X120727200Y-82589523D01*
X120727200Y-82589523D02*
X120774819Y-82684761D01*
X120774819Y-82684761D02*
X120774819Y-82970475D01*
X120774819Y-82970475D02*
X120727200Y-83065713D01*
X120727200Y-83065713D02*
X120679580Y-83113332D01*
X120634819Y-67786666D02*
X120158628Y-68119999D01*
X120634819Y-68358094D02*
X119634819Y-68358094D01*
X119634819Y-68358094D02*
X119634819Y-67977142D01*
X119634819Y-67977142D02*
X119682438Y-67881904D01*
X119682438Y-67881904D02*
X119730057Y-67834285D01*
X119730057Y-67834285D02*
X119825295Y-67786666D01*
X119825295Y-67786666D02*
X119968152Y-67786666D01*
X119968152Y-67786666D02*
X120063390Y-67834285D01*
X120063390Y-67834285D02*
X120111009Y-67881904D01*
X120111009Y-67881904D02*
X120158628Y-67977142D01*
X120158628Y-67977142D02*
X120158628Y-68358094D01*
X119730057Y-67405713D02*
X119682438Y-67358094D01*
X119682438Y-67358094D02*
X119634819Y-67262856D01*
X119634819Y-67262856D02*
X119634819Y-67024761D01*
X119634819Y-67024761D02*
X119682438Y-66929523D01*
X119682438Y-66929523D02*
X119730057Y-66881904D01*
X119730057Y-66881904D02*
X119825295Y-66834285D01*
X119825295Y-66834285D02*
X119920533Y-66834285D01*
X119920533Y-66834285D02*
X120063390Y-66881904D01*
X120063390Y-66881904D02*
X120634819Y-67453332D01*
X120634819Y-67453332D02*
X120634819Y-66834285D01*
X120684819Y-52316666D02*
X120208628Y-52649999D01*
X120684819Y-52888094D02*
X119684819Y-52888094D01*
X119684819Y-52888094D02*
X119684819Y-52507142D01*
X119684819Y-52507142D02*
X119732438Y-52411904D01*
X119732438Y-52411904D02*
X119780057Y-52364285D01*
X119780057Y-52364285D02*
X119875295Y-52316666D01*
X119875295Y-52316666D02*
X120018152Y-52316666D01*
X120018152Y-52316666D02*
X120113390Y-52364285D01*
X120113390Y-52364285D02*
X120161009Y-52411904D01*
X120161009Y-52411904D02*
X120208628Y-52507142D01*
X120208628Y-52507142D02*
X120208628Y-52888094D01*
X120684819Y-51364285D02*
X120684819Y-51935713D01*
X120684819Y-51649999D02*
X119684819Y-51649999D01*
X119684819Y-51649999D02*
X119827676Y-51745237D01*
X119827676Y-51745237D02*
X119922914Y-51840475D01*
X119922914Y-51840475D02*
X119970533Y-51935713D01*
X109359580Y-78892857D02*
X109407200Y-78940476D01*
X109407200Y-78940476D02*
X109454819Y-79083333D01*
X109454819Y-79083333D02*
X109454819Y-79178571D01*
X109454819Y-79178571D02*
X109407200Y-79321428D01*
X109407200Y-79321428D02*
X109311961Y-79416666D01*
X109311961Y-79416666D02*
X109216723Y-79464285D01*
X109216723Y-79464285D02*
X109026247Y-79511904D01*
X109026247Y-79511904D02*
X108883390Y-79511904D01*
X108883390Y-79511904D02*
X108692914Y-79464285D01*
X108692914Y-79464285D02*
X108597676Y-79416666D01*
X108597676Y-79416666D02*
X108502438Y-79321428D01*
X108502438Y-79321428D02*
X108454819Y-79178571D01*
X108454819Y-79178571D02*
X108454819Y-79083333D01*
X108454819Y-79083333D02*
X108502438Y-78940476D01*
X108502438Y-78940476D02*
X108550057Y-78892857D01*
X109454819Y-77940476D02*
X109454819Y-78511904D01*
X109454819Y-78226190D02*
X108454819Y-78226190D01*
X108454819Y-78226190D02*
X108597676Y-78321428D01*
X108597676Y-78321428D02*
X108692914Y-78416666D01*
X108692914Y-78416666D02*
X108740533Y-78511904D01*
X108454819Y-77035714D02*
X108454819Y-77511904D01*
X108454819Y-77511904D02*
X108931009Y-77559523D01*
X108931009Y-77559523D02*
X108883390Y-77511904D01*
X108883390Y-77511904D02*
X108835771Y-77416666D01*
X108835771Y-77416666D02*
X108835771Y-77178571D01*
X108835771Y-77178571D02*
X108883390Y-77083333D01*
X108883390Y-77083333D02*
X108931009Y-77035714D01*
X108931009Y-77035714D02*
X109026247Y-76988095D01*
X109026247Y-76988095D02*
X109264342Y-76988095D01*
X109264342Y-76988095D02*
X109359580Y-77035714D01*
X109359580Y-77035714D02*
X109407200Y-77083333D01*
X109407200Y-77083333D02*
X109454819Y-77178571D01*
X109454819Y-77178571D02*
X109454819Y-77416666D01*
X109454819Y-77416666D02*
X109407200Y-77511904D01*
X109407200Y-77511904D02*
X109359580Y-77559523D01*
X133254819Y-90166666D02*
X133254819Y-90642856D01*
X133254819Y-90642856D02*
X132254819Y-90642856D01*
X132254819Y-89404761D02*
X132254819Y-89595237D01*
X132254819Y-89595237D02*
X132302438Y-89690475D01*
X132302438Y-89690475D02*
X132350057Y-89738094D01*
X132350057Y-89738094D02*
X132492914Y-89833332D01*
X132492914Y-89833332D02*
X132683390Y-89880951D01*
X132683390Y-89880951D02*
X133064342Y-89880951D01*
X133064342Y-89880951D02*
X133159580Y-89833332D01*
X133159580Y-89833332D02*
X133207200Y-89785713D01*
X133207200Y-89785713D02*
X133254819Y-89690475D01*
X133254819Y-89690475D02*
X133254819Y-89499999D01*
X133254819Y-89499999D02*
X133207200Y-89404761D01*
X133207200Y-89404761D02*
X133159580Y-89357142D01*
X133159580Y-89357142D02*
X133064342Y-89309523D01*
X133064342Y-89309523D02*
X132826247Y-89309523D01*
X132826247Y-89309523D02*
X132731009Y-89357142D01*
X132731009Y-89357142D02*
X132683390Y-89404761D01*
X132683390Y-89404761D02*
X132635771Y-89499999D01*
X132635771Y-89499999D02*
X132635771Y-89690475D01*
X132635771Y-89690475D02*
X132683390Y-89785713D01*
X132683390Y-89785713D02*
X132731009Y-89833332D01*
X132731009Y-89833332D02*
X132826247Y-89880951D01*
X110357142Y-107154819D02*
X109880952Y-107154819D01*
X109880952Y-107154819D02*
X109880952Y-106154819D01*
X111214285Y-107154819D02*
X110642857Y-107154819D01*
X110928571Y-107154819D02*
X110928571Y-106154819D01*
X110928571Y-106154819D02*
X110833333Y-106297676D01*
X110833333Y-106297676D02*
X110738095Y-106392914D01*
X110738095Y-106392914D02*
X110642857Y-106440533D01*
X111833333Y-106154819D02*
X111928571Y-106154819D01*
X111928571Y-106154819D02*
X112023809Y-106202438D01*
X112023809Y-106202438D02*
X112071428Y-106250057D01*
X112071428Y-106250057D02*
X112119047Y-106345295D01*
X112119047Y-106345295D02*
X112166666Y-106535771D01*
X112166666Y-106535771D02*
X112166666Y-106773866D01*
X112166666Y-106773866D02*
X112119047Y-106964342D01*
X112119047Y-106964342D02*
X112071428Y-107059580D01*
X112071428Y-107059580D02*
X112023809Y-107107200D01*
X112023809Y-107107200D02*
X111928571Y-107154819D01*
X111928571Y-107154819D02*
X111833333Y-107154819D01*
X111833333Y-107154819D02*
X111738095Y-107107200D01*
X111738095Y-107107200D02*
X111690476Y-107059580D01*
X111690476Y-107059580D02*
X111642857Y-106964342D01*
X111642857Y-106964342D02*
X111595238Y-106773866D01*
X111595238Y-106773866D02*
X111595238Y-106535771D01*
X111595238Y-106535771D02*
X111642857Y-106345295D01*
X111642857Y-106345295D02*
X111690476Y-106250057D01*
X111690476Y-106250057D02*
X111738095Y-106202438D01*
X111738095Y-106202438D02*
X111833333Y-106154819D01*
X115607142Y-91609580D02*
X115559523Y-91657200D01*
X115559523Y-91657200D02*
X115416666Y-91704819D01*
X115416666Y-91704819D02*
X115321428Y-91704819D01*
X115321428Y-91704819D02*
X115178571Y-91657200D01*
X115178571Y-91657200D02*
X115083333Y-91561961D01*
X115083333Y-91561961D02*
X115035714Y-91466723D01*
X115035714Y-91466723D02*
X114988095Y-91276247D01*
X114988095Y-91276247D02*
X114988095Y-91133390D01*
X114988095Y-91133390D02*
X115035714Y-90942914D01*
X115035714Y-90942914D02*
X115083333Y-90847676D01*
X115083333Y-90847676D02*
X115178571Y-90752438D01*
X115178571Y-90752438D02*
X115321428Y-90704819D01*
X115321428Y-90704819D02*
X115416666Y-90704819D01*
X115416666Y-90704819D02*
X115559523Y-90752438D01*
X115559523Y-90752438D02*
X115607142Y-90800057D01*
X115988095Y-90800057D02*
X116035714Y-90752438D01*
X116035714Y-90752438D02*
X116130952Y-90704819D01*
X116130952Y-90704819D02*
X116369047Y-90704819D01*
X116369047Y-90704819D02*
X116464285Y-90752438D01*
X116464285Y-90752438D02*
X116511904Y-90800057D01*
X116511904Y-90800057D02*
X116559523Y-90895295D01*
X116559523Y-90895295D02*
X116559523Y-90990533D01*
X116559523Y-90990533D02*
X116511904Y-91133390D01*
X116511904Y-91133390D02*
X115940476Y-91704819D01*
X115940476Y-91704819D02*
X116559523Y-91704819D01*
X117130952Y-91133390D02*
X117035714Y-91085771D01*
X117035714Y-91085771D02*
X116988095Y-91038152D01*
X116988095Y-91038152D02*
X116940476Y-90942914D01*
X116940476Y-90942914D02*
X116940476Y-90895295D01*
X116940476Y-90895295D02*
X116988095Y-90800057D01*
X116988095Y-90800057D02*
X117035714Y-90752438D01*
X117035714Y-90752438D02*
X117130952Y-90704819D01*
X117130952Y-90704819D02*
X117321428Y-90704819D01*
X117321428Y-90704819D02*
X117416666Y-90752438D01*
X117416666Y-90752438D02*
X117464285Y-90800057D01*
X117464285Y-90800057D02*
X117511904Y-90895295D01*
X117511904Y-90895295D02*
X117511904Y-90942914D01*
X117511904Y-90942914D02*
X117464285Y-91038152D01*
X117464285Y-91038152D02*
X117416666Y-91085771D01*
X117416666Y-91085771D02*
X117321428Y-91133390D01*
X117321428Y-91133390D02*
X117130952Y-91133390D01*
X117130952Y-91133390D02*
X117035714Y-91181009D01*
X117035714Y-91181009D02*
X116988095Y-91228628D01*
X116988095Y-91228628D02*
X116940476Y-91323866D01*
X116940476Y-91323866D02*
X116940476Y-91514342D01*
X116940476Y-91514342D02*
X116988095Y-91609580D01*
X116988095Y-91609580D02*
X117035714Y-91657200D01*
X117035714Y-91657200D02*
X117130952Y-91704819D01*
X117130952Y-91704819D02*
X117321428Y-91704819D01*
X117321428Y-91704819D02*
X117416666Y-91657200D01*
X117416666Y-91657200D02*
X117464285Y-91609580D01*
X117464285Y-91609580D02*
X117511904Y-91514342D01*
X117511904Y-91514342D02*
X117511904Y-91323866D01*
X117511904Y-91323866D02*
X117464285Y-91228628D01*
X117464285Y-91228628D02*
X117416666Y-91181009D01*
X117416666Y-91181009D02*
X117321428Y-91133390D01*
X109204819Y-103238094D02*
X108204819Y-103238094D01*
X108204819Y-103238094D02*
X108204819Y-102999999D01*
X108204819Y-102999999D02*
X108252438Y-102857142D01*
X108252438Y-102857142D02*
X108347676Y-102761904D01*
X108347676Y-102761904D02*
X108442914Y-102714285D01*
X108442914Y-102714285D02*
X108633390Y-102666666D01*
X108633390Y-102666666D02*
X108776247Y-102666666D01*
X108776247Y-102666666D02*
X108966723Y-102714285D01*
X108966723Y-102714285D02*
X109061961Y-102761904D01*
X109061961Y-102761904D02*
X109157200Y-102857142D01*
X109157200Y-102857142D02*
X109204819Y-102999999D01*
X109204819Y-102999999D02*
X109204819Y-103238094D01*
X108204819Y-101761904D02*
X108204819Y-102238094D01*
X108204819Y-102238094D02*
X108681009Y-102285713D01*
X108681009Y-102285713D02*
X108633390Y-102238094D01*
X108633390Y-102238094D02*
X108585771Y-102142856D01*
X108585771Y-102142856D02*
X108585771Y-101904761D01*
X108585771Y-101904761D02*
X108633390Y-101809523D01*
X108633390Y-101809523D02*
X108681009Y-101761904D01*
X108681009Y-101761904D02*
X108776247Y-101714285D01*
X108776247Y-101714285D02*
X109014342Y-101714285D01*
X109014342Y-101714285D02*
X109109580Y-101761904D01*
X109109580Y-101761904D02*
X109157200Y-101809523D01*
X109157200Y-101809523D02*
X109204819Y-101904761D01*
X109204819Y-101904761D02*
X109204819Y-102142856D01*
X109204819Y-102142856D02*
X109157200Y-102238094D01*
X109157200Y-102238094D02*
X109109580Y-102285713D01*
X124107142Y-105359580D02*
X124059523Y-105407200D01*
X124059523Y-105407200D02*
X123916666Y-105454819D01*
X123916666Y-105454819D02*
X123821428Y-105454819D01*
X123821428Y-105454819D02*
X123678571Y-105407200D01*
X123678571Y-105407200D02*
X123583333Y-105311961D01*
X123583333Y-105311961D02*
X123535714Y-105216723D01*
X123535714Y-105216723D02*
X123488095Y-105026247D01*
X123488095Y-105026247D02*
X123488095Y-104883390D01*
X123488095Y-104883390D02*
X123535714Y-104692914D01*
X123535714Y-104692914D02*
X123583333Y-104597676D01*
X123583333Y-104597676D02*
X123678571Y-104502438D01*
X123678571Y-104502438D02*
X123821428Y-104454819D01*
X123821428Y-104454819D02*
X123916666Y-104454819D01*
X123916666Y-104454819D02*
X124059523Y-104502438D01*
X124059523Y-104502438D02*
X124107142Y-104550057D01*
X124440476Y-104454819D02*
X125059523Y-104454819D01*
X125059523Y-104454819D02*
X124726190Y-104835771D01*
X124726190Y-104835771D02*
X124869047Y-104835771D01*
X124869047Y-104835771D02*
X124964285Y-104883390D01*
X124964285Y-104883390D02*
X125011904Y-104931009D01*
X125011904Y-104931009D02*
X125059523Y-105026247D01*
X125059523Y-105026247D02*
X125059523Y-105264342D01*
X125059523Y-105264342D02*
X125011904Y-105359580D01*
X125011904Y-105359580D02*
X124964285Y-105407200D01*
X124964285Y-105407200D02*
X124869047Y-105454819D01*
X124869047Y-105454819D02*
X124583333Y-105454819D01*
X124583333Y-105454819D02*
X124488095Y-105407200D01*
X124488095Y-105407200D02*
X124440476Y-105359580D01*
X125916666Y-104788152D02*
X125916666Y-105454819D01*
X125678571Y-104407200D02*
X125440476Y-105121485D01*
X125440476Y-105121485D02*
X126059523Y-105121485D01*
X109204819Y-72238094D02*
X108204819Y-72238094D01*
X108204819Y-72238094D02*
X108204819Y-71999999D01*
X108204819Y-71999999D02*
X108252438Y-71857142D01*
X108252438Y-71857142D02*
X108347676Y-71761904D01*
X108347676Y-71761904D02*
X108442914Y-71714285D01*
X108442914Y-71714285D02*
X108633390Y-71666666D01*
X108633390Y-71666666D02*
X108776247Y-71666666D01*
X108776247Y-71666666D02*
X108966723Y-71714285D01*
X108966723Y-71714285D02*
X109061961Y-71761904D01*
X109061961Y-71761904D02*
X109157200Y-71857142D01*
X109157200Y-71857142D02*
X109204819Y-71999999D01*
X109204819Y-71999999D02*
X109204819Y-72238094D01*
X108300057Y-71285713D02*
X108252438Y-71238094D01*
X108252438Y-71238094D02*
X108204819Y-71142856D01*
X108204819Y-71142856D02*
X108204819Y-70904761D01*
X108204819Y-70904761D02*
X108252438Y-70809523D01*
X108252438Y-70809523D02*
X108300057Y-70761904D01*
X108300057Y-70761904D02*
X108395295Y-70714285D01*
X108395295Y-70714285D02*
X108490533Y-70714285D01*
X108490533Y-70714285D02*
X108633390Y-70761904D01*
X108633390Y-70761904D02*
X109204819Y-71333332D01*
X109204819Y-71333332D02*
X109204819Y-70714285D01*
X119333333Y-107354819D02*
X118857143Y-107354819D01*
X118857143Y-107354819D02*
X118857143Y-106354819D01*
X119714286Y-107354819D02*
X119904762Y-107354819D01*
X119904762Y-107354819D02*
X120000000Y-107307200D01*
X120000000Y-107307200D02*
X120047619Y-107259580D01*
X120047619Y-107259580D02*
X120142857Y-107116723D01*
X120142857Y-107116723D02*
X120190476Y-106926247D01*
X120190476Y-106926247D02*
X120190476Y-106545295D01*
X120190476Y-106545295D02*
X120142857Y-106450057D01*
X120142857Y-106450057D02*
X120095238Y-106402438D01*
X120095238Y-106402438D02*
X120000000Y-106354819D01*
X120000000Y-106354819D02*
X119809524Y-106354819D01*
X119809524Y-106354819D02*
X119714286Y-106402438D01*
X119714286Y-106402438D02*
X119666667Y-106450057D01*
X119666667Y-106450057D02*
X119619048Y-106545295D01*
X119619048Y-106545295D02*
X119619048Y-106783390D01*
X119619048Y-106783390D02*
X119666667Y-106878628D01*
X119666667Y-106878628D02*
X119714286Y-106926247D01*
X119714286Y-106926247D02*
X119809524Y-106973866D01*
X119809524Y-106973866D02*
X120000000Y-106973866D01*
X120000000Y-106973866D02*
X120095238Y-106926247D01*
X120095238Y-106926247D02*
X120142857Y-106878628D01*
X120142857Y-106878628D02*
X120190476Y-106783390D01*
X110107142Y-89859580D02*
X110059523Y-89907200D01*
X110059523Y-89907200D02*
X109916666Y-89954819D01*
X109916666Y-89954819D02*
X109821428Y-89954819D01*
X109821428Y-89954819D02*
X109678571Y-89907200D01*
X109678571Y-89907200D02*
X109583333Y-89811961D01*
X109583333Y-89811961D02*
X109535714Y-89716723D01*
X109535714Y-89716723D02*
X109488095Y-89526247D01*
X109488095Y-89526247D02*
X109488095Y-89383390D01*
X109488095Y-89383390D02*
X109535714Y-89192914D01*
X109535714Y-89192914D02*
X109583333Y-89097676D01*
X109583333Y-89097676D02*
X109678571Y-89002438D01*
X109678571Y-89002438D02*
X109821428Y-88954819D01*
X109821428Y-88954819D02*
X109916666Y-88954819D01*
X109916666Y-88954819D02*
X110059523Y-89002438D01*
X110059523Y-89002438D02*
X110107142Y-89050057D01*
X110488095Y-89050057D02*
X110535714Y-89002438D01*
X110535714Y-89002438D02*
X110630952Y-88954819D01*
X110630952Y-88954819D02*
X110869047Y-88954819D01*
X110869047Y-88954819D02*
X110964285Y-89002438D01*
X110964285Y-89002438D02*
X111011904Y-89050057D01*
X111011904Y-89050057D02*
X111059523Y-89145295D01*
X111059523Y-89145295D02*
X111059523Y-89240533D01*
X111059523Y-89240533D02*
X111011904Y-89383390D01*
X111011904Y-89383390D02*
X110440476Y-89954819D01*
X110440476Y-89954819D02*
X111059523Y-89954819D01*
X111916666Y-88954819D02*
X111726190Y-88954819D01*
X111726190Y-88954819D02*
X111630952Y-89002438D01*
X111630952Y-89002438D02*
X111583333Y-89050057D01*
X111583333Y-89050057D02*
X111488095Y-89192914D01*
X111488095Y-89192914D02*
X111440476Y-89383390D01*
X111440476Y-89383390D02*
X111440476Y-89764342D01*
X111440476Y-89764342D02*
X111488095Y-89859580D01*
X111488095Y-89859580D02*
X111535714Y-89907200D01*
X111535714Y-89907200D02*
X111630952Y-89954819D01*
X111630952Y-89954819D02*
X111821428Y-89954819D01*
X111821428Y-89954819D02*
X111916666Y-89907200D01*
X111916666Y-89907200D02*
X111964285Y-89859580D01*
X111964285Y-89859580D02*
X112011904Y-89764342D01*
X112011904Y-89764342D02*
X112011904Y-89526247D01*
X112011904Y-89526247D02*
X111964285Y-89431009D01*
X111964285Y-89431009D02*
X111916666Y-89383390D01*
X111916666Y-89383390D02*
X111821428Y-89335771D01*
X111821428Y-89335771D02*
X111630952Y-89335771D01*
X111630952Y-89335771D02*
X111535714Y-89383390D01*
X111535714Y-89383390D02*
X111488095Y-89431009D01*
X111488095Y-89431009D02*
X111440476Y-89526247D01*
X116583333Y-60609580D02*
X116535714Y-60657200D01*
X116535714Y-60657200D02*
X116392857Y-60704819D01*
X116392857Y-60704819D02*
X116297619Y-60704819D01*
X116297619Y-60704819D02*
X116154762Y-60657200D01*
X116154762Y-60657200D02*
X116059524Y-60561961D01*
X116059524Y-60561961D02*
X116011905Y-60466723D01*
X116011905Y-60466723D02*
X115964286Y-60276247D01*
X115964286Y-60276247D02*
X115964286Y-60133390D01*
X115964286Y-60133390D02*
X116011905Y-59942914D01*
X116011905Y-59942914D02*
X116059524Y-59847676D01*
X116059524Y-59847676D02*
X116154762Y-59752438D01*
X116154762Y-59752438D02*
X116297619Y-59704819D01*
X116297619Y-59704819D02*
X116392857Y-59704819D01*
X116392857Y-59704819D02*
X116535714Y-59752438D01*
X116535714Y-59752438D02*
X116583333Y-59800057D01*
X117488095Y-59704819D02*
X117011905Y-59704819D01*
X117011905Y-59704819D02*
X116964286Y-60181009D01*
X116964286Y-60181009D02*
X117011905Y-60133390D01*
X117011905Y-60133390D02*
X117107143Y-60085771D01*
X117107143Y-60085771D02*
X117345238Y-60085771D01*
X117345238Y-60085771D02*
X117440476Y-60133390D01*
X117440476Y-60133390D02*
X117488095Y-60181009D01*
X117488095Y-60181009D02*
X117535714Y-60276247D01*
X117535714Y-60276247D02*
X117535714Y-60514342D01*
X117535714Y-60514342D02*
X117488095Y-60609580D01*
X117488095Y-60609580D02*
X117440476Y-60657200D01*
X117440476Y-60657200D02*
X117345238Y-60704819D01*
X117345238Y-60704819D02*
X117107143Y-60704819D01*
X117107143Y-60704819D02*
X117011905Y-60657200D01*
X117011905Y-60657200D02*
X116964286Y-60609580D01*
X135666666Y-51254819D02*
X135666666Y-51969104D01*
X135666666Y-51969104D02*
X135619047Y-52111961D01*
X135619047Y-52111961D02*
X135523809Y-52207200D01*
X135523809Y-52207200D02*
X135380952Y-52254819D01*
X135380952Y-52254819D02*
X135285714Y-52254819D01*
X136666666Y-52254819D02*
X136095238Y-52254819D01*
X136380952Y-52254819D02*
X136380952Y-51254819D01*
X136380952Y-51254819D02*
X136285714Y-51397676D01*
X136285714Y-51397676D02*
X136190476Y-51492914D01*
X136190476Y-51492914D02*
X136095238Y-51540533D01*
X115857142Y-76109580D02*
X115809523Y-76157200D01*
X115809523Y-76157200D02*
X115666666Y-76204819D01*
X115666666Y-76204819D02*
X115571428Y-76204819D01*
X115571428Y-76204819D02*
X115428571Y-76157200D01*
X115428571Y-76157200D02*
X115333333Y-76061961D01*
X115333333Y-76061961D02*
X115285714Y-75966723D01*
X115285714Y-75966723D02*
X115238095Y-75776247D01*
X115238095Y-75776247D02*
X115238095Y-75633390D01*
X115238095Y-75633390D02*
X115285714Y-75442914D01*
X115285714Y-75442914D02*
X115333333Y-75347676D01*
X115333333Y-75347676D02*
X115428571Y-75252438D01*
X115428571Y-75252438D02*
X115571428Y-75204819D01*
X115571428Y-75204819D02*
X115666666Y-75204819D01*
X115666666Y-75204819D02*
X115809523Y-75252438D01*
X115809523Y-75252438D02*
X115857142Y-75300057D01*
X116809523Y-76204819D02*
X116238095Y-76204819D01*
X116523809Y-76204819D02*
X116523809Y-75204819D01*
X116523809Y-75204819D02*
X116428571Y-75347676D01*
X116428571Y-75347676D02*
X116333333Y-75442914D01*
X116333333Y-75442914D02*
X116238095Y-75490533D01*
X117666666Y-75538152D02*
X117666666Y-76204819D01*
X117428571Y-75157200D02*
X117190476Y-75871485D01*
X117190476Y-75871485D02*
X117809523Y-75871485D01*
X139859580Y-87092857D02*
X139907200Y-87140476D01*
X139907200Y-87140476D02*
X139954819Y-87283333D01*
X139954819Y-87283333D02*
X139954819Y-87378571D01*
X139954819Y-87378571D02*
X139907200Y-87521428D01*
X139907200Y-87521428D02*
X139811961Y-87616666D01*
X139811961Y-87616666D02*
X139716723Y-87664285D01*
X139716723Y-87664285D02*
X139526247Y-87711904D01*
X139526247Y-87711904D02*
X139383390Y-87711904D01*
X139383390Y-87711904D02*
X139192914Y-87664285D01*
X139192914Y-87664285D02*
X139097676Y-87616666D01*
X139097676Y-87616666D02*
X139002438Y-87521428D01*
X139002438Y-87521428D02*
X138954819Y-87378571D01*
X138954819Y-87378571D02*
X138954819Y-87283333D01*
X138954819Y-87283333D02*
X139002438Y-87140476D01*
X139002438Y-87140476D02*
X139050057Y-87092857D01*
X139954819Y-86140476D02*
X139954819Y-86711904D01*
X139954819Y-86426190D02*
X138954819Y-86426190D01*
X138954819Y-86426190D02*
X139097676Y-86521428D01*
X139097676Y-86521428D02*
X139192914Y-86616666D01*
X139192914Y-86616666D02*
X139240533Y-86711904D01*
X139954819Y-85664285D02*
X139954819Y-85473809D01*
X139954819Y-85473809D02*
X139907200Y-85378571D01*
X139907200Y-85378571D02*
X139859580Y-85330952D01*
X139859580Y-85330952D02*
X139716723Y-85235714D01*
X139716723Y-85235714D02*
X139526247Y-85188095D01*
X139526247Y-85188095D02*
X139145295Y-85188095D01*
X139145295Y-85188095D02*
X139050057Y-85235714D01*
X139050057Y-85235714D02*
X139002438Y-85283333D01*
X139002438Y-85283333D02*
X138954819Y-85378571D01*
X138954819Y-85378571D02*
X138954819Y-85569047D01*
X138954819Y-85569047D02*
X139002438Y-85664285D01*
X139002438Y-85664285D02*
X139050057Y-85711904D01*
X139050057Y-85711904D02*
X139145295Y-85759523D01*
X139145295Y-85759523D02*
X139383390Y-85759523D01*
X139383390Y-85759523D02*
X139478628Y-85711904D01*
X139478628Y-85711904D02*
X139526247Y-85664285D01*
X139526247Y-85664285D02*
X139573866Y-85569047D01*
X139573866Y-85569047D02*
X139573866Y-85378571D01*
X139573866Y-85378571D02*
X139526247Y-85283333D01*
X139526247Y-85283333D02*
X139478628Y-85235714D01*
X139478628Y-85235714D02*
X139383390Y-85188095D01*
X112833333Y-51609580D02*
X112785714Y-51657200D01*
X112785714Y-51657200D02*
X112642857Y-51704819D01*
X112642857Y-51704819D02*
X112547619Y-51704819D01*
X112547619Y-51704819D02*
X112404762Y-51657200D01*
X112404762Y-51657200D02*
X112309524Y-51561961D01*
X112309524Y-51561961D02*
X112261905Y-51466723D01*
X112261905Y-51466723D02*
X112214286Y-51276247D01*
X112214286Y-51276247D02*
X112214286Y-51133390D01*
X112214286Y-51133390D02*
X112261905Y-50942914D01*
X112261905Y-50942914D02*
X112309524Y-50847676D01*
X112309524Y-50847676D02*
X112404762Y-50752438D01*
X112404762Y-50752438D02*
X112547619Y-50704819D01*
X112547619Y-50704819D02*
X112642857Y-50704819D01*
X112642857Y-50704819D02*
X112785714Y-50752438D01*
X112785714Y-50752438D02*
X112833333Y-50800057D01*
X113166667Y-50704819D02*
X113785714Y-50704819D01*
X113785714Y-50704819D02*
X113452381Y-51085771D01*
X113452381Y-51085771D02*
X113595238Y-51085771D01*
X113595238Y-51085771D02*
X113690476Y-51133390D01*
X113690476Y-51133390D02*
X113738095Y-51181009D01*
X113738095Y-51181009D02*
X113785714Y-51276247D01*
X113785714Y-51276247D02*
X113785714Y-51514342D01*
X113785714Y-51514342D02*
X113738095Y-51609580D01*
X113738095Y-51609580D02*
X113690476Y-51657200D01*
X113690476Y-51657200D02*
X113595238Y-51704819D01*
X113595238Y-51704819D02*
X113309524Y-51704819D01*
X113309524Y-51704819D02*
X113214286Y-51657200D01*
X113214286Y-51657200D02*
X113166667Y-51609580D01*
X117707580Y-98940857D02*
X117755200Y-98988476D01*
X117755200Y-98988476D02*
X117802819Y-99131333D01*
X117802819Y-99131333D02*
X117802819Y-99226571D01*
X117802819Y-99226571D02*
X117755200Y-99369428D01*
X117755200Y-99369428D02*
X117659961Y-99464666D01*
X117659961Y-99464666D02*
X117564723Y-99512285D01*
X117564723Y-99512285D02*
X117374247Y-99559904D01*
X117374247Y-99559904D02*
X117231390Y-99559904D01*
X117231390Y-99559904D02*
X117040914Y-99512285D01*
X117040914Y-99512285D02*
X116945676Y-99464666D01*
X116945676Y-99464666D02*
X116850438Y-99369428D01*
X116850438Y-99369428D02*
X116802819Y-99226571D01*
X116802819Y-99226571D02*
X116802819Y-99131333D01*
X116802819Y-99131333D02*
X116850438Y-98988476D01*
X116850438Y-98988476D02*
X116898057Y-98940857D01*
X116802819Y-98607523D02*
X116802819Y-97988476D01*
X116802819Y-97988476D02*
X117183771Y-98321809D01*
X117183771Y-98321809D02*
X117183771Y-98178952D01*
X117183771Y-98178952D02*
X117231390Y-98083714D01*
X117231390Y-98083714D02*
X117279009Y-98036095D01*
X117279009Y-98036095D02*
X117374247Y-97988476D01*
X117374247Y-97988476D02*
X117612342Y-97988476D01*
X117612342Y-97988476D02*
X117707580Y-98036095D01*
X117707580Y-98036095D02*
X117755200Y-98083714D01*
X117755200Y-98083714D02*
X117802819Y-98178952D01*
X117802819Y-98178952D02*
X117802819Y-98464666D01*
X117802819Y-98464666D02*
X117755200Y-98559904D01*
X117755200Y-98559904D02*
X117707580Y-98607523D01*
X116802819Y-97369428D02*
X116802819Y-97274190D01*
X116802819Y-97274190D02*
X116850438Y-97178952D01*
X116850438Y-97178952D02*
X116898057Y-97131333D01*
X116898057Y-97131333D02*
X116993295Y-97083714D01*
X116993295Y-97083714D02*
X117183771Y-97036095D01*
X117183771Y-97036095D02*
X117421866Y-97036095D01*
X117421866Y-97036095D02*
X117612342Y-97083714D01*
X117612342Y-97083714D02*
X117707580Y-97131333D01*
X117707580Y-97131333D02*
X117755200Y-97178952D01*
X117755200Y-97178952D02*
X117802819Y-97274190D01*
X117802819Y-97274190D02*
X117802819Y-97369428D01*
X117802819Y-97369428D02*
X117755200Y-97464666D01*
X117755200Y-97464666D02*
X117707580Y-97512285D01*
X117707580Y-97512285D02*
X117612342Y-97559904D01*
X117612342Y-97559904D02*
X117421866Y-97607523D01*
X117421866Y-97607523D02*
X117183771Y-97607523D01*
X117183771Y-97607523D02*
X116993295Y-97559904D01*
X116993295Y-97559904D02*
X116898057Y-97512285D01*
X116898057Y-97512285D02*
X116850438Y-97464666D01*
X116850438Y-97464666D02*
X116802819Y-97369428D01*
X119333333Y-60654819D02*
X118857143Y-60654819D01*
X118857143Y-60654819D02*
X118857143Y-59654819D01*
X119619048Y-59750057D02*
X119666667Y-59702438D01*
X119666667Y-59702438D02*
X119761905Y-59654819D01*
X119761905Y-59654819D02*
X120000000Y-59654819D01*
X120000000Y-59654819D02*
X120095238Y-59702438D01*
X120095238Y-59702438D02*
X120142857Y-59750057D01*
X120142857Y-59750057D02*
X120190476Y-59845295D01*
X120190476Y-59845295D02*
X120190476Y-59940533D01*
X120190476Y-59940533D02*
X120142857Y-60083390D01*
X120142857Y-60083390D02*
X119571429Y-60654819D01*
X119571429Y-60654819D02*
X120190476Y-60654819D01*
X117609580Y-52416666D02*
X117657200Y-52464285D01*
X117657200Y-52464285D02*
X117704819Y-52607142D01*
X117704819Y-52607142D02*
X117704819Y-52702380D01*
X117704819Y-52702380D02*
X117657200Y-52845237D01*
X117657200Y-52845237D02*
X117561961Y-52940475D01*
X117561961Y-52940475D02*
X117466723Y-52988094D01*
X117466723Y-52988094D02*
X117276247Y-53035713D01*
X117276247Y-53035713D02*
X117133390Y-53035713D01*
X117133390Y-53035713D02*
X116942914Y-52988094D01*
X116942914Y-52988094D02*
X116847676Y-52940475D01*
X116847676Y-52940475D02*
X116752438Y-52845237D01*
X116752438Y-52845237D02*
X116704819Y-52702380D01*
X116704819Y-52702380D02*
X116704819Y-52607142D01*
X116704819Y-52607142D02*
X116752438Y-52464285D01*
X116752438Y-52464285D02*
X116800057Y-52416666D01*
X116800057Y-52035713D02*
X116752438Y-51988094D01*
X116752438Y-51988094D02*
X116704819Y-51892856D01*
X116704819Y-51892856D02*
X116704819Y-51654761D01*
X116704819Y-51654761D02*
X116752438Y-51559523D01*
X116752438Y-51559523D02*
X116800057Y-51511904D01*
X116800057Y-51511904D02*
X116895295Y-51464285D01*
X116895295Y-51464285D02*
X116990533Y-51464285D01*
X116990533Y-51464285D02*
X117133390Y-51511904D01*
X117133390Y-51511904D02*
X117704819Y-52083332D01*
X117704819Y-52083332D02*
X117704819Y-51464285D01*
X109857142Y-105359580D02*
X109809523Y-105407200D01*
X109809523Y-105407200D02*
X109666666Y-105454819D01*
X109666666Y-105454819D02*
X109571428Y-105454819D01*
X109571428Y-105454819D02*
X109428571Y-105407200D01*
X109428571Y-105407200D02*
X109333333Y-105311961D01*
X109333333Y-105311961D02*
X109285714Y-105216723D01*
X109285714Y-105216723D02*
X109238095Y-105026247D01*
X109238095Y-105026247D02*
X109238095Y-104883390D01*
X109238095Y-104883390D02*
X109285714Y-104692914D01*
X109285714Y-104692914D02*
X109333333Y-104597676D01*
X109333333Y-104597676D02*
X109428571Y-104502438D01*
X109428571Y-104502438D02*
X109571428Y-104454819D01*
X109571428Y-104454819D02*
X109666666Y-104454819D01*
X109666666Y-104454819D02*
X109809523Y-104502438D01*
X109809523Y-104502438D02*
X109857142Y-104550057D01*
X110190476Y-104454819D02*
X110809523Y-104454819D01*
X110809523Y-104454819D02*
X110476190Y-104835771D01*
X110476190Y-104835771D02*
X110619047Y-104835771D01*
X110619047Y-104835771D02*
X110714285Y-104883390D01*
X110714285Y-104883390D02*
X110761904Y-104931009D01*
X110761904Y-104931009D02*
X110809523Y-105026247D01*
X110809523Y-105026247D02*
X110809523Y-105264342D01*
X110809523Y-105264342D02*
X110761904Y-105359580D01*
X110761904Y-105359580D02*
X110714285Y-105407200D01*
X110714285Y-105407200D02*
X110619047Y-105454819D01*
X110619047Y-105454819D02*
X110333333Y-105454819D01*
X110333333Y-105454819D02*
X110238095Y-105407200D01*
X110238095Y-105407200D02*
X110190476Y-105359580D01*
X111142857Y-104454819D02*
X111761904Y-104454819D01*
X111761904Y-104454819D02*
X111428571Y-104835771D01*
X111428571Y-104835771D02*
X111571428Y-104835771D01*
X111571428Y-104835771D02*
X111666666Y-104883390D01*
X111666666Y-104883390D02*
X111714285Y-104931009D01*
X111714285Y-104931009D02*
X111761904Y-105026247D01*
X111761904Y-105026247D02*
X111761904Y-105264342D01*
X111761904Y-105264342D02*
X111714285Y-105359580D01*
X111714285Y-105359580D02*
X111666666Y-105407200D01*
X111666666Y-105407200D02*
X111571428Y-105454819D01*
X111571428Y-105454819D02*
X111285714Y-105454819D01*
X111285714Y-105454819D02*
X111190476Y-105407200D01*
X111190476Y-105407200D02*
X111142857Y-105359580D01*
X112607142Y-98109580D02*
X112559523Y-98157200D01*
X112559523Y-98157200D02*
X112416666Y-98204819D01*
X112416666Y-98204819D02*
X112321428Y-98204819D01*
X112321428Y-98204819D02*
X112178571Y-98157200D01*
X112178571Y-98157200D02*
X112083333Y-98061961D01*
X112083333Y-98061961D02*
X112035714Y-97966723D01*
X112035714Y-97966723D02*
X111988095Y-97776247D01*
X111988095Y-97776247D02*
X111988095Y-97633390D01*
X111988095Y-97633390D02*
X112035714Y-97442914D01*
X112035714Y-97442914D02*
X112083333Y-97347676D01*
X112083333Y-97347676D02*
X112178571Y-97252438D01*
X112178571Y-97252438D02*
X112321428Y-97204819D01*
X112321428Y-97204819D02*
X112416666Y-97204819D01*
X112416666Y-97204819D02*
X112559523Y-97252438D01*
X112559523Y-97252438D02*
X112607142Y-97300057D01*
X112940476Y-97204819D02*
X113559523Y-97204819D01*
X113559523Y-97204819D02*
X113226190Y-97585771D01*
X113226190Y-97585771D02*
X113369047Y-97585771D01*
X113369047Y-97585771D02*
X113464285Y-97633390D01*
X113464285Y-97633390D02*
X113511904Y-97681009D01*
X113511904Y-97681009D02*
X113559523Y-97776247D01*
X113559523Y-97776247D02*
X113559523Y-98014342D01*
X113559523Y-98014342D02*
X113511904Y-98109580D01*
X113511904Y-98109580D02*
X113464285Y-98157200D01*
X113464285Y-98157200D02*
X113369047Y-98204819D01*
X113369047Y-98204819D02*
X113083333Y-98204819D01*
X113083333Y-98204819D02*
X112988095Y-98157200D01*
X112988095Y-98157200D02*
X112940476Y-98109580D01*
X114511904Y-98204819D02*
X113940476Y-98204819D01*
X114226190Y-98204819D02*
X114226190Y-97204819D01*
X114226190Y-97204819D02*
X114130952Y-97347676D01*
X114130952Y-97347676D02*
X114035714Y-97442914D01*
X114035714Y-97442914D02*
X113940476Y-97490533D01*
X113154761Y-100050057D02*
X113059523Y-100002438D01*
X113059523Y-100002438D02*
X112964285Y-99907200D01*
X112964285Y-99907200D02*
X112821428Y-99764342D01*
X112821428Y-99764342D02*
X112726190Y-99716723D01*
X112726190Y-99716723D02*
X112630952Y-99716723D01*
X112678571Y-99954819D02*
X112583333Y-99907200D01*
X112583333Y-99907200D02*
X112488095Y-99811961D01*
X112488095Y-99811961D02*
X112440476Y-99621485D01*
X112440476Y-99621485D02*
X112440476Y-99288152D01*
X112440476Y-99288152D02*
X112488095Y-99097676D01*
X112488095Y-99097676D02*
X112583333Y-99002438D01*
X112583333Y-99002438D02*
X112678571Y-98954819D01*
X112678571Y-98954819D02*
X112869047Y-98954819D01*
X112869047Y-98954819D02*
X112964285Y-99002438D01*
X112964285Y-99002438D02*
X113059523Y-99097676D01*
X113059523Y-99097676D02*
X113107142Y-99288152D01*
X113107142Y-99288152D02*
X113107142Y-99621485D01*
X113107142Y-99621485D02*
X113059523Y-99811961D01*
X113059523Y-99811961D02*
X112964285Y-99907200D01*
X112964285Y-99907200D02*
X112869047Y-99954819D01*
X112869047Y-99954819D02*
X112678571Y-99954819D01*
X114011904Y-98954819D02*
X113535714Y-98954819D01*
X113535714Y-98954819D02*
X113488095Y-99431009D01*
X113488095Y-99431009D02*
X113535714Y-99383390D01*
X113535714Y-99383390D02*
X113630952Y-99335771D01*
X113630952Y-99335771D02*
X113869047Y-99335771D01*
X113869047Y-99335771D02*
X113964285Y-99383390D01*
X113964285Y-99383390D02*
X114011904Y-99431009D01*
X114011904Y-99431009D02*
X114059523Y-99526247D01*
X114059523Y-99526247D02*
X114059523Y-99764342D01*
X114059523Y-99764342D02*
X114011904Y-99859580D01*
X114011904Y-99859580D02*
X113964285Y-99907200D01*
X113964285Y-99907200D02*
X113869047Y-99954819D01*
X113869047Y-99954819D02*
X113630952Y-99954819D01*
X113630952Y-99954819D02*
X113535714Y-99907200D01*
X113535714Y-99907200D02*
X113488095Y-99859580D01*
X113433333Y-91654819D02*
X112957143Y-91654819D01*
X112957143Y-91654819D02*
X112957143Y-90654819D01*
X113909524Y-91083390D02*
X113814286Y-91035771D01*
X113814286Y-91035771D02*
X113766667Y-90988152D01*
X113766667Y-90988152D02*
X113719048Y-90892914D01*
X113719048Y-90892914D02*
X113719048Y-90845295D01*
X113719048Y-90845295D02*
X113766667Y-90750057D01*
X113766667Y-90750057D02*
X113814286Y-90702438D01*
X113814286Y-90702438D02*
X113909524Y-90654819D01*
X113909524Y-90654819D02*
X114100000Y-90654819D01*
X114100000Y-90654819D02*
X114195238Y-90702438D01*
X114195238Y-90702438D02*
X114242857Y-90750057D01*
X114242857Y-90750057D02*
X114290476Y-90845295D01*
X114290476Y-90845295D02*
X114290476Y-90892914D01*
X114290476Y-90892914D02*
X114242857Y-90988152D01*
X114242857Y-90988152D02*
X114195238Y-91035771D01*
X114195238Y-91035771D02*
X114100000Y-91083390D01*
X114100000Y-91083390D02*
X113909524Y-91083390D01*
X113909524Y-91083390D02*
X113814286Y-91131009D01*
X113814286Y-91131009D02*
X113766667Y-91178628D01*
X113766667Y-91178628D02*
X113719048Y-91273866D01*
X113719048Y-91273866D02*
X113719048Y-91464342D01*
X113719048Y-91464342D02*
X113766667Y-91559580D01*
X113766667Y-91559580D02*
X113814286Y-91607200D01*
X113814286Y-91607200D02*
X113909524Y-91654819D01*
X113909524Y-91654819D02*
X114100000Y-91654819D01*
X114100000Y-91654819D02*
X114195238Y-91607200D01*
X114195238Y-91607200D02*
X114242857Y-91559580D01*
X114242857Y-91559580D02*
X114290476Y-91464342D01*
X114290476Y-91464342D02*
X114290476Y-91273866D01*
X114290476Y-91273866D02*
X114242857Y-91178628D01*
X114242857Y-91178628D02*
X114195238Y-91131009D01*
X114195238Y-91131009D02*
X114100000Y-91083390D01*
X113154761Y-84300057D02*
X113059523Y-84252438D01*
X113059523Y-84252438D02*
X112964285Y-84157200D01*
X112964285Y-84157200D02*
X112821428Y-84014342D01*
X112821428Y-84014342D02*
X112726190Y-83966723D01*
X112726190Y-83966723D02*
X112630952Y-83966723D01*
X112678571Y-84204819D02*
X112583333Y-84157200D01*
X112583333Y-84157200D02*
X112488095Y-84061961D01*
X112488095Y-84061961D02*
X112440476Y-83871485D01*
X112440476Y-83871485D02*
X112440476Y-83538152D01*
X112440476Y-83538152D02*
X112488095Y-83347676D01*
X112488095Y-83347676D02*
X112583333Y-83252438D01*
X112583333Y-83252438D02*
X112678571Y-83204819D01*
X112678571Y-83204819D02*
X112869047Y-83204819D01*
X112869047Y-83204819D02*
X112964285Y-83252438D01*
X112964285Y-83252438D02*
X113059523Y-83347676D01*
X113059523Y-83347676D02*
X113107142Y-83538152D01*
X113107142Y-83538152D02*
X113107142Y-83871485D01*
X113107142Y-83871485D02*
X113059523Y-84061961D01*
X113059523Y-84061961D02*
X112964285Y-84157200D01*
X112964285Y-84157200D02*
X112869047Y-84204819D01*
X112869047Y-84204819D02*
X112678571Y-84204819D01*
X113964285Y-83538152D02*
X113964285Y-84204819D01*
X113726190Y-83157200D02*
X113488095Y-83871485D01*
X113488095Y-83871485D02*
X114107142Y-83871485D01*
X113633333Y-60554819D02*
X113157143Y-60554819D01*
X113157143Y-60554819D02*
X113157143Y-59554819D01*
X114490476Y-60554819D02*
X113919048Y-60554819D01*
X114204762Y-60554819D02*
X114204762Y-59554819D01*
X114204762Y-59554819D02*
X114109524Y-59697676D01*
X114109524Y-59697676D02*
X114014286Y-59792914D01*
X114014286Y-59792914D02*
X113919048Y-59840533D01*
X113154761Y-68800057D02*
X113059523Y-68752438D01*
X113059523Y-68752438D02*
X112964285Y-68657200D01*
X112964285Y-68657200D02*
X112821428Y-68514342D01*
X112821428Y-68514342D02*
X112726190Y-68466723D01*
X112726190Y-68466723D02*
X112630952Y-68466723D01*
X112678571Y-68704819D02*
X112583333Y-68657200D01*
X112583333Y-68657200D02*
X112488095Y-68561961D01*
X112488095Y-68561961D02*
X112440476Y-68371485D01*
X112440476Y-68371485D02*
X112440476Y-68038152D01*
X112440476Y-68038152D02*
X112488095Y-67847676D01*
X112488095Y-67847676D02*
X112583333Y-67752438D01*
X112583333Y-67752438D02*
X112678571Y-67704819D01*
X112678571Y-67704819D02*
X112869047Y-67704819D01*
X112869047Y-67704819D02*
X112964285Y-67752438D01*
X112964285Y-67752438D02*
X113059523Y-67847676D01*
X113059523Y-67847676D02*
X113107142Y-68038152D01*
X113107142Y-68038152D02*
X113107142Y-68371485D01*
X113107142Y-68371485D02*
X113059523Y-68561961D01*
X113059523Y-68561961D02*
X112964285Y-68657200D01*
X112964285Y-68657200D02*
X112869047Y-68704819D01*
X112869047Y-68704819D02*
X112678571Y-68704819D01*
X113488095Y-67800057D02*
X113535714Y-67752438D01*
X113535714Y-67752438D02*
X113630952Y-67704819D01*
X113630952Y-67704819D02*
X113869047Y-67704819D01*
X113869047Y-67704819D02*
X113964285Y-67752438D01*
X113964285Y-67752438D02*
X114011904Y-67800057D01*
X114011904Y-67800057D02*
X114059523Y-67895295D01*
X114059523Y-67895295D02*
X114059523Y-67990533D01*
X114059523Y-67990533D02*
X114011904Y-68133390D01*
X114011904Y-68133390D02*
X113440476Y-68704819D01*
X113440476Y-68704819D02*
X114059523Y-68704819D01*
X109857142Y-74359580D02*
X109809523Y-74407200D01*
X109809523Y-74407200D02*
X109666666Y-74454819D01*
X109666666Y-74454819D02*
X109571428Y-74454819D01*
X109571428Y-74454819D02*
X109428571Y-74407200D01*
X109428571Y-74407200D02*
X109333333Y-74311961D01*
X109333333Y-74311961D02*
X109285714Y-74216723D01*
X109285714Y-74216723D02*
X109238095Y-74026247D01*
X109238095Y-74026247D02*
X109238095Y-73883390D01*
X109238095Y-73883390D02*
X109285714Y-73692914D01*
X109285714Y-73692914D02*
X109333333Y-73597676D01*
X109333333Y-73597676D02*
X109428571Y-73502438D01*
X109428571Y-73502438D02*
X109571428Y-73454819D01*
X109571428Y-73454819D02*
X109666666Y-73454819D01*
X109666666Y-73454819D02*
X109809523Y-73502438D01*
X109809523Y-73502438D02*
X109857142Y-73550057D01*
X110809523Y-74454819D02*
X110238095Y-74454819D01*
X110523809Y-74454819D02*
X110523809Y-73454819D01*
X110523809Y-73454819D02*
X110428571Y-73597676D01*
X110428571Y-73597676D02*
X110333333Y-73692914D01*
X110333333Y-73692914D02*
X110238095Y-73740533D01*
X111190476Y-73550057D02*
X111238095Y-73502438D01*
X111238095Y-73502438D02*
X111333333Y-73454819D01*
X111333333Y-73454819D02*
X111571428Y-73454819D01*
X111571428Y-73454819D02*
X111666666Y-73502438D01*
X111666666Y-73502438D02*
X111714285Y-73550057D01*
X111714285Y-73550057D02*
X111761904Y-73645295D01*
X111761904Y-73645295D02*
X111761904Y-73740533D01*
X111761904Y-73740533D02*
X111714285Y-73883390D01*
X111714285Y-73883390D02*
X111142857Y-74454819D01*
X111142857Y-74454819D02*
X111761904Y-74454819D01*
X109204819Y-56488094D02*
X108204819Y-56488094D01*
X108204819Y-56488094D02*
X108204819Y-56249999D01*
X108204819Y-56249999D02*
X108252438Y-56107142D01*
X108252438Y-56107142D02*
X108347676Y-56011904D01*
X108347676Y-56011904D02*
X108442914Y-55964285D01*
X108442914Y-55964285D02*
X108633390Y-55916666D01*
X108633390Y-55916666D02*
X108776247Y-55916666D01*
X108776247Y-55916666D02*
X108966723Y-55964285D01*
X108966723Y-55964285D02*
X109061961Y-56011904D01*
X109061961Y-56011904D02*
X109157200Y-56107142D01*
X109157200Y-56107142D02*
X109204819Y-56249999D01*
X109204819Y-56249999D02*
X109204819Y-56488094D01*
X109204819Y-54964285D02*
X109204819Y-55535713D01*
X109204819Y-55249999D02*
X108204819Y-55249999D01*
X108204819Y-55249999D02*
X108347676Y-55345237D01*
X108347676Y-55345237D02*
X108442914Y-55440475D01*
X108442914Y-55440475D02*
X108490533Y-55535713D01*
X117707580Y-83446857D02*
X117755200Y-83494476D01*
X117755200Y-83494476D02*
X117802819Y-83637333D01*
X117802819Y-83637333D02*
X117802819Y-83732571D01*
X117802819Y-83732571D02*
X117755200Y-83875428D01*
X117755200Y-83875428D02*
X117659961Y-83970666D01*
X117659961Y-83970666D02*
X117564723Y-84018285D01*
X117564723Y-84018285D02*
X117374247Y-84065904D01*
X117374247Y-84065904D02*
X117231390Y-84065904D01*
X117231390Y-84065904D02*
X117040914Y-84018285D01*
X117040914Y-84018285D02*
X116945676Y-83970666D01*
X116945676Y-83970666D02*
X116850438Y-83875428D01*
X116850438Y-83875428D02*
X116802819Y-83732571D01*
X116802819Y-83732571D02*
X116802819Y-83637333D01*
X116802819Y-83637333D02*
X116850438Y-83494476D01*
X116850438Y-83494476D02*
X116898057Y-83446857D01*
X116898057Y-83065904D02*
X116850438Y-83018285D01*
X116850438Y-83018285D02*
X116802819Y-82923047D01*
X116802819Y-82923047D02*
X116802819Y-82684952D01*
X116802819Y-82684952D02*
X116850438Y-82589714D01*
X116850438Y-82589714D02*
X116898057Y-82542095D01*
X116898057Y-82542095D02*
X116993295Y-82494476D01*
X116993295Y-82494476D02*
X117088533Y-82494476D01*
X117088533Y-82494476D02*
X117231390Y-82542095D01*
X117231390Y-82542095D02*
X117802819Y-83113523D01*
X117802819Y-83113523D02*
X117802819Y-82494476D01*
X116802819Y-82161142D02*
X116802819Y-81542095D01*
X116802819Y-81542095D02*
X117183771Y-81875428D01*
X117183771Y-81875428D02*
X117183771Y-81732571D01*
X117183771Y-81732571D02*
X117231390Y-81637333D01*
X117231390Y-81637333D02*
X117279009Y-81589714D01*
X117279009Y-81589714D02*
X117374247Y-81542095D01*
X117374247Y-81542095D02*
X117612342Y-81542095D01*
X117612342Y-81542095D02*
X117707580Y-81589714D01*
X117707580Y-81589714D02*
X117755200Y-81637333D01*
X117755200Y-81637333D02*
X117802819Y-81732571D01*
X117802819Y-81732571D02*
X117802819Y-82018285D01*
X117802819Y-82018285D02*
X117755200Y-82113523D01*
X117755200Y-82113523D02*
X117707580Y-82161142D01*
X117559580Y-67866666D02*
X117607200Y-67914285D01*
X117607200Y-67914285D02*
X117654819Y-68057142D01*
X117654819Y-68057142D02*
X117654819Y-68152380D01*
X117654819Y-68152380D02*
X117607200Y-68295237D01*
X117607200Y-68295237D02*
X117511961Y-68390475D01*
X117511961Y-68390475D02*
X117416723Y-68438094D01*
X117416723Y-68438094D02*
X117226247Y-68485713D01*
X117226247Y-68485713D02*
X117083390Y-68485713D01*
X117083390Y-68485713D02*
X116892914Y-68438094D01*
X116892914Y-68438094D02*
X116797676Y-68390475D01*
X116797676Y-68390475D02*
X116702438Y-68295237D01*
X116702438Y-68295237D02*
X116654819Y-68152380D01*
X116654819Y-68152380D02*
X116654819Y-68057142D01*
X116654819Y-68057142D02*
X116702438Y-67914285D01*
X116702438Y-67914285D02*
X116750057Y-67866666D01*
X117654819Y-67390475D02*
X117654819Y-67199999D01*
X117654819Y-67199999D02*
X117607200Y-67104761D01*
X117607200Y-67104761D02*
X117559580Y-67057142D01*
X117559580Y-67057142D02*
X117416723Y-66961904D01*
X117416723Y-66961904D02*
X117226247Y-66914285D01*
X117226247Y-66914285D02*
X116845295Y-66914285D01*
X116845295Y-66914285D02*
X116750057Y-66961904D01*
X116750057Y-66961904D02*
X116702438Y-67009523D01*
X116702438Y-67009523D02*
X116654819Y-67104761D01*
X116654819Y-67104761D02*
X116654819Y-67295237D01*
X116654819Y-67295237D02*
X116702438Y-67390475D01*
X116702438Y-67390475D02*
X116750057Y-67438094D01*
X116750057Y-67438094D02*
X116845295Y-67485713D01*
X116845295Y-67485713D02*
X117083390Y-67485713D01*
X117083390Y-67485713D02*
X117178628Y-67438094D01*
X117178628Y-67438094D02*
X117226247Y-67390475D01*
X117226247Y-67390475D02*
X117273866Y-67295237D01*
X117273866Y-67295237D02*
X117273866Y-67104761D01*
X117273866Y-67104761D02*
X117226247Y-67009523D01*
X117226247Y-67009523D02*
X117178628Y-66961904D01*
X117178628Y-66961904D02*
X117083390Y-66914285D01*
X115607142Y-107109580D02*
X115559523Y-107157200D01*
X115559523Y-107157200D02*
X115416666Y-107204819D01*
X115416666Y-107204819D02*
X115321428Y-107204819D01*
X115321428Y-107204819D02*
X115178571Y-107157200D01*
X115178571Y-107157200D02*
X115083333Y-107061961D01*
X115083333Y-107061961D02*
X115035714Y-106966723D01*
X115035714Y-106966723D02*
X114988095Y-106776247D01*
X114988095Y-106776247D02*
X114988095Y-106633390D01*
X114988095Y-106633390D02*
X115035714Y-106442914D01*
X115035714Y-106442914D02*
X115083333Y-106347676D01*
X115083333Y-106347676D02*
X115178571Y-106252438D01*
X115178571Y-106252438D02*
X115321428Y-106204819D01*
X115321428Y-106204819D02*
X115416666Y-106204819D01*
X115416666Y-106204819D02*
X115559523Y-106252438D01*
X115559523Y-106252438D02*
X115607142Y-106300057D01*
X115940476Y-106204819D02*
X116559523Y-106204819D01*
X116559523Y-106204819D02*
X116226190Y-106585771D01*
X116226190Y-106585771D02*
X116369047Y-106585771D01*
X116369047Y-106585771D02*
X116464285Y-106633390D01*
X116464285Y-106633390D02*
X116511904Y-106681009D01*
X116511904Y-106681009D02*
X116559523Y-106776247D01*
X116559523Y-106776247D02*
X116559523Y-107014342D01*
X116559523Y-107014342D02*
X116511904Y-107109580D01*
X116511904Y-107109580D02*
X116464285Y-107157200D01*
X116464285Y-107157200D02*
X116369047Y-107204819D01*
X116369047Y-107204819D02*
X116083333Y-107204819D01*
X116083333Y-107204819D02*
X115988095Y-107157200D01*
X115988095Y-107157200D02*
X115940476Y-107109580D01*
X117464285Y-106204819D02*
X116988095Y-106204819D01*
X116988095Y-106204819D02*
X116940476Y-106681009D01*
X116940476Y-106681009D02*
X116988095Y-106633390D01*
X116988095Y-106633390D02*
X117083333Y-106585771D01*
X117083333Y-106585771D02*
X117321428Y-106585771D01*
X117321428Y-106585771D02*
X117416666Y-106633390D01*
X117416666Y-106633390D02*
X117464285Y-106681009D01*
X117464285Y-106681009D02*
X117511904Y-106776247D01*
X117511904Y-106776247D02*
X117511904Y-107014342D01*
X117511904Y-107014342D02*
X117464285Y-107109580D01*
X117464285Y-107109580D02*
X117416666Y-107157200D01*
X117416666Y-107157200D02*
X117321428Y-107204819D01*
X117321428Y-107204819D02*
X117083333Y-107204819D01*
X117083333Y-107204819D02*
X116988095Y-107157200D01*
X116988095Y-107157200D02*
X116940476Y-107109580D01*
X84854766Y-89734819D02*
X84854766Y-90449104D01*
X84854766Y-90449104D02*
X84807147Y-90591961D01*
X84807147Y-90591961D02*
X84711909Y-90687200D01*
X84711909Y-90687200D02*
X84569052Y-90734819D01*
X84569052Y-90734819D02*
X84473814Y-90734819D01*
X85759528Y-90068152D02*
X85759528Y-90734819D01*
X85521433Y-89687200D02*
X85283338Y-90401485D01*
X85283338Y-90401485D02*
X85902385Y-90401485D01*
X109204819Y-87738094D02*
X108204819Y-87738094D01*
X108204819Y-87738094D02*
X108204819Y-87499999D01*
X108204819Y-87499999D02*
X108252438Y-87357142D01*
X108252438Y-87357142D02*
X108347676Y-87261904D01*
X108347676Y-87261904D02*
X108442914Y-87214285D01*
X108442914Y-87214285D02*
X108633390Y-87166666D01*
X108633390Y-87166666D02*
X108776247Y-87166666D01*
X108776247Y-87166666D02*
X108966723Y-87214285D01*
X108966723Y-87214285D02*
X109061961Y-87261904D01*
X109061961Y-87261904D02*
X109157200Y-87357142D01*
X109157200Y-87357142D02*
X109204819Y-87499999D01*
X109204819Y-87499999D02*
X109204819Y-87738094D01*
X108538152Y-86309523D02*
X109204819Y-86309523D01*
X108157200Y-86547618D02*
X108871485Y-86785713D01*
X108871485Y-86785713D02*
X108871485Y-86166666D01*
X125359580Y-78892857D02*
X125407200Y-78940476D01*
X125407200Y-78940476D02*
X125454819Y-79083333D01*
X125454819Y-79083333D02*
X125454819Y-79178571D01*
X125454819Y-79178571D02*
X125407200Y-79321428D01*
X125407200Y-79321428D02*
X125311961Y-79416666D01*
X125311961Y-79416666D02*
X125216723Y-79464285D01*
X125216723Y-79464285D02*
X125026247Y-79511904D01*
X125026247Y-79511904D02*
X124883390Y-79511904D01*
X124883390Y-79511904D02*
X124692914Y-79464285D01*
X124692914Y-79464285D02*
X124597676Y-79416666D01*
X124597676Y-79416666D02*
X124502438Y-79321428D01*
X124502438Y-79321428D02*
X124454819Y-79178571D01*
X124454819Y-79178571D02*
X124454819Y-79083333D01*
X124454819Y-79083333D02*
X124502438Y-78940476D01*
X124502438Y-78940476D02*
X124550057Y-78892857D01*
X125454819Y-77940476D02*
X125454819Y-78511904D01*
X125454819Y-78226190D02*
X124454819Y-78226190D01*
X124454819Y-78226190D02*
X124597676Y-78321428D01*
X124597676Y-78321428D02*
X124692914Y-78416666D01*
X124692914Y-78416666D02*
X124740533Y-78511904D01*
X125454819Y-76988095D02*
X125454819Y-77559523D01*
X125454819Y-77273809D02*
X124454819Y-77273809D01*
X124454819Y-77273809D02*
X124597676Y-77369047D01*
X124597676Y-77369047D02*
X124692914Y-77464285D01*
X124692914Y-77464285D02*
X124740533Y-77559523D01*
X100946195Y-87624819D02*
X100946195Y-88434342D01*
X100946195Y-88434342D02*
X100993814Y-88529580D01*
X100993814Y-88529580D02*
X101041433Y-88577200D01*
X101041433Y-88577200D02*
X101136671Y-88624819D01*
X101136671Y-88624819D02*
X101327147Y-88624819D01*
X101327147Y-88624819D02*
X101422385Y-88577200D01*
X101422385Y-88577200D02*
X101470004Y-88529580D01*
X101470004Y-88529580D02*
X101517623Y-88434342D01*
X101517623Y-88434342D02*
X101517623Y-87624819D01*
X102422385Y-87958152D02*
X102422385Y-88624819D01*
X102184290Y-87577200D02*
X101946195Y-88291485D01*
X101946195Y-88291485D02*
X102565242Y-88291485D01*
X124107142Y-89859580D02*
X124059523Y-89907200D01*
X124059523Y-89907200D02*
X123916666Y-89954819D01*
X123916666Y-89954819D02*
X123821428Y-89954819D01*
X123821428Y-89954819D02*
X123678571Y-89907200D01*
X123678571Y-89907200D02*
X123583333Y-89811961D01*
X123583333Y-89811961D02*
X123535714Y-89716723D01*
X123535714Y-89716723D02*
X123488095Y-89526247D01*
X123488095Y-89526247D02*
X123488095Y-89383390D01*
X123488095Y-89383390D02*
X123535714Y-89192914D01*
X123535714Y-89192914D02*
X123583333Y-89097676D01*
X123583333Y-89097676D02*
X123678571Y-89002438D01*
X123678571Y-89002438D02*
X123821428Y-88954819D01*
X123821428Y-88954819D02*
X123916666Y-88954819D01*
X123916666Y-88954819D02*
X124059523Y-89002438D01*
X124059523Y-89002438D02*
X124107142Y-89050057D01*
X124488095Y-89050057D02*
X124535714Y-89002438D01*
X124535714Y-89002438D02*
X124630952Y-88954819D01*
X124630952Y-88954819D02*
X124869047Y-88954819D01*
X124869047Y-88954819D02*
X124964285Y-89002438D01*
X124964285Y-89002438D02*
X125011904Y-89050057D01*
X125011904Y-89050057D02*
X125059523Y-89145295D01*
X125059523Y-89145295D02*
X125059523Y-89240533D01*
X125059523Y-89240533D02*
X125011904Y-89383390D01*
X125011904Y-89383390D02*
X124440476Y-89954819D01*
X124440476Y-89954819D02*
X125059523Y-89954819D01*
X125392857Y-88954819D02*
X126059523Y-88954819D01*
X126059523Y-88954819D02*
X125630952Y-89954819D01*
X134107142Y-77809580D02*
X134059523Y-77857200D01*
X134059523Y-77857200D02*
X133916666Y-77904819D01*
X133916666Y-77904819D02*
X133821428Y-77904819D01*
X133821428Y-77904819D02*
X133678571Y-77857200D01*
X133678571Y-77857200D02*
X133583333Y-77761961D01*
X133583333Y-77761961D02*
X133535714Y-77666723D01*
X133535714Y-77666723D02*
X133488095Y-77476247D01*
X133488095Y-77476247D02*
X133488095Y-77333390D01*
X133488095Y-77333390D02*
X133535714Y-77142914D01*
X133535714Y-77142914D02*
X133583333Y-77047676D01*
X133583333Y-77047676D02*
X133678571Y-76952438D01*
X133678571Y-76952438D02*
X133821428Y-76904819D01*
X133821428Y-76904819D02*
X133916666Y-76904819D01*
X133916666Y-76904819D02*
X134059523Y-76952438D01*
X134059523Y-76952438D02*
X134107142Y-77000057D01*
X135059523Y-77904819D02*
X134488095Y-77904819D01*
X134773809Y-77904819D02*
X134773809Y-76904819D01*
X134773809Y-76904819D02*
X134678571Y-77047676D01*
X134678571Y-77047676D02*
X134583333Y-77142914D01*
X134583333Y-77142914D02*
X134488095Y-77190533D01*
X135630952Y-77333390D02*
X135535714Y-77285771D01*
X135535714Y-77285771D02*
X135488095Y-77238152D01*
X135488095Y-77238152D02*
X135440476Y-77142914D01*
X135440476Y-77142914D02*
X135440476Y-77095295D01*
X135440476Y-77095295D02*
X135488095Y-77000057D01*
X135488095Y-77000057D02*
X135535714Y-76952438D01*
X135535714Y-76952438D02*
X135630952Y-76904819D01*
X135630952Y-76904819D02*
X135821428Y-76904819D01*
X135821428Y-76904819D02*
X135916666Y-76952438D01*
X135916666Y-76952438D02*
X135964285Y-77000057D01*
X135964285Y-77000057D02*
X136011904Y-77095295D01*
X136011904Y-77095295D02*
X136011904Y-77142914D01*
X136011904Y-77142914D02*
X135964285Y-77238152D01*
X135964285Y-77238152D02*
X135916666Y-77285771D01*
X135916666Y-77285771D02*
X135821428Y-77333390D01*
X135821428Y-77333390D02*
X135630952Y-77333390D01*
X135630952Y-77333390D02*
X135535714Y-77381009D01*
X135535714Y-77381009D02*
X135488095Y-77428628D01*
X135488095Y-77428628D02*
X135440476Y-77523866D01*
X135440476Y-77523866D02*
X135440476Y-77714342D01*
X135440476Y-77714342D02*
X135488095Y-77809580D01*
X135488095Y-77809580D02*
X135535714Y-77857200D01*
X135535714Y-77857200D02*
X135630952Y-77904819D01*
X135630952Y-77904819D02*
X135821428Y-77904819D01*
X135821428Y-77904819D02*
X135916666Y-77857200D01*
X135916666Y-77857200D02*
X135964285Y-77809580D01*
X135964285Y-77809580D02*
X136011904Y-77714342D01*
X136011904Y-77714342D02*
X136011904Y-77523866D01*
X136011904Y-77523866D02*
X135964285Y-77428628D01*
X135964285Y-77428628D02*
X135916666Y-77381009D01*
X135916666Y-77381009D02*
X135821428Y-77333390D01*
X119433333Y-91854819D02*
X118957143Y-91854819D01*
X118957143Y-91854819D02*
X118957143Y-90854819D01*
X119671429Y-90854819D02*
X120338095Y-90854819D01*
X120338095Y-90854819D02*
X119909524Y-91854819D01*
X100946195Y-103124819D02*
X100946195Y-103934342D01*
X100946195Y-103934342D02*
X100993814Y-104029580D01*
X100993814Y-104029580D02*
X101041433Y-104077200D01*
X101041433Y-104077200D02*
X101136671Y-104124819D01*
X101136671Y-104124819D02*
X101327147Y-104124819D01*
X101327147Y-104124819D02*
X101422385Y-104077200D01*
X101422385Y-104077200D02*
X101470004Y-104029580D01*
X101470004Y-104029580D02*
X101517623Y-103934342D01*
X101517623Y-103934342D02*
X101517623Y-103124819D01*
X102470004Y-103124819D02*
X101993814Y-103124819D01*
X101993814Y-103124819D02*
X101946195Y-103601009D01*
X101946195Y-103601009D02*
X101993814Y-103553390D01*
X101993814Y-103553390D02*
X102089052Y-103505771D01*
X102089052Y-103505771D02*
X102327147Y-103505771D01*
X102327147Y-103505771D02*
X102422385Y-103553390D01*
X102422385Y-103553390D02*
X102470004Y-103601009D01*
X102470004Y-103601009D02*
X102517623Y-103696247D01*
X102517623Y-103696247D02*
X102517623Y-103934342D01*
X102517623Y-103934342D02*
X102470004Y-104029580D01*
X102470004Y-104029580D02*
X102422385Y-104077200D01*
X102422385Y-104077200D02*
X102327147Y-104124819D01*
X102327147Y-104124819D02*
X102089052Y-104124819D01*
X102089052Y-104124819D02*
X101993814Y-104077200D01*
X101993814Y-104077200D02*
X101946195Y-104029580D01*
X124859580Y-109892857D02*
X124907200Y-109940476D01*
X124907200Y-109940476D02*
X124954819Y-110083333D01*
X124954819Y-110083333D02*
X124954819Y-110178571D01*
X124954819Y-110178571D02*
X124907200Y-110321428D01*
X124907200Y-110321428D02*
X124811961Y-110416666D01*
X124811961Y-110416666D02*
X124716723Y-110464285D01*
X124716723Y-110464285D02*
X124526247Y-110511904D01*
X124526247Y-110511904D02*
X124383390Y-110511904D01*
X124383390Y-110511904D02*
X124192914Y-110464285D01*
X124192914Y-110464285D02*
X124097676Y-110416666D01*
X124097676Y-110416666D02*
X124002438Y-110321428D01*
X124002438Y-110321428D02*
X123954819Y-110178571D01*
X123954819Y-110178571D02*
X123954819Y-110083333D01*
X123954819Y-110083333D02*
X124002438Y-109940476D01*
X124002438Y-109940476D02*
X124050057Y-109892857D01*
X123954819Y-109559523D02*
X123954819Y-108940476D01*
X123954819Y-108940476D02*
X124335771Y-109273809D01*
X124335771Y-109273809D02*
X124335771Y-109130952D01*
X124335771Y-109130952D02*
X124383390Y-109035714D01*
X124383390Y-109035714D02*
X124431009Y-108988095D01*
X124431009Y-108988095D02*
X124526247Y-108940476D01*
X124526247Y-108940476D02*
X124764342Y-108940476D01*
X124764342Y-108940476D02*
X124859580Y-108988095D01*
X124859580Y-108988095D02*
X124907200Y-109035714D01*
X124907200Y-109035714D02*
X124954819Y-109130952D01*
X124954819Y-109130952D02*
X124954819Y-109416666D01*
X124954819Y-109416666D02*
X124907200Y-109511904D01*
X124907200Y-109511904D02*
X124859580Y-109559523D01*
X124050057Y-108559523D02*
X124002438Y-108511904D01*
X124002438Y-108511904D02*
X123954819Y-108416666D01*
X123954819Y-108416666D02*
X123954819Y-108178571D01*
X123954819Y-108178571D02*
X124002438Y-108083333D01*
X124002438Y-108083333D02*
X124050057Y-108035714D01*
X124050057Y-108035714D02*
X124145295Y-107988095D01*
X124145295Y-107988095D02*
X124240533Y-107988095D01*
X124240533Y-107988095D02*
X124383390Y-108035714D01*
X124383390Y-108035714D02*
X124954819Y-108607142D01*
X124954819Y-108607142D02*
X124954819Y-107988095D01*
X135266666Y-65054819D02*
X135266666Y-65769104D01*
X135266666Y-65769104D02*
X135219047Y-65911961D01*
X135219047Y-65911961D02*
X135123809Y-66007200D01*
X135123809Y-66007200D02*
X134980952Y-66054819D01*
X134980952Y-66054819D02*
X134885714Y-66054819D01*
X135695238Y-65150057D02*
X135742857Y-65102438D01*
X135742857Y-65102438D02*
X135838095Y-65054819D01*
X135838095Y-65054819D02*
X136076190Y-65054819D01*
X136076190Y-65054819D02*
X136171428Y-65102438D01*
X136171428Y-65102438D02*
X136219047Y-65150057D01*
X136219047Y-65150057D02*
X136266666Y-65245295D01*
X136266666Y-65245295D02*
X136266666Y-65340533D01*
X136266666Y-65340533D02*
X136219047Y-65483390D01*
X136219047Y-65483390D02*
X135647619Y-66054819D01*
X135647619Y-66054819D02*
X136266666Y-66054819D01*
X113583333Y-76254819D02*
X113107143Y-76254819D01*
X113107143Y-76254819D02*
X113107143Y-75254819D01*
X114345238Y-75588152D02*
X114345238Y-76254819D01*
X114107143Y-75207200D02*
X113869048Y-75921485D01*
X113869048Y-75921485D02*
X114488095Y-75921485D01*
X109359580Y-62836666D02*
X109407200Y-62884285D01*
X109407200Y-62884285D02*
X109454819Y-63027142D01*
X109454819Y-63027142D02*
X109454819Y-63122380D01*
X109454819Y-63122380D02*
X109407200Y-63265237D01*
X109407200Y-63265237D02*
X109311961Y-63360475D01*
X109311961Y-63360475D02*
X109216723Y-63408094D01*
X109216723Y-63408094D02*
X109026247Y-63455713D01*
X109026247Y-63455713D02*
X108883390Y-63455713D01*
X108883390Y-63455713D02*
X108692914Y-63408094D01*
X108692914Y-63408094D02*
X108597676Y-63360475D01*
X108597676Y-63360475D02*
X108502438Y-63265237D01*
X108502438Y-63265237D02*
X108454819Y-63122380D01*
X108454819Y-63122380D02*
X108454819Y-63027142D01*
X108454819Y-63027142D02*
X108502438Y-62884285D01*
X108502438Y-62884285D02*
X108550057Y-62836666D01*
X108788152Y-61979523D02*
X109454819Y-61979523D01*
X108407200Y-62217618D02*
X109121485Y-62455713D01*
X109121485Y-62455713D02*
X109121485Y-61836666D01*
X112607142Y-67109580D02*
X112559523Y-67157200D01*
X112559523Y-67157200D02*
X112416666Y-67204819D01*
X112416666Y-67204819D02*
X112321428Y-67204819D01*
X112321428Y-67204819D02*
X112178571Y-67157200D01*
X112178571Y-67157200D02*
X112083333Y-67061961D01*
X112083333Y-67061961D02*
X112035714Y-66966723D01*
X112035714Y-66966723D02*
X111988095Y-66776247D01*
X111988095Y-66776247D02*
X111988095Y-66633390D01*
X111988095Y-66633390D02*
X112035714Y-66442914D01*
X112035714Y-66442914D02*
X112083333Y-66347676D01*
X112083333Y-66347676D02*
X112178571Y-66252438D01*
X112178571Y-66252438D02*
X112321428Y-66204819D01*
X112321428Y-66204819D02*
X112416666Y-66204819D01*
X112416666Y-66204819D02*
X112559523Y-66252438D01*
X112559523Y-66252438D02*
X112607142Y-66300057D01*
X113559523Y-67204819D02*
X112988095Y-67204819D01*
X113273809Y-67204819D02*
X113273809Y-66204819D01*
X113273809Y-66204819D02*
X113178571Y-66347676D01*
X113178571Y-66347676D02*
X113083333Y-66442914D01*
X113083333Y-66442914D02*
X112988095Y-66490533D01*
X114178571Y-66204819D02*
X114273809Y-66204819D01*
X114273809Y-66204819D02*
X114369047Y-66252438D01*
X114369047Y-66252438D02*
X114416666Y-66300057D01*
X114416666Y-66300057D02*
X114464285Y-66395295D01*
X114464285Y-66395295D02*
X114511904Y-66585771D01*
X114511904Y-66585771D02*
X114511904Y-66823866D01*
X114511904Y-66823866D02*
X114464285Y-67014342D01*
X114464285Y-67014342D02*
X114416666Y-67109580D01*
X114416666Y-67109580D02*
X114369047Y-67157200D01*
X114369047Y-67157200D02*
X114273809Y-67204819D01*
X114273809Y-67204819D02*
X114178571Y-67204819D01*
X114178571Y-67204819D02*
X114083333Y-67157200D01*
X114083333Y-67157200D02*
X114035714Y-67109580D01*
X114035714Y-67109580D02*
X113988095Y-67014342D01*
X113988095Y-67014342D02*
X113940476Y-66823866D01*
X113940476Y-66823866D02*
X113940476Y-66585771D01*
X113940476Y-66585771D02*
X113988095Y-66395295D01*
X113988095Y-66395295D02*
X114035714Y-66300057D01*
X114035714Y-66300057D02*
X114083333Y-66252438D01*
X114083333Y-66252438D02*
X114178571Y-66204819D01*
X109109580Y-94392857D02*
X109157200Y-94440476D01*
X109157200Y-94440476D02*
X109204819Y-94583333D01*
X109204819Y-94583333D02*
X109204819Y-94678571D01*
X109204819Y-94678571D02*
X109157200Y-94821428D01*
X109157200Y-94821428D02*
X109061961Y-94916666D01*
X109061961Y-94916666D02*
X108966723Y-94964285D01*
X108966723Y-94964285D02*
X108776247Y-95011904D01*
X108776247Y-95011904D02*
X108633390Y-95011904D01*
X108633390Y-95011904D02*
X108442914Y-94964285D01*
X108442914Y-94964285D02*
X108347676Y-94916666D01*
X108347676Y-94916666D02*
X108252438Y-94821428D01*
X108252438Y-94821428D02*
X108204819Y-94678571D01*
X108204819Y-94678571D02*
X108204819Y-94583333D01*
X108204819Y-94583333D02*
X108252438Y-94440476D01*
X108252438Y-94440476D02*
X108300057Y-94392857D01*
X108300057Y-94011904D02*
X108252438Y-93964285D01*
X108252438Y-93964285D02*
X108204819Y-93869047D01*
X108204819Y-93869047D02*
X108204819Y-93630952D01*
X108204819Y-93630952D02*
X108252438Y-93535714D01*
X108252438Y-93535714D02*
X108300057Y-93488095D01*
X108300057Y-93488095D02*
X108395295Y-93440476D01*
X108395295Y-93440476D02*
X108490533Y-93440476D01*
X108490533Y-93440476D02*
X108633390Y-93488095D01*
X108633390Y-93488095D02*
X109204819Y-94059523D01*
X109204819Y-94059523D02*
X109204819Y-93440476D01*
X109204819Y-92964285D02*
X109204819Y-92773809D01*
X109204819Y-92773809D02*
X109157200Y-92678571D01*
X109157200Y-92678571D02*
X109109580Y-92630952D01*
X109109580Y-92630952D02*
X108966723Y-92535714D01*
X108966723Y-92535714D02*
X108776247Y-92488095D01*
X108776247Y-92488095D02*
X108395295Y-92488095D01*
X108395295Y-92488095D02*
X108300057Y-92535714D01*
X108300057Y-92535714D02*
X108252438Y-92583333D01*
X108252438Y-92583333D02*
X108204819Y-92678571D01*
X108204819Y-92678571D02*
X108204819Y-92869047D01*
X108204819Y-92869047D02*
X108252438Y-92964285D01*
X108252438Y-92964285D02*
X108300057Y-93011904D01*
X108300057Y-93011904D02*
X108395295Y-93059523D01*
X108395295Y-93059523D02*
X108633390Y-93059523D01*
X108633390Y-93059523D02*
X108728628Y-93011904D01*
X108728628Y-93011904D02*
X108776247Y-92964285D01*
X108776247Y-92964285D02*
X108823866Y-92869047D01*
X108823866Y-92869047D02*
X108823866Y-92678571D01*
X108823866Y-92678571D02*
X108776247Y-92583333D01*
X108776247Y-92583333D02*
X108728628Y-92535714D01*
X108728628Y-92535714D02*
X108633390Y-92488095D01*
X110833333Y-58859580D02*
X110785714Y-58907200D01*
X110785714Y-58907200D02*
X110642857Y-58954819D01*
X110642857Y-58954819D02*
X110547619Y-58954819D01*
X110547619Y-58954819D02*
X110404762Y-58907200D01*
X110404762Y-58907200D02*
X110309524Y-58811961D01*
X110309524Y-58811961D02*
X110261905Y-58716723D01*
X110261905Y-58716723D02*
X110214286Y-58526247D01*
X110214286Y-58526247D02*
X110214286Y-58383390D01*
X110214286Y-58383390D02*
X110261905Y-58192914D01*
X110261905Y-58192914D02*
X110309524Y-58097676D01*
X110309524Y-58097676D02*
X110404762Y-58002438D01*
X110404762Y-58002438D02*
X110547619Y-57954819D01*
X110547619Y-57954819D02*
X110642857Y-57954819D01*
X110642857Y-57954819D02*
X110785714Y-58002438D01*
X110785714Y-58002438D02*
X110833333Y-58050057D01*
X111166667Y-57954819D02*
X111833333Y-57954819D01*
X111833333Y-57954819D02*
X111404762Y-58954819D01*
X119333333Y-76254819D02*
X118857143Y-76254819D01*
X118857143Y-76254819D02*
X118857143Y-75254819D01*
X119571429Y-75254819D02*
X120190476Y-75254819D01*
X120190476Y-75254819D02*
X119857143Y-75635771D01*
X119857143Y-75635771D02*
X120000000Y-75635771D01*
X120000000Y-75635771D02*
X120095238Y-75683390D01*
X120095238Y-75683390D02*
X120142857Y-75731009D01*
X120142857Y-75731009D02*
X120190476Y-75826247D01*
X120190476Y-75826247D02*
X120190476Y-76064342D01*
X120190476Y-76064342D02*
X120142857Y-76159580D01*
X120142857Y-76159580D02*
X120095238Y-76207200D01*
X120095238Y-76207200D02*
X120000000Y-76254819D01*
X120000000Y-76254819D02*
X119714286Y-76254819D01*
X119714286Y-76254819D02*
X119619048Y-76207200D01*
X119619048Y-76207200D02*
X119571429Y-76159580D01*
X100946195Y-72124819D02*
X100946195Y-72934342D01*
X100946195Y-72934342D02*
X100993814Y-73029580D01*
X100993814Y-73029580D02*
X101041433Y-73077200D01*
X101041433Y-73077200D02*
X101136671Y-73124819D01*
X101136671Y-73124819D02*
X101327147Y-73124819D01*
X101327147Y-73124819D02*
X101422385Y-73077200D01*
X101422385Y-73077200D02*
X101470004Y-73029580D01*
X101470004Y-73029580D02*
X101517623Y-72934342D01*
X101517623Y-72934342D02*
X101517623Y-72124819D01*
X101946195Y-72220057D02*
X101993814Y-72172438D01*
X101993814Y-72172438D02*
X102089052Y-72124819D01*
X102089052Y-72124819D02*
X102327147Y-72124819D01*
X102327147Y-72124819D02*
X102422385Y-72172438D01*
X102422385Y-72172438D02*
X102470004Y-72220057D01*
X102470004Y-72220057D02*
X102517623Y-72315295D01*
X102517623Y-72315295D02*
X102517623Y-72410533D01*
X102517623Y-72410533D02*
X102470004Y-72553390D01*
X102470004Y-72553390D02*
X101898576Y-73124819D01*
X101898576Y-73124819D02*
X102517623Y-73124819D01*
X124083333Y-58859580D02*
X124035714Y-58907200D01*
X124035714Y-58907200D02*
X123892857Y-58954819D01*
X123892857Y-58954819D02*
X123797619Y-58954819D01*
X123797619Y-58954819D02*
X123654762Y-58907200D01*
X123654762Y-58907200D02*
X123559524Y-58811961D01*
X123559524Y-58811961D02*
X123511905Y-58716723D01*
X123511905Y-58716723D02*
X123464286Y-58526247D01*
X123464286Y-58526247D02*
X123464286Y-58383390D01*
X123464286Y-58383390D02*
X123511905Y-58192914D01*
X123511905Y-58192914D02*
X123559524Y-58097676D01*
X123559524Y-58097676D02*
X123654762Y-58002438D01*
X123654762Y-58002438D02*
X123797619Y-57954819D01*
X123797619Y-57954819D02*
X123892857Y-57954819D01*
X123892857Y-57954819D02*
X124035714Y-58002438D01*
X124035714Y-58002438D02*
X124083333Y-58050057D01*
X124940476Y-57954819D02*
X124750000Y-57954819D01*
X124750000Y-57954819D02*
X124654762Y-58002438D01*
X124654762Y-58002438D02*
X124607143Y-58050057D01*
X124607143Y-58050057D02*
X124511905Y-58192914D01*
X124511905Y-58192914D02*
X124464286Y-58383390D01*
X124464286Y-58383390D02*
X124464286Y-58764342D01*
X124464286Y-58764342D02*
X124511905Y-58859580D01*
X124511905Y-58859580D02*
X124559524Y-58907200D01*
X124559524Y-58907200D02*
X124654762Y-58954819D01*
X124654762Y-58954819D02*
X124845238Y-58954819D01*
X124845238Y-58954819D02*
X124940476Y-58907200D01*
X124940476Y-58907200D02*
X124988095Y-58859580D01*
X124988095Y-58859580D02*
X125035714Y-58764342D01*
X125035714Y-58764342D02*
X125035714Y-58526247D01*
X125035714Y-58526247D02*
X124988095Y-58431009D01*
X124988095Y-58431009D02*
X124940476Y-58383390D01*
X124940476Y-58383390D02*
X124845238Y-58335771D01*
X124845238Y-58335771D02*
X124654762Y-58335771D01*
X124654762Y-58335771D02*
X124559524Y-58383390D01*
X124559524Y-58383390D02*
X124511905Y-58431009D01*
X124511905Y-58431009D02*
X124464286Y-58526247D01*
X134107142Y-95489580D02*
X134059523Y-95537200D01*
X134059523Y-95537200D02*
X133916666Y-95584819D01*
X133916666Y-95584819D02*
X133821428Y-95584819D01*
X133821428Y-95584819D02*
X133678571Y-95537200D01*
X133678571Y-95537200D02*
X133583333Y-95441961D01*
X133583333Y-95441961D02*
X133535714Y-95346723D01*
X133535714Y-95346723D02*
X133488095Y-95156247D01*
X133488095Y-95156247D02*
X133488095Y-95013390D01*
X133488095Y-95013390D02*
X133535714Y-94822914D01*
X133535714Y-94822914D02*
X133583333Y-94727676D01*
X133583333Y-94727676D02*
X133678571Y-94632438D01*
X133678571Y-94632438D02*
X133821428Y-94584819D01*
X133821428Y-94584819D02*
X133916666Y-94584819D01*
X133916666Y-94584819D02*
X134059523Y-94632438D01*
X134059523Y-94632438D02*
X134107142Y-94680057D01*
X134488095Y-94680057D02*
X134535714Y-94632438D01*
X134535714Y-94632438D02*
X134630952Y-94584819D01*
X134630952Y-94584819D02*
X134869047Y-94584819D01*
X134869047Y-94584819D02*
X134964285Y-94632438D01*
X134964285Y-94632438D02*
X135011904Y-94680057D01*
X135011904Y-94680057D02*
X135059523Y-94775295D01*
X135059523Y-94775295D02*
X135059523Y-94870533D01*
X135059523Y-94870533D02*
X135011904Y-95013390D01*
X135011904Y-95013390D02*
X134440476Y-95584819D01*
X134440476Y-95584819D02*
X135059523Y-95584819D01*
X135678571Y-94584819D02*
X135773809Y-94584819D01*
X135773809Y-94584819D02*
X135869047Y-94632438D01*
X135869047Y-94632438D02*
X135916666Y-94680057D01*
X135916666Y-94680057D02*
X135964285Y-94775295D01*
X135964285Y-94775295D02*
X136011904Y-94965771D01*
X136011904Y-94965771D02*
X136011904Y-95203866D01*
X136011904Y-95203866D02*
X135964285Y-95394342D01*
X135964285Y-95394342D02*
X135916666Y-95489580D01*
X135916666Y-95489580D02*
X135869047Y-95537200D01*
X135869047Y-95537200D02*
X135773809Y-95584819D01*
X135773809Y-95584819D02*
X135678571Y-95584819D01*
X135678571Y-95584819D02*
X135583333Y-95537200D01*
X135583333Y-95537200D02*
X135535714Y-95489580D01*
X135535714Y-95489580D02*
X135488095Y-95394342D01*
X135488095Y-95394342D02*
X135440476Y-95203866D01*
X135440476Y-95203866D02*
X135440476Y-94965771D01*
X135440476Y-94965771D02*
X135488095Y-94775295D01*
X135488095Y-94775295D02*
X135535714Y-94680057D01*
X135535714Y-94680057D02*
X135583333Y-94632438D01*
X135583333Y-94632438D02*
X135678571Y-94584819D01*
X94497680Y-62086666D02*
X94545300Y-62134285D01*
X94545300Y-62134285D02*
X94592919Y-62277142D01*
X94592919Y-62277142D02*
X94592919Y-62372380D01*
X94592919Y-62372380D02*
X94545300Y-62515237D01*
X94545300Y-62515237D02*
X94450061Y-62610475D01*
X94450061Y-62610475D02*
X94354823Y-62658094D01*
X94354823Y-62658094D02*
X94164347Y-62705713D01*
X94164347Y-62705713D02*
X94021490Y-62705713D01*
X94021490Y-62705713D02*
X93831014Y-62658094D01*
X93831014Y-62658094D02*
X93735776Y-62610475D01*
X93735776Y-62610475D02*
X93640538Y-62515237D01*
X93640538Y-62515237D02*
X93592919Y-62372380D01*
X93592919Y-62372380D02*
X93592919Y-62277142D01*
X93592919Y-62277142D02*
X93640538Y-62134285D01*
X93640538Y-62134285D02*
X93688157Y-62086666D01*
X94592919Y-61134285D02*
X94592919Y-61705713D01*
X94592919Y-61419999D02*
X93592919Y-61419999D01*
X93592919Y-61419999D02*
X93735776Y-61515237D01*
X93735776Y-61515237D02*
X93831014Y-61610475D01*
X93831014Y-61610475D02*
X93878633Y-61705713D01*
X100904295Y-56624819D02*
X100904295Y-57434342D01*
X100904295Y-57434342D02*
X100951914Y-57529580D01*
X100951914Y-57529580D02*
X100999533Y-57577200D01*
X100999533Y-57577200D02*
X101094771Y-57624819D01*
X101094771Y-57624819D02*
X101285247Y-57624819D01*
X101285247Y-57624819D02*
X101380485Y-57577200D01*
X101380485Y-57577200D02*
X101428104Y-57529580D01*
X101428104Y-57529580D02*
X101475723Y-57434342D01*
X101475723Y-57434342D02*
X101475723Y-56624819D01*
X102475723Y-57624819D02*
X101904295Y-57624819D01*
X102190009Y-57624819D02*
X102190009Y-56624819D01*
X102190009Y-56624819D02*
X102094771Y-56767676D01*
X102094771Y-56767676D02*
X101999533Y-56862914D01*
X101999533Y-56862914D02*
X101904295Y-56910533D01*
X125359580Y-62836666D02*
X125407200Y-62884285D01*
X125407200Y-62884285D02*
X125454819Y-63027142D01*
X125454819Y-63027142D02*
X125454819Y-63122380D01*
X125454819Y-63122380D02*
X125407200Y-63265237D01*
X125407200Y-63265237D02*
X125311961Y-63360475D01*
X125311961Y-63360475D02*
X125216723Y-63408094D01*
X125216723Y-63408094D02*
X125026247Y-63455713D01*
X125026247Y-63455713D02*
X124883390Y-63455713D01*
X124883390Y-63455713D02*
X124692914Y-63408094D01*
X124692914Y-63408094D02*
X124597676Y-63360475D01*
X124597676Y-63360475D02*
X124502438Y-63265237D01*
X124502438Y-63265237D02*
X124454819Y-63122380D01*
X124454819Y-63122380D02*
X124454819Y-63027142D01*
X124454819Y-63027142D02*
X124502438Y-62884285D01*
X124502438Y-62884285D02*
X124550057Y-62836666D01*
X124883390Y-62265237D02*
X124835771Y-62360475D01*
X124835771Y-62360475D02*
X124788152Y-62408094D01*
X124788152Y-62408094D02*
X124692914Y-62455713D01*
X124692914Y-62455713D02*
X124645295Y-62455713D01*
X124645295Y-62455713D02*
X124550057Y-62408094D01*
X124550057Y-62408094D02*
X124502438Y-62360475D01*
X124502438Y-62360475D02*
X124454819Y-62265237D01*
X124454819Y-62265237D02*
X124454819Y-62074761D01*
X124454819Y-62074761D02*
X124502438Y-61979523D01*
X124502438Y-61979523D02*
X124550057Y-61931904D01*
X124550057Y-61931904D02*
X124645295Y-61884285D01*
X124645295Y-61884285D02*
X124692914Y-61884285D01*
X124692914Y-61884285D02*
X124788152Y-61931904D01*
X124788152Y-61931904D02*
X124835771Y-61979523D01*
X124835771Y-61979523D02*
X124883390Y-62074761D01*
X124883390Y-62074761D02*
X124883390Y-62265237D01*
X124883390Y-62265237D02*
X124931009Y-62360475D01*
X124931009Y-62360475D02*
X124978628Y-62408094D01*
X124978628Y-62408094D02*
X125073866Y-62455713D01*
X125073866Y-62455713D02*
X125264342Y-62455713D01*
X125264342Y-62455713D02*
X125359580Y-62408094D01*
X125359580Y-62408094D02*
X125407200Y-62360475D01*
X125407200Y-62360475D02*
X125454819Y-62265237D01*
X125454819Y-62265237D02*
X125454819Y-62074761D01*
X125454819Y-62074761D02*
X125407200Y-61979523D01*
X125407200Y-61979523D02*
X125359580Y-61931904D01*
X125359580Y-61931904D02*
X125264342Y-61884285D01*
X125264342Y-61884285D02*
X125073866Y-61884285D01*
X125073866Y-61884285D02*
X124978628Y-61931904D01*
X124978628Y-61931904D02*
X124931009Y-61979523D01*
X124931009Y-61979523D02*
X124883390Y-62074761D01*
X124107142Y-74359580D02*
X124059523Y-74407200D01*
X124059523Y-74407200D02*
X123916666Y-74454819D01*
X123916666Y-74454819D02*
X123821428Y-74454819D01*
X123821428Y-74454819D02*
X123678571Y-74407200D01*
X123678571Y-74407200D02*
X123583333Y-74311961D01*
X123583333Y-74311961D02*
X123535714Y-74216723D01*
X123535714Y-74216723D02*
X123488095Y-74026247D01*
X123488095Y-74026247D02*
X123488095Y-73883390D01*
X123488095Y-73883390D02*
X123535714Y-73692914D01*
X123535714Y-73692914D02*
X123583333Y-73597676D01*
X123583333Y-73597676D02*
X123678571Y-73502438D01*
X123678571Y-73502438D02*
X123821428Y-73454819D01*
X123821428Y-73454819D02*
X123916666Y-73454819D01*
X123916666Y-73454819D02*
X124059523Y-73502438D01*
X124059523Y-73502438D02*
X124107142Y-73550057D01*
X125059523Y-74454819D02*
X124488095Y-74454819D01*
X124773809Y-74454819D02*
X124773809Y-73454819D01*
X124773809Y-73454819D02*
X124678571Y-73597676D01*
X124678571Y-73597676D02*
X124583333Y-73692914D01*
X124583333Y-73692914D02*
X124488095Y-73740533D01*
X125392857Y-73454819D02*
X126011904Y-73454819D01*
X126011904Y-73454819D02*
X125678571Y-73835771D01*
X125678571Y-73835771D02*
X125821428Y-73835771D01*
X125821428Y-73835771D02*
X125916666Y-73883390D01*
X125916666Y-73883390D02*
X125964285Y-73931009D01*
X125964285Y-73931009D02*
X126011904Y-74026247D01*
X126011904Y-74026247D02*
X126011904Y-74264342D01*
X126011904Y-74264342D02*
X125964285Y-74359580D01*
X125964285Y-74359580D02*
X125916666Y-74407200D01*
X125916666Y-74407200D02*
X125821428Y-74454819D01*
X125821428Y-74454819D02*
X125535714Y-74454819D01*
X125535714Y-74454819D02*
X125440476Y-74407200D01*
X125440476Y-74407200D02*
X125392857Y-74359580D01*
X112607142Y-82609580D02*
X112559523Y-82657200D01*
X112559523Y-82657200D02*
X112416666Y-82704819D01*
X112416666Y-82704819D02*
X112321428Y-82704819D01*
X112321428Y-82704819D02*
X112178571Y-82657200D01*
X112178571Y-82657200D02*
X112083333Y-82561961D01*
X112083333Y-82561961D02*
X112035714Y-82466723D01*
X112035714Y-82466723D02*
X111988095Y-82276247D01*
X111988095Y-82276247D02*
X111988095Y-82133390D01*
X111988095Y-82133390D02*
X112035714Y-81942914D01*
X112035714Y-81942914D02*
X112083333Y-81847676D01*
X112083333Y-81847676D02*
X112178571Y-81752438D01*
X112178571Y-81752438D02*
X112321428Y-81704819D01*
X112321428Y-81704819D02*
X112416666Y-81704819D01*
X112416666Y-81704819D02*
X112559523Y-81752438D01*
X112559523Y-81752438D02*
X112607142Y-81800057D01*
X112988095Y-81800057D02*
X113035714Y-81752438D01*
X113035714Y-81752438D02*
X113130952Y-81704819D01*
X113130952Y-81704819D02*
X113369047Y-81704819D01*
X113369047Y-81704819D02*
X113464285Y-81752438D01*
X113464285Y-81752438D02*
X113511904Y-81800057D01*
X113511904Y-81800057D02*
X113559523Y-81895295D01*
X113559523Y-81895295D02*
X113559523Y-81990533D01*
X113559523Y-81990533D02*
X113511904Y-82133390D01*
X113511904Y-82133390D02*
X112940476Y-82704819D01*
X112940476Y-82704819D02*
X113559523Y-82704819D01*
X114416666Y-82038152D02*
X114416666Y-82704819D01*
X114178571Y-81657200D02*
X113940476Y-82371485D01*
X113940476Y-82371485D02*
X114559523Y-82371485D01*
X113404761Y-53300057D02*
X113309523Y-53252438D01*
X113309523Y-53252438D02*
X113214285Y-53157200D01*
X113214285Y-53157200D02*
X113071428Y-53014342D01*
X113071428Y-53014342D02*
X112976190Y-52966723D01*
X112976190Y-52966723D02*
X112880952Y-52966723D01*
X112928571Y-53204819D02*
X112833333Y-53157200D01*
X112833333Y-53157200D02*
X112738095Y-53061961D01*
X112738095Y-53061961D02*
X112690476Y-52871485D01*
X112690476Y-52871485D02*
X112690476Y-52538152D01*
X112690476Y-52538152D02*
X112738095Y-52347676D01*
X112738095Y-52347676D02*
X112833333Y-52252438D01*
X112833333Y-52252438D02*
X112928571Y-52204819D01*
X112928571Y-52204819D02*
X113119047Y-52204819D01*
X113119047Y-52204819D02*
X113214285Y-52252438D01*
X113214285Y-52252438D02*
X113309523Y-52347676D01*
X113309523Y-52347676D02*
X113357142Y-52538152D01*
X113357142Y-52538152D02*
X113357142Y-52871485D01*
X113357142Y-52871485D02*
X113309523Y-53061961D01*
X113309523Y-53061961D02*
X113214285Y-53157200D01*
X113214285Y-53157200D02*
X113119047Y-53204819D01*
X113119047Y-53204819D02*
X112928571Y-53204819D01*
X114309523Y-53204819D02*
X113738095Y-53204819D01*
X114023809Y-53204819D02*
X114023809Y-52204819D01*
X114023809Y-52204819D02*
X113928571Y-52347676D01*
X113928571Y-52347676D02*
X113833333Y-52442914D01*
X113833333Y-52442914D02*
X113738095Y-52490533D01*
X109109580Y-109892857D02*
X109157200Y-109940476D01*
X109157200Y-109940476D02*
X109204819Y-110083333D01*
X109204819Y-110083333D02*
X109204819Y-110178571D01*
X109204819Y-110178571D02*
X109157200Y-110321428D01*
X109157200Y-110321428D02*
X109061961Y-110416666D01*
X109061961Y-110416666D02*
X108966723Y-110464285D01*
X108966723Y-110464285D02*
X108776247Y-110511904D01*
X108776247Y-110511904D02*
X108633390Y-110511904D01*
X108633390Y-110511904D02*
X108442914Y-110464285D01*
X108442914Y-110464285D02*
X108347676Y-110416666D01*
X108347676Y-110416666D02*
X108252438Y-110321428D01*
X108252438Y-110321428D02*
X108204819Y-110178571D01*
X108204819Y-110178571D02*
X108204819Y-110083333D01*
X108204819Y-110083333D02*
X108252438Y-109940476D01*
X108252438Y-109940476D02*
X108300057Y-109892857D01*
X108204819Y-109559523D02*
X108204819Y-108940476D01*
X108204819Y-108940476D02*
X108585771Y-109273809D01*
X108585771Y-109273809D02*
X108585771Y-109130952D01*
X108585771Y-109130952D02*
X108633390Y-109035714D01*
X108633390Y-109035714D02*
X108681009Y-108988095D01*
X108681009Y-108988095D02*
X108776247Y-108940476D01*
X108776247Y-108940476D02*
X109014342Y-108940476D01*
X109014342Y-108940476D02*
X109109580Y-108988095D01*
X109109580Y-108988095D02*
X109157200Y-109035714D01*
X109157200Y-109035714D02*
X109204819Y-109130952D01*
X109204819Y-109130952D02*
X109204819Y-109416666D01*
X109204819Y-109416666D02*
X109157200Y-109511904D01*
X109157200Y-109511904D02*
X109109580Y-109559523D01*
X108204819Y-108083333D02*
X108204819Y-108273809D01*
X108204819Y-108273809D02*
X108252438Y-108369047D01*
X108252438Y-108369047D02*
X108300057Y-108416666D01*
X108300057Y-108416666D02*
X108442914Y-108511904D01*
X108442914Y-108511904D02*
X108633390Y-108559523D01*
X108633390Y-108559523D02*
X109014342Y-108559523D01*
X109014342Y-108559523D02*
X109109580Y-108511904D01*
X109109580Y-108511904D02*
X109157200Y-108464285D01*
X109157200Y-108464285D02*
X109204819Y-108369047D01*
X109204819Y-108369047D02*
X109204819Y-108178571D01*
X109204819Y-108178571D02*
X109157200Y-108083333D01*
X109157200Y-108083333D02*
X109109580Y-108035714D01*
X109109580Y-108035714D02*
X109014342Y-107988095D01*
X109014342Y-107988095D02*
X108776247Y-107988095D01*
X108776247Y-107988095D02*
X108681009Y-108035714D01*
X108681009Y-108035714D02*
X108633390Y-108083333D01*
X108633390Y-108083333D02*
X108585771Y-108178571D01*
X108585771Y-108178571D02*
X108585771Y-108369047D01*
X108585771Y-108369047D02*
X108633390Y-108464285D01*
X108633390Y-108464285D02*
X108681009Y-108511904D01*
X108681009Y-108511904D02*
X108776247Y-108559523D01*
X139859580Y-83092857D02*
X139907200Y-83140476D01*
X139907200Y-83140476D02*
X139954819Y-83283333D01*
X139954819Y-83283333D02*
X139954819Y-83378571D01*
X139954819Y-83378571D02*
X139907200Y-83521428D01*
X139907200Y-83521428D02*
X139811961Y-83616666D01*
X139811961Y-83616666D02*
X139716723Y-83664285D01*
X139716723Y-83664285D02*
X139526247Y-83711904D01*
X139526247Y-83711904D02*
X139383390Y-83711904D01*
X139383390Y-83711904D02*
X139192914Y-83664285D01*
X139192914Y-83664285D02*
X139097676Y-83616666D01*
X139097676Y-83616666D02*
X139002438Y-83521428D01*
X139002438Y-83521428D02*
X138954819Y-83378571D01*
X138954819Y-83378571D02*
X138954819Y-83283333D01*
X138954819Y-83283333D02*
X139002438Y-83140476D01*
X139002438Y-83140476D02*
X139050057Y-83092857D01*
X139954819Y-82140476D02*
X139954819Y-82711904D01*
X139954819Y-82426190D02*
X138954819Y-82426190D01*
X138954819Y-82426190D02*
X139097676Y-82521428D01*
X139097676Y-82521428D02*
X139192914Y-82616666D01*
X139192914Y-82616666D02*
X139240533Y-82711904D01*
X138954819Y-81283333D02*
X138954819Y-81473809D01*
X138954819Y-81473809D02*
X139002438Y-81569047D01*
X139002438Y-81569047D02*
X139050057Y-81616666D01*
X139050057Y-81616666D02*
X139192914Y-81711904D01*
X139192914Y-81711904D02*
X139383390Y-81759523D01*
X139383390Y-81759523D02*
X139764342Y-81759523D01*
X139764342Y-81759523D02*
X139859580Y-81711904D01*
X139859580Y-81711904D02*
X139907200Y-81664285D01*
X139907200Y-81664285D02*
X139954819Y-81569047D01*
X139954819Y-81569047D02*
X139954819Y-81378571D01*
X139954819Y-81378571D02*
X139907200Y-81283333D01*
X139907200Y-81283333D02*
X139859580Y-81235714D01*
X139859580Y-81235714D02*
X139764342Y-81188095D01*
X139764342Y-81188095D02*
X139526247Y-81188095D01*
X139526247Y-81188095D02*
X139431009Y-81235714D01*
X139431009Y-81235714D02*
X139383390Y-81283333D01*
X139383390Y-81283333D02*
X139335771Y-81378571D01*
X139335771Y-81378571D02*
X139335771Y-81569047D01*
X139335771Y-81569047D02*
X139383390Y-81664285D01*
X139383390Y-81664285D02*
X139431009Y-81711904D01*
X139431009Y-81711904D02*
X139526247Y-81759523D01*
X139859580Y-90842857D02*
X139907200Y-90890476D01*
X139907200Y-90890476D02*
X139954819Y-91033333D01*
X139954819Y-91033333D02*
X139954819Y-91128571D01*
X139954819Y-91128571D02*
X139907200Y-91271428D01*
X139907200Y-91271428D02*
X139811961Y-91366666D01*
X139811961Y-91366666D02*
X139716723Y-91414285D01*
X139716723Y-91414285D02*
X139526247Y-91461904D01*
X139526247Y-91461904D02*
X139383390Y-91461904D01*
X139383390Y-91461904D02*
X139192914Y-91414285D01*
X139192914Y-91414285D02*
X139097676Y-91366666D01*
X139097676Y-91366666D02*
X139002438Y-91271428D01*
X139002438Y-91271428D02*
X138954819Y-91128571D01*
X138954819Y-91128571D02*
X138954819Y-91033333D01*
X138954819Y-91033333D02*
X139002438Y-90890476D01*
X139002438Y-90890476D02*
X139050057Y-90842857D01*
X139954819Y-89890476D02*
X139954819Y-90461904D01*
X139954819Y-90176190D02*
X138954819Y-90176190D01*
X138954819Y-90176190D02*
X139097676Y-90271428D01*
X139097676Y-90271428D02*
X139192914Y-90366666D01*
X139192914Y-90366666D02*
X139240533Y-90461904D01*
X138954819Y-89557142D02*
X138954819Y-88890476D01*
X138954819Y-88890476D02*
X139954819Y-89319047D01*
X84854766Y-48654819D02*
X84854766Y-49369104D01*
X84854766Y-49369104D02*
X84807147Y-49511961D01*
X84807147Y-49511961D02*
X84711909Y-49607200D01*
X84711909Y-49607200D02*
X84569052Y-49654819D01*
X84569052Y-49654819D02*
X84473814Y-49654819D01*
X85235719Y-48654819D02*
X85854766Y-48654819D01*
X85854766Y-48654819D02*
X85521433Y-49035771D01*
X85521433Y-49035771D02*
X85664290Y-49035771D01*
X85664290Y-49035771D02*
X85759528Y-49083390D01*
X85759528Y-49083390D02*
X85807147Y-49131009D01*
X85807147Y-49131009D02*
X85854766Y-49226247D01*
X85854766Y-49226247D02*
X85854766Y-49464342D01*
X85854766Y-49464342D02*
X85807147Y-49559580D01*
X85807147Y-49559580D02*
X85759528Y-49607200D01*
X85759528Y-49607200D02*
X85664290Y-49654819D01*
X85664290Y-49654819D02*
X85378576Y-49654819D01*
X85378576Y-49654819D02*
X85283338Y-49607200D01*
X85283338Y-49607200D02*
X85235719Y-49559580D01*
X125609580Y-94642857D02*
X125657200Y-94690476D01*
X125657200Y-94690476D02*
X125704819Y-94833333D01*
X125704819Y-94833333D02*
X125704819Y-94928571D01*
X125704819Y-94928571D02*
X125657200Y-95071428D01*
X125657200Y-95071428D02*
X125561961Y-95166666D01*
X125561961Y-95166666D02*
X125466723Y-95214285D01*
X125466723Y-95214285D02*
X125276247Y-95261904D01*
X125276247Y-95261904D02*
X125133390Y-95261904D01*
X125133390Y-95261904D02*
X124942914Y-95214285D01*
X124942914Y-95214285D02*
X124847676Y-95166666D01*
X124847676Y-95166666D02*
X124752438Y-95071428D01*
X124752438Y-95071428D02*
X124704819Y-94928571D01*
X124704819Y-94928571D02*
X124704819Y-94833333D01*
X124704819Y-94833333D02*
X124752438Y-94690476D01*
X124752438Y-94690476D02*
X124800057Y-94642857D01*
X124800057Y-94261904D02*
X124752438Y-94214285D01*
X124752438Y-94214285D02*
X124704819Y-94119047D01*
X124704819Y-94119047D02*
X124704819Y-93880952D01*
X124704819Y-93880952D02*
X124752438Y-93785714D01*
X124752438Y-93785714D02*
X124800057Y-93738095D01*
X124800057Y-93738095D02*
X124895295Y-93690476D01*
X124895295Y-93690476D02*
X124990533Y-93690476D01*
X124990533Y-93690476D02*
X125133390Y-93738095D01*
X125133390Y-93738095D02*
X125704819Y-94309523D01*
X125704819Y-94309523D02*
X125704819Y-93690476D01*
X124704819Y-92785714D02*
X124704819Y-93261904D01*
X124704819Y-93261904D02*
X125181009Y-93309523D01*
X125181009Y-93309523D02*
X125133390Y-93261904D01*
X125133390Y-93261904D02*
X125085771Y-93166666D01*
X125085771Y-93166666D02*
X125085771Y-92928571D01*
X125085771Y-92928571D02*
X125133390Y-92833333D01*
X125133390Y-92833333D02*
X125181009Y-92785714D01*
X125181009Y-92785714D02*
X125276247Y-92738095D01*
X125276247Y-92738095D02*
X125514342Y-92738095D01*
X125514342Y-92738095D02*
X125609580Y-92785714D01*
X125609580Y-92785714D02*
X125657200Y-92833333D01*
X125657200Y-92833333D02*
X125704819Y-92928571D01*
X125704819Y-92928571D02*
X125704819Y-93166666D01*
X125704819Y-93166666D02*
X125657200Y-93261904D01*
X125657200Y-93261904D02*
X125609580Y-93309523D01*
X132654819Y-82566666D02*
X132654819Y-83042856D01*
X132654819Y-83042856D02*
X131654819Y-83042856D01*
X131654819Y-81757142D02*
X131654819Y-82233332D01*
X131654819Y-82233332D02*
X132131009Y-82280951D01*
X132131009Y-82280951D02*
X132083390Y-82233332D01*
X132083390Y-82233332D02*
X132035771Y-82138094D01*
X132035771Y-82138094D02*
X132035771Y-81899999D01*
X132035771Y-81899999D02*
X132083390Y-81804761D01*
X132083390Y-81804761D02*
X132131009Y-81757142D01*
X132131009Y-81757142D02*
X132226247Y-81709523D01*
X132226247Y-81709523D02*
X132464342Y-81709523D01*
X132464342Y-81709523D02*
X132559580Y-81757142D01*
X132559580Y-81757142D02*
X132607200Y-81804761D01*
X132607200Y-81804761D02*
X132654819Y-81899999D01*
X132654819Y-81899999D02*
X132654819Y-82138094D01*
X132654819Y-82138094D02*
X132607200Y-82233332D01*
X132607200Y-82233332D02*
X132559580Y-82280951D01*
D11*
%TO.C,R4*%
X119475000Y-101977064D02*
X119475000Y-101522936D01*
X120945000Y-101977064D02*
X120945000Y-101522936D01*
%TO.C,R3*%
X119585000Y-86507064D02*
X119585000Y-86052936D01*
X121055000Y-86507064D02*
X121055000Y-86052936D01*
%TO.C,R2*%
X120815000Y-70947064D02*
X120815000Y-70492936D01*
X119345000Y-70947064D02*
X119345000Y-70492936D01*
%TO.C,R1*%
X119495000Y-55377064D02*
X119495000Y-54922936D01*
X120965000Y-55377064D02*
X120965000Y-54922936D01*
%TO.C,C15*%
X111235000Y-77988748D02*
X111235000Y-78511252D01*
X109765000Y-77988748D02*
X109765000Y-78511252D01*
D12*
%TO.C,L10*%
X113327943Y-110774000D02*
X114172057Y-110774000D01*
X114172057Y-107726000D02*
X113327943Y-107726000D01*
X111614400Y-109250000D02*
G75*
G03*
X111614400Y-109250000I-127000J0D01*
G01*
D11*
%TO.C,C28*%
X117488748Y-88765000D02*
X118011252Y-88765000D01*
X117488748Y-90235000D02*
X118011252Y-90235000D01*
%TO.C,D5*%
X111100000Y-100140000D02*
X109400000Y-100140000D01*
X111100000Y-100140000D02*
X111100000Y-102800000D01*
X109400000Y-100140000D02*
X109400000Y-102800000D01*
%TO.C,C34*%
X121761252Y-105735000D02*
X121238748Y-105735000D01*
X121761252Y-104265000D02*
X121238748Y-104265000D01*
%TO.C,D2*%
X111100000Y-69140000D02*
X109400000Y-69140000D01*
X111100000Y-69140000D02*
X111100000Y-71800000D01*
X109400000Y-69140000D02*
X109400000Y-71800000D01*
D12*
%TO.C,L9*%
X119077943Y-110774000D02*
X119922057Y-110774000D01*
X119922057Y-107726000D02*
X119077943Y-107726000D01*
X117364400Y-109250000D02*
G75*
G03*
X117364400Y-109250000I-127000J0D01*
G01*
D11*
%TO.C,C26*%
X113488748Y-88765000D02*
X114011252Y-88765000D01*
X113488748Y-90235000D02*
X114011252Y-90235000D01*
%TO.C,C5*%
X117586247Y-57685000D02*
X118108751Y-57685000D01*
X117586247Y-59155000D02*
X118108751Y-59155000D01*
D12*
%TO.C,J1*%
X132327800Y-50577800D02*
X132327800Y-50959789D01*
X132327800Y-52354811D02*
X132327800Y-56065189D01*
X132327800Y-57460211D02*
X132327800Y-57842200D01*
X132327800Y-57842200D02*
X132709789Y-57842200D01*
X132709789Y-50577800D02*
X132327800Y-50577800D01*
X134104811Y-57842200D02*
X137815189Y-57842200D01*
X137815189Y-50577800D02*
X134104811Y-50577800D01*
X139210211Y-57842200D02*
X139592200Y-57842200D01*
X139592200Y-50577800D02*
X139210211Y-50577800D01*
X139592200Y-50959789D02*
X139592200Y-50577800D01*
X139592200Y-56065189D02*
X139592200Y-52354811D01*
X139592200Y-57842200D02*
X139592200Y-57460211D01*
D11*
%TO.C,C14*%
X117488748Y-73265000D02*
X118011252Y-73265000D01*
X117488748Y-74735000D02*
X118011252Y-74735000D01*
%TO.C,C19*%
X137015000Y-86761252D02*
X137015000Y-86238748D01*
X138485000Y-86761252D02*
X138485000Y-86238748D01*
%TO.C,C3*%
X110086247Y-50435000D02*
X110608751Y-50435000D01*
X110086247Y-51905000D02*
X110608751Y-51905000D01*
%TO.C,C30*%
X116515000Y-102011252D02*
X116515000Y-101488748D01*
X117985000Y-102011252D02*
X117985000Y-101488748D01*
D12*
%TO.C,L2*%
X119077943Y-64194000D02*
X119922057Y-64194000D01*
X119922057Y-61146000D02*
X119077943Y-61146000D01*
X117364400Y-62670000D02*
G75*
G03*
X117364400Y-62670000I-127000J0D01*
G01*
D11*
%TO.C,C2*%
X116612499Y-55431252D02*
X116612499Y-54908748D01*
X118082499Y-55431252D02*
X118082499Y-54908748D01*
%TO.C,C33*%
X113538748Y-104265000D02*
X114061252Y-104265000D01*
X113538748Y-105735000D02*
X114061252Y-105735000D01*
%TO.C,C31*%
X109988748Y-97015000D02*
X110511252Y-97015000D01*
X109988748Y-98485000D02*
X110511252Y-98485000D01*
%TO.C,Q5*%
X113312500Y-103310000D02*
X114987500Y-103310000D01*
X113312500Y-103310000D02*
X112662500Y-103310000D01*
X113312500Y-100190000D02*
X113962500Y-100190000D01*
X113312500Y-100190000D02*
X112662500Y-100190000D01*
D12*
%TO.C,L8*%
X113327943Y-95274000D02*
X114172057Y-95274000D01*
X114172057Y-92226000D02*
X113327943Y-92226000D01*
X111614400Y-93750000D02*
G75*
G03*
X111614400Y-93750000I-127000J0D01*
G01*
D11*
%TO.C,Q4*%
X113250000Y-87810000D02*
X114925000Y-87810000D01*
X113250000Y-87810000D02*
X112600000Y-87810000D01*
X113250000Y-84690000D02*
X113900000Y-84690000D01*
X113250000Y-84690000D02*
X112600000Y-84690000D01*
D12*
%TO.C,L1*%
X113425442Y-64194000D02*
X114269556Y-64194000D01*
X114269556Y-61146000D02*
X113425442Y-61146000D01*
X111711899Y-62670000D02*
G75*
G03*
X111711899Y-62670000I-127000J0D01*
G01*
D11*
%TO.C,Q2*%
X113250000Y-72310000D02*
X114925000Y-72310000D01*
X113250000Y-72310000D02*
X112600000Y-72310000D01*
X113250000Y-69190000D02*
X113900000Y-69190000D01*
X113250000Y-69190000D02*
X112600000Y-69190000D01*
%TO.C,C12*%
X113488748Y-73265000D02*
X114011252Y-73265000D01*
X113488748Y-74735000D02*
X114011252Y-74735000D01*
%TO.C,D1*%
X111197499Y-53560000D02*
X109497499Y-53560000D01*
X111197499Y-53560000D02*
X111197499Y-56220000D01*
X109497499Y-53560000D02*
X109497499Y-56220000D01*
%TO.C,C23*%
X116515000Y-86511252D02*
X116515000Y-85988748D01*
X117985000Y-86511252D02*
X117985000Y-85988748D01*
%TO.C,C9*%
X116515000Y-71011252D02*
X116515000Y-70488748D01*
X117985000Y-71011252D02*
X117985000Y-70488748D01*
%TO.C,C35*%
X117488748Y-104265000D02*
X118011252Y-104265000D01*
X117488748Y-105735000D02*
X118011252Y-105735000D01*
%TO.C,J4*%
X79238100Y-95880000D02*
X79238100Y-96880000D01*
X79238100Y-96880000D02*
X80238100Y-96380000D01*
X80238100Y-96380000D02*
X79238100Y-95880000D01*
X80628100Y-91170000D02*
X89748100Y-91170000D01*
X80628100Y-99410000D02*
X81938100Y-99410000D01*
X80628100Y-111750000D02*
X80628100Y-91170000D01*
X81938100Y-92470000D02*
X88438100Y-92470000D01*
X81938100Y-99410000D02*
X81938100Y-92470000D01*
X81938100Y-103510000D02*
X80628100Y-103510000D01*
X81938100Y-103510000D02*
X81938100Y-103510000D01*
X81938100Y-110450000D02*
X81938100Y-103510000D01*
X88438100Y-92470000D02*
X88438100Y-110450000D01*
X88438100Y-110450000D02*
X81938100Y-110450000D01*
X89748100Y-91170000D02*
X89748100Y-111750000D01*
X89748100Y-111750000D02*
X80628100Y-111750000D01*
%TO.C,D4*%
X111100000Y-84640000D02*
X109400000Y-84640000D01*
X111100000Y-84640000D02*
X111100000Y-87300000D01*
X109400000Y-84640000D02*
X109400000Y-87300000D01*
%TO.C,C11*%
X122015000Y-78511252D02*
X122015000Y-77988748D01*
X123485000Y-78511252D02*
X123485000Y-77988748D01*
D12*
%TO.C,U4*%
X96932900Y-80892900D02*
X96932900Y-82528561D01*
X96932900Y-83651241D02*
X96932900Y-85068660D01*
X96932900Y-86191340D02*
X96932900Y-87608660D01*
X96932900Y-88731340D02*
X96932900Y-90148660D01*
X96932900Y-91271340D02*
X96932900Y-92688660D01*
X96932900Y-93811340D02*
X96932900Y-95447100D01*
X96932900Y-95447100D02*
X106483300Y-95447100D01*
X106483300Y-80892900D02*
X96932900Y-80892900D01*
X106483300Y-82528561D02*
X106483300Y-80892900D01*
X106483300Y-85068660D02*
X106483300Y-83651241D01*
X106483300Y-87608660D02*
X106483300Y-86191340D01*
X106483300Y-90148660D02*
X106483300Y-88731340D01*
X106483300Y-92688660D02*
X106483300Y-91271340D01*
X106483300Y-95447100D02*
X106483300Y-93811340D01*
D11*
%TO.C,C27*%
X121761252Y-90235000D02*
X121238748Y-90235000D01*
X121761252Y-88765000D02*
X121238748Y-88765000D01*
%TO.C,C18*%
X135011252Y-79935000D02*
X134488748Y-79935000D01*
X135011252Y-78465000D02*
X134488748Y-78465000D01*
D12*
%TO.C,L7*%
X119077943Y-95274000D02*
X119922057Y-95274000D01*
X119922057Y-92226000D02*
X119077943Y-92226000D01*
X117364400Y-93750000D02*
G75*
G03*
X117364400Y-93750000I-127000J0D01*
G01*
%TO.C,U5*%
X96932900Y-96392900D02*
X96932900Y-98028561D01*
X96932900Y-99151241D02*
X96932900Y-100568660D01*
X96932900Y-101691340D02*
X96932900Y-103108660D01*
X96932900Y-104231340D02*
X96932900Y-105648660D01*
X96932900Y-106771340D02*
X96932900Y-108188660D01*
X96932900Y-109311340D02*
X96932900Y-110947100D01*
X96932900Y-110947100D02*
X106483300Y-110947100D01*
X106483300Y-96392900D02*
X96932900Y-96392900D01*
X106483300Y-98028561D02*
X106483300Y-96392900D01*
X106483300Y-100568660D02*
X106483300Y-99151241D01*
X106483300Y-103108660D02*
X106483300Y-101691340D01*
X106483300Y-105648660D02*
X106483300Y-104231340D01*
X106483300Y-108188660D02*
X106483300Y-106771340D01*
X106483300Y-110947100D02*
X106483300Y-109311340D01*
D11*
%TO.C,C32*%
X122015000Y-109561252D02*
X122015000Y-109038748D01*
X123485000Y-109561252D02*
X123485000Y-109038748D01*
D12*
%TO.C,J2*%
X132077800Y-64327800D02*
X132077800Y-64709789D01*
X132077800Y-66104811D02*
X132077800Y-69815189D01*
X132077800Y-71210211D02*
X132077800Y-71592200D01*
X132077800Y-71592200D02*
X132459789Y-71592200D01*
X132459789Y-64327800D02*
X132077800Y-64327800D01*
X133854811Y-71592200D02*
X137565189Y-71592200D01*
X137565189Y-64327800D02*
X133854811Y-64327800D01*
X138960211Y-71592200D02*
X139342200Y-71592200D01*
X139342200Y-64327800D02*
X138960211Y-64327800D01*
X139342200Y-64709789D02*
X139342200Y-64327800D01*
X139342200Y-69815189D02*
X139342200Y-66104811D01*
X139342200Y-71592200D02*
X139342200Y-71210211D01*
%TO.C,L4*%
X113327943Y-79774000D02*
X114172057Y-79774000D01*
X114172057Y-76726000D02*
X113327943Y-76726000D01*
X111614400Y-78250000D02*
G75*
G03*
X111614400Y-78250000I-127000J0D01*
G01*
D11*
%TO.C,C4*%
X111332499Y-62408748D02*
X111332499Y-62931252D01*
X109862499Y-62408748D02*
X109862499Y-62931252D01*
%TO.C,C10*%
X109988748Y-66015000D02*
X110511252Y-66015000D01*
X109988748Y-67485000D02*
X110511252Y-67485000D01*
%TO.C,C29*%
X111235000Y-93488748D02*
X111235000Y-94011252D01*
X109765000Y-93488748D02*
X109765000Y-94011252D01*
%TO.C,C7*%
X113616247Y-57685000D02*
X114138751Y-57685000D01*
X113616247Y-59155000D02*
X114138751Y-59155000D01*
D12*
%TO.C,L3*%
X119077943Y-79774000D02*
X119922057Y-79774000D01*
X119922057Y-76726000D02*
X119077943Y-76726000D01*
X117364400Y-78250000D02*
G75*
G03*
X117364400Y-78250000I-127000J0D01*
G01*
%TO.C,U2*%
X96932900Y-65392900D02*
X96932900Y-67028561D01*
X96932900Y-68151241D02*
X96932900Y-69568660D01*
X96932900Y-70691340D02*
X96932900Y-72108660D01*
X96932900Y-73231340D02*
X96932900Y-74648660D01*
X96932900Y-75771340D02*
X96932900Y-77188660D01*
X96932900Y-78311340D02*
X96932900Y-79947100D01*
X96932900Y-79947100D02*
X106483300Y-79947100D01*
X106483300Y-65392900D02*
X96932900Y-65392900D01*
X106483300Y-67028561D02*
X106483300Y-65392900D01*
X106483300Y-69568660D02*
X106483300Y-68151241D01*
X106483300Y-72108660D02*
X106483300Y-70691340D01*
X106483300Y-74648660D02*
X106483300Y-73231340D01*
X106483300Y-77188660D02*
X106483300Y-75771340D01*
X106483300Y-79947100D02*
X106483300Y-78311340D01*
D11*
%TO.C,C6*%
X121858751Y-59155000D02*
X121336247Y-59155000D01*
X121858751Y-57685000D02*
X121336247Y-57685000D01*
%TO.C,C20*%
X135011252Y-94185000D02*
X134488748Y-94185000D01*
X135011252Y-92715000D02*
X134488748Y-92715000D01*
%TO.C,C1*%
X93193100Y-61658748D02*
X93193100Y-62181252D01*
X91723100Y-61658748D02*
X91723100Y-62181252D01*
D12*
%TO.C,U1*%
X96891000Y-49892900D02*
X96891000Y-51528561D01*
X96891000Y-52651241D02*
X96891000Y-54068660D01*
X96891000Y-55191340D02*
X96891000Y-56608660D01*
X96891000Y-57731340D02*
X96891000Y-59148660D01*
X96891000Y-60271340D02*
X96891000Y-61688660D01*
X96891000Y-62811340D02*
X96891000Y-64447100D01*
X96891000Y-64447100D02*
X106441400Y-64447100D01*
X106441400Y-49892900D02*
X96891000Y-49892900D01*
X106441400Y-51528561D02*
X106441400Y-49892900D01*
X106441400Y-54068660D02*
X106441400Y-52651241D01*
X106441400Y-56608660D02*
X106441400Y-55191340D01*
X106441400Y-59148660D02*
X106441400Y-57731340D01*
X106441400Y-61688660D02*
X106441400Y-60271340D01*
X106441400Y-64447100D02*
X106441400Y-62811340D01*
D11*
%TO.C,C8*%
X122015000Y-62931252D02*
X122015000Y-62408748D01*
X123485000Y-62931252D02*
X123485000Y-62408748D01*
%TO.C,C13*%
X121761252Y-74735000D02*
X121238748Y-74735000D01*
X121761252Y-73265000D02*
X121238748Y-73265000D01*
%TO.C,C24*%
X109988748Y-81515000D02*
X110511252Y-81515000D01*
X109988748Y-82985000D02*
X110511252Y-82985000D01*
%TO.C,Q1*%
X113347499Y-56730000D02*
X115022499Y-56730000D01*
X113347499Y-56730000D02*
X112697499Y-56730000D01*
X113347499Y-53610000D02*
X113997499Y-53610000D01*
X113347499Y-53610000D02*
X112697499Y-53610000D01*
%TO.C,C36*%
X111235000Y-108988748D02*
X111235000Y-109511252D01*
X109765000Y-108988748D02*
X109765000Y-109511252D01*
%TO.C,C16*%
X137015000Y-82761252D02*
X137015000Y-82238748D01*
X138485000Y-82761252D02*
X138485000Y-82238748D01*
%TO.C,C17*%
X137015000Y-90461252D02*
X137015000Y-89938748D01*
X138485000Y-90461252D02*
X138485000Y-89938748D01*
%TO.C,J3*%
X79238100Y-54800000D02*
X79238100Y-55800000D01*
X79238100Y-55800000D02*
X80238100Y-55300000D01*
X80238100Y-55300000D02*
X79238100Y-54800000D01*
X80628100Y-50090000D02*
X89748100Y-50090000D01*
X80628100Y-62140000D02*
X81938100Y-62140000D01*
X80628100Y-78290000D02*
X80628100Y-50090000D01*
X81938100Y-51390000D02*
X88438100Y-51390000D01*
X81938100Y-62140000D02*
X81938100Y-51390000D01*
X81938100Y-66240000D02*
X80628100Y-66240000D01*
X81938100Y-66240000D02*
X81938100Y-66240000D01*
X81938100Y-76990000D02*
X81938100Y-66240000D01*
X88438100Y-51390000D02*
X88438100Y-76990000D01*
X88438100Y-76990000D02*
X81938100Y-76990000D01*
X89748100Y-50090000D02*
X89748100Y-78290000D01*
X89748100Y-78290000D02*
X80628100Y-78290000D01*
%TO.C,C25*%
X122015000Y-94061252D02*
X122015000Y-93538748D01*
X123485000Y-94061252D02*
X123485000Y-93538748D01*
D12*
%TO.C,L5*%
X136274000Y-82872057D02*
X136274000Y-82027943D01*
X133226000Y-82027943D02*
X133226000Y-82872057D01*
X134877000Y-84712600D02*
G75*
G03*
X134877000Y-84712600I-127000J0D01*
G01*
%TD*%
M02*
