M48
; DRILL file {KiCad 7.0.9} date Sun 21 Jan 2024 04:29:33 PM PST
; FORMAT={-:-/ absolute / inch / decimal}
; #@! TF.CreationDate,2024-01-21T16:29:33-08:00
; #@! TF.GenerationSoftware,Kicad,Pcbnew,7.0.9
; #@! TF.FileFunction,Plated,1,2,PTH
FMAT,2
INCH
; #@! TA.AperFunction,Plated,PTH,ViaDrill
T1C0.0157
; #@! TA.AperFunction,Plated,PTH,ComponentDrill
T2C0.0394
; #@! TA.AperFunction,Plated,PTH,ComponentDrill
T3C0.0550
; #@! TA.AperFunction,Plated,PTH,ComponentDrill
T4C0.0590
%
G90
G05
T1
X3.28Y-3.55
X3.35Y-3.55
X3.5Y-4.5
X3.5Y-4.6
X3.52Y-3.29
X3.52Y-3.34
X3.52Y-3.39
X3.57Y-3.29
X3.57Y-3.34
X3.57Y-3.39
X3.6Y-4.5
X3.6Y-4.6
X3.64Y-3.67
X3.64Y-3.72
X3.64Y-3.77
X3.64Y-3.82
X3.64Y-4.13
X3.64Y-4.19
X3.64Y-4.25
X3.64Y-4.31
X3.7Y-4.6
X3.7008Y-2.6083
X3.8Y-4.6
X3.873Y-2.623
X3.8878Y-3.2185
X3.8878Y-3.8386
X3.9Y-4.5
X3.9Y-4.6
X3.95Y-2.3
X3.95Y-2.35
X3.95Y-2.95
X3.95Y-3.0
X3.95Y-3.55
X3.95Y-3.6
X3.95Y-4.25
X3.95Y-4.3
X4.0Y-2.3
X4.0Y-2.35
X4.0Y-2.95
X4.0Y-3.0
X4.0Y-3.55
X4.0Y-3.6
X4.0Y-4.25
X4.0Y-4.3
X4.0Y-4.5
X4.0Y-4.6
X4.05Y-2.3
X4.05Y-2.35
X4.05Y-2.95
X4.05Y-3.0
X4.05Y-3.55
X4.05Y-3.6
X4.05Y-4.25
X4.05Y-4.3
X4.5866Y-3.1299
X4.5866Y-3.6457
X4.5866Y-4.3504
X4.5906Y-3.0354
X4.5906Y-3.7323
X4.5906Y-4.2559
X4.5945Y-2.4252
X4.5945Y-2.5118
X4.6161Y-2.8228
X4.6161Y-4.0433
X4.62Y-2.2094
X4.64Y-4.5
X4.64Y-4.6
X4.74Y-4.5
X4.74Y-4.6
X4.7795Y-2.3701
X4.7835Y-2.9803
X4.7874Y-3.5945
X4.7874Y-4.2008
X4.8061Y-2.6319
X4.8061Y-2.6719
X4.83Y-3.96
X4.83Y-4.01
X4.84Y-4.6
X4.8461Y-2.6319
X4.8461Y-2.6719
X4.8484Y-2.1969
X4.8488Y-3.2382
X4.8488Y-3.2882
X4.85Y-2.15
X4.88Y-3.96
X4.88Y-4.01
X4.8988Y-3.2382
X4.8988Y-3.2882
X4.9Y-2.15
X4.94Y-4.6
X5.04Y-4.5
X5.04Y-4.6
X5.0433Y-4.2244
X5.05Y-2.0
X5.05Y-2.05
X5.05Y-2.25
X5.05Y-2.3
X5.09Y-2.93
X5.09Y-2.98
X5.09Y-3.03
X5.1Y-2.0
X5.1Y-2.05
X5.1Y-2.25
X5.1Y-2.3
X5.14Y-2.93
X5.14Y-2.98
X5.14Y-3.03
X5.14Y-4.5
X5.14Y-4.6
X5.19Y-2.93
X5.19Y-2.98
X5.19Y-3.03
X5.25Y-2.4
X5.3Y-2.4
X5.35Y-2.4
X5.39Y-4.03
X5.39Y-4.08
X5.4Y-2.4
X5.44Y-4.03
X5.44Y-4.08
X5.45Y-2.4
T2
X3.3039Y-2.1772
X3.3039Y-2.2772
X3.3039Y-2.3772
X3.3039Y-2.4772
X3.3039Y-2.5772
X3.3039Y-2.6772
X3.3039Y-2.7772
X3.3039Y-2.8772
X3.3039Y-3.7945
X3.3039Y-3.8945
X3.3039Y-3.9945
X3.3039Y-4.0945
X3.3039Y-4.1945
X3.4039Y-2.1772
X3.4039Y-2.2772
X3.4039Y-2.3772
X3.4039Y-2.4772
X3.4039Y-2.5772
X3.4039Y-2.6772
X3.4039Y-2.7772
X3.4039Y-2.8772
X3.4039Y-3.7945
X3.4039Y-3.8945
X3.4039Y-3.9945
X3.4039Y-4.0945
X3.4039Y-4.1945
T3
X5.2424Y-2.5751
X5.2424Y-2.7761
X5.2523Y-2.0338
X5.2523Y-2.2348
X5.4434Y-2.5751
X5.4434Y-2.7761
X5.4533Y-2.0338
X5.4533Y-2.2348
T4
X5.3429Y-2.6756
X5.3528Y-2.1343
T0
M30
