%TF.GenerationSoftware,KiCad,Pcbnew,7.0.9*%
%TF.CreationDate,2024-01-21T16:30:30-08:00*%
%TF.ProjectId,QSE Filter,51534520-4669-46c7-9465-722e6b696361,rev?*%
%TF.SameCoordinates,Original*%
%TF.FileFunction,Legend,Bot*%
%TF.FilePolarity,Positive*%
%FSLAX46Y46*%
G04 Gerber Fmt 4.6, Leading zero omitted, Abs format (unit mm)*
G04 Created by KiCad (PCBNEW 7.0.9) date 2024-01-21 16:30:30*
%MOMM*%
%LPD*%
G01*
G04 APERTURE LIST*
%ADD10C,0.300000*%
G04 APERTURE END LIST*
D10*
X124119774Y-49225828D02*
X123262632Y-49225828D01*
X123691203Y-50725828D02*
X123691203Y-49225828D01*
X122119775Y-49725828D02*
X122119775Y-50725828D01*
X122476917Y-49154400D02*
X122834060Y-50225828D01*
X122834060Y-50225828D02*
X121905489Y-50225828D01*
X120548346Y-50725828D02*
X121405489Y-50725828D01*
X120976918Y-50725828D02*
X120976918Y-49225828D01*
X120976918Y-49225828D02*
X121119775Y-49440114D01*
X121119775Y-49440114D02*
X121262632Y-49582971D01*
X121262632Y-49582971D02*
X121405489Y-49654400D01*
X119905490Y-50154400D02*
X118762633Y-50154400D01*
X118048347Y-49940114D02*
X117548347Y-49940114D01*
X117334061Y-50725828D02*
X118048347Y-50725828D01*
X118048347Y-50725828D02*
X118048347Y-49225828D01*
X118048347Y-49225828D02*
X117334061Y-49225828D01*
X116691204Y-50725828D02*
X116691204Y-49225828D01*
X116691204Y-49225828D02*
X116119775Y-49225828D01*
X116119775Y-49225828D02*
X115976918Y-49297257D01*
X115976918Y-49297257D02*
X115905489Y-49368685D01*
X115905489Y-49368685D02*
X115834061Y-49511542D01*
X115834061Y-49511542D02*
X115834061Y-49725828D01*
X115834061Y-49725828D02*
X115905489Y-49868685D01*
X115905489Y-49868685D02*
X115976918Y-49940114D01*
X115976918Y-49940114D02*
X116119775Y-50011542D01*
X116119775Y-50011542D02*
X116691204Y-50011542D01*
X113048347Y-50868685D02*
X113191204Y-50797257D01*
X113191204Y-50797257D02*
X113334061Y-50654400D01*
X113334061Y-50654400D02*
X113548347Y-50440114D01*
X113548347Y-50440114D02*
X113691204Y-50368685D01*
X113691204Y-50368685D02*
X113834061Y-50368685D01*
X113762632Y-50725828D02*
X113905490Y-50654400D01*
X113905490Y-50654400D02*
X114048347Y-50511542D01*
X114048347Y-50511542D02*
X114119775Y-50225828D01*
X114119775Y-50225828D02*
X114119775Y-49725828D01*
X114119775Y-49725828D02*
X114048347Y-49440114D01*
X114048347Y-49440114D02*
X113905490Y-49297257D01*
X113905490Y-49297257D02*
X113762632Y-49225828D01*
X113762632Y-49225828D02*
X113476918Y-49225828D01*
X113476918Y-49225828D02*
X113334061Y-49297257D01*
X113334061Y-49297257D02*
X113191204Y-49440114D01*
X113191204Y-49440114D02*
X113119775Y-49725828D01*
X113119775Y-49725828D02*
X113119775Y-50225828D01*
X113119775Y-50225828D02*
X113191204Y-50511542D01*
X113191204Y-50511542D02*
X113334061Y-50654400D01*
X113334061Y-50654400D02*
X113476918Y-50725828D01*
X113476918Y-50725828D02*
X113762632Y-50725828D01*
X112548346Y-50654400D02*
X112334061Y-50725828D01*
X112334061Y-50725828D02*
X111976918Y-50725828D01*
X111976918Y-50725828D02*
X111834061Y-50654400D01*
X111834061Y-50654400D02*
X111762632Y-50582971D01*
X111762632Y-50582971D02*
X111691203Y-50440114D01*
X111691203Y-50440114D02*
X111691203Y-50297257D01*
X111691203Y-50297257D02*
X111762632Y-50154400D01*
X111762632Y-50154400D02*
X111834061Y-50082971D01*
X111834061Y-50082971D02*
X111976918Y-50011542D01*
X111976918Y-50011542D02*
X112262632Y-49940114D01*
X112262632Y-49940114D02*
X112405489Y-49868685D01*
X112405489Y-49868685D02*
X112476918Y-49797257D01*
X112476918Y-49797257D02*
X112548346Y-49654400D01*
X112548346Y-49654400D02*
X112548346Y-49511542D01*
X112548346Y-49511542D02*
X112476918Y-49368685D01*
X112476918Y-49368685D02*
X112405489Y-49297257D01*
X112405489Y-49297257D02*
X112262632Y-49225828D01*
X112262632Y-49225828D02*
X111905489Y-49225828D01*
X111905489Y-49225828D02*
X111691203Y-49297257D01*
X111048347Y-49940114D02*
X110548347Y-49940114D01*
X110334061Y-50725828D02*
X111048347Y-50725828D01*
X111048347Y-50725828D02*
X111048347Y-49225828D01*
X111048347Y-49225828D02*
X110334061Y-49225828D01*
X108048347Y-49940114D02*
X108548347Y-49940114D01*
X108548347Y-50725828D02*
X108548347Y-49225828D01*
X108548347Y-49225828D02*
X107834061Y-49225828D01*
X107262633Y-50725828D02*
X107262633Y-49725828D01*
X107262633Y-49225828D02*
X107334061Y-49297257D01*
X107334061Y-49297257D02*
X107262633Y-49368685D01*
X107262633Y-49368685D02*
X107191204Y-49297257D01*
X107191204Y-49297257D02*
X107262633Y-49225828D01*
X107262633Y-49225828D02*
X107262633Y-49368685D01*
X106334061Y-50725828D02*
X106476918Y-50654400D01*
X106476918Y-50654400D02*
X106548347Y-50511542D01*
X106548347Y-50511542D02*
X106548347Y-49225828D01*
X105976918Y-49725828D02*
X105405490Y-49725828D01*
X105762633Y-49225828D02*
X105762633Y-50511542D01*
X105762633Y-50511542D02*
X105691204Y-50654400D01*
X105691204Y-50654400D02*
X105548347Y-50725828D01*
X105548347Y-50725828D02*
X105405490Y-50725828D01*
X104334061Y-50654400D02*
X104476918Y-50725828D01*
X104476918Y-50725828D02*
X104762633Y-50725828D01*
X104762633Y-50725828D02*
X104905490Y-50654400D01*
X104905490Y-50654400D02*
X104976918Y-50511542D01*
X104976918Y-50511542D02*
X104976918Y-49940114D01*
X104976918Y-49940114D02*
X104905490Y-49797257D01*
X104905490Y-49797257D02*
X104762633Y-49725828D01*
X104762633Y-49725828D02*
X104476918Y-49725828D01*
X104476918Y-49725828D02*
X104334061Y-49797257D01*
X104334061Y-49797257D02*
X104262633Y-49940114D01*
X104262633Y-49940114D02*
X104262633Y-50082971D01*
X104262633Y-50082971D02*
X104976918Y-50225828D01*
X103619776Y-50725828D02*
X103619776Y-49725828D01*
X103619776Y-50011542D02*
X103548347Y-49868685D01*
X103548347Y-49868685D02*
X103476919Y-49797257D01*
X103476919Y-49797257D02*
X103334061Y-49725828D01*
X103334061Y-49725828D02*
X103191204Y-49725828D01*
X101691205Y-49725828D02*
X101334062Y-50725828D01*
X101334062Y-50725828D02*
X100976919Y-49725828D01*
X100476919Y-49368685D02*
X100405491Y-49297257D01*
X100405491Y-49297257D02*
X100262634Y-49225828D01*
X100262634Y-49225828D02*
X99905491Y-49225828D01*
X99905491Y-49225828D02*
X99762634Y-49297257D01*
X99762634Y-49297257D02*
X99691205Y-49368685D01*
X99691205Y-49368685D02*
X99619776Y-49511542D01*
X99619776Y-49511542D02*
X99619776Y-49654400D01*
X99619776Y-49654400D02*
X99691205Y-49868685D01*
X99691205Y-49868685D02*
X100548348Y-50725828D01*
X100548348Y-50725828D02*
X99619776Y-50725828D01*
X123476917Y-51640828D02*
X123476917Y-52712257D01*
X123476917Y-52712257D02*
X123548346Y-52926542D01*
X123548346Y-52926542D02*
X123691203Y-53069400D01*
X123691203Y-53069400D02*
X123905489Y-53140828D01*
X123905489Y-53140828D02*
X124048346Y-53140828D01*
X122548346Y-53140828D02*
X122691203Y-53069400D01*
X122691203Y-53069400D02*
X122762632Y-52997971D01*
X122762632Y-52997971D02*
X122834060Y-52855114D01*
X122834060Y-52855114D02*
X122834060Y-52426542D01*
X122834060Y-52426542D02*
X122762632Y-52283685D01*
X122762632Y-52283685D02*
X122691203Y-52212257D01*
X122691203Y-52212257D02*
X122548346Y-52140828D01*
X122548346Y-52140828D02*
X122334060Y-52140828D01*
X122334060Y-52140828D02*
X122191203Y-52212257D01*
X122191203Y-52212257D02*
X122119775Y-52283685D01*
X122119775Y-52283685D02*
X122048346Y-52426542D01*
X122048346Y-52426542D02*
X122048346Y-52855114D01*
X122048346Y-52855114D02*
X122119775Y-52997971D01*
X122119775Y-52997971D02*
X122191203Y-53069400D01*
X122191203Y-53069400D02*
X122334060Y-53140828D01*
X122334060Y-53140828D02*
X122548346Y-53140828D01*
X121405489Y-52140828D02*
X121405489Y-53140828D01*
X121405489Y-52283685D02*
X121334060Y-52212257D01*
X121334060Y-52212257D02*
X121191203Y-52140828D01*
X121191203Y-52140828D02*
X120976917Y-52140828D01*
X120976917Y-52140828D02*
X120834060Y-52212257D01*
X120834060Y-52212257D02*
X120762632Y-52355114D01*
X120762632Y-52355114D02*
X120762632Y-53140828D01*
X119405489Y-53140828D02*
X119405489Y-52355114D01*
X119405489Y-52355114D02*
X119476917Y-52212257D01*
X119476917Y-52212257D02*
X119619774Y-52140828D01*
X119619774Y-52140828D02*
X119905489Y-52140828D01*
X119905489Y-52140828D02*
X120048346Y-52212257D01*
X119405489Y-53069400D02*
X119548346Y-53140828D01*
X119548346Y-53140828D02*
X119905489Y-53140828D01*
X119905489Y-53140828D02*
X120048346Y-53069400D01*
X120048346Y-53069400D02*
X120119774Y-52926542D01*
X120119774Y-52926542D02*
X120119774Y-52783685D01*
X120119774Y-52783685D02*
X120048346Y-52640828D01*
X120048346Y-52640828D02*
X119905489Y-52569400D01*
X119905489Y-52569400D02*
X119548346Y-52569400D01*
X119548346Y-52569400D02*
X119405489Y-52497971D01*
X118905488Y-52140828D02*
X118334060Y-52140828D01*
X118691203Y-51640828D02*
X118691203Y-52926542D01*
X118691203Y-52926542D02*
X118619774Y-53069400D01*
X118619774Y-53069400D02*
X118476917Y-53140828D01*
X118476917Y-53140828D02*
X118334060Y-53140828D01*
X117834060Y-53140828D02*
X117834060Y-51640828D01*
X117191203Y-53140828D02*
X117191203Y-52355114D01*
X117191203Y-52355114D02*
X117262631Y-52212257D01*
X117262631Y-52212257D02*
X117405488Y-52140828D01*
X117405488Y-52140828D02*
X117619774Y-52140828D01*
X117619774Y-52140828D02*
X117762631Y-52212257D01*
X117762631Y-52212257D02*
X117834060Y-52283685D01*
X115834060Y-53140828D02*
X115834060Y-52355114D01*
X115834060Y-52355114D02*
X115905488Y-52212257D01*
X115905488Y-52212257D02*
X116048345Y-52140828D01*
X116048345Y-52140828D02*
X116334060Y-52140828D01*
X116334060Y-52140828D02*
X116476917Y-52212257D01*
X115834060Y-53069400D02*
X115976917Y-53140828D01*
X115976917Y-53140828D02*
X116334060Y-53140828D01*
X116334060Y-53140828D02*
X116476917Y-53069400D01*
X116476917Y-53069400D02*
X116548345Y-52926542D01*
X116548345Y-52926542D02*
X116548345Y-52783685D01*
X116548345Y-52783685D02*
X116476917Y-52640828D01*
X116476917Y-52640828D02*
X116334060Y-52569400D01*
X116334060Y-52569400D02*
X115976917Y-52569400D01*
X115976917Y-52569400D02*
X115834060Y-52497971D01*
X115119774Y-52140828D02*
X115119774Y-53140828D01*
X115119774Y-52283685D02*
X115048345Y-52212257D01*
X115048345Y-52212257D02*
X114905488Y-52140828D01*
X114905488Y-52140828D02*
X114691202Y-52140828D01*
X114691202Y-52140828D02*
X114548345Y-52212257D01*
X114548345Y-52212257D02*
X114476917Y-52355114D01*
X114476917Y-52355114D02*
X114476917Y-53140828D01*
X112119774Y-52355114D02*
X111905488Y-52426542D01*
X111905488Y-52426542D02*
X111834059Y-52497971D01*
X111834059Y-52497971D02*
X111762631Y-52640828D01*
X111762631Y-52640828D02*
X111762631Y-52855114D01*
X111762631Y-52855114D02*
X111834059Y-52997971D01*
X111834059Y-52997971D02*
X111905488Y-53069400D01*
X111905488Y-53069400D02*
X112048345Y-53140828D01*
X112048345Y-53140828D02*
X112619774Y-53140828D01*
X112619774Y-53140828D02*
X112619774Y-51640828D01*
X112619774Y-51640828D02*
X112119774Y-51640828D01*
X112119774Y-51640828D02*
X111976917Y-51712257D01*
X111976917Y-51712257D02*
X111905488Y-51783685D01*
X111905488Y-51783685D02*
X111834059Y-51926542D01*
X111834059Y-51926542D02*
X111834059Y-52069400D01*
X111834059Y-52069400D02*
X111905488Y-52212257D01*
X111905488Y-52212257D02*
X111976917Y-52283685D01*
X111976917Y-52283685D02*
X112119774Y-52355114D01*
X112119774Y-52355114D02*
X112619774Y-52355114D01*
X110476917Y-52140828D02*
X110476917Y-53140828D01*
X111119774Y-52140828D02*
X111119774Y-52926542D01*
X111119774Y-52926542D02*
X111048345Y-53069400D01*
X111048345Y-53069400D02*
X110905488Y-53140828D01*
X110905488Y-53140828D02*
X110691202Y-53140828D01*
X110691202Y-53140828D02*
X110548345Y-53069400D01*
X110548345Y-53069400D02*
X110476917Y-52997971D01*
X109762631Y-53140828D02*
X109762631Y-52140828D01*
X109762631Y-52426542D02*
X109691202Y-52283685D01*
X109691202Y-52283685D02*
X109619774Y-52212257D01*
X109619774Y-52212257D02*
X109476916Y-52140828D01*
X109476916Y-52140828D02*
X109334059Y-52140828D01*
X108191203Y-53069400D02*
X108334060Y-53140828D01*
X108334060Y-53140828D02*
X108619774Y-53140828D01*
X108619774Y-53140828D02*
X108762631Y-53069400D01*
X108762631Y-53069400D02*
X108834060Y-52997971D01*
X108834060Y-52997971D02*
X108905488Y-52855114D01*
X108905488Y-52855114D02*
X108905488Y-52426542D01*
X108905488Y-52426542D02*
X108834060Y-52283685D01*
X108834060Y-52283685D02*
X108762631Y-52212257D01*
X108762631Y-52212257D02*
X108619774Y-52140828D01*
X108619774Y-52140828D02*
X108334060Y-52140828D01*
X108334060Y-52140828D02*
X108191203Y-52212257D01*
X107548346Y-53140828D02*
X107548346Y-51640828D01*
X106905489Y-53140828D02*
X106905489Y-52355114D01*
X106905489Y-52355114D02*
X106976917Y-52212257D01*
X106976917Y-52212257D02*
X107119774Y-52140828D01*
X107119774Y-52140828D02*
X107334060Y-52140828D01*
X107334060Y-52140828D02*
X107476917Y-52212257D01*
X107476917Y-52212257D02*
X107548346Y-52283685D01*
X106191203Y-53140828D02*
X106191203Y-52140828D01*
X106191203Y-52283685D02*
X106119774Y-52212257D01*
X106119774Y-52212257D02*
X105976917Y-52140828D01*
X105976917Y-52140828D02*
X105762631Y-52140828D01*
X105762631Y-52140828D02*
X105619774Y-52212257D01*
X105619774Y-52212257D02*
X105548346Y-52355114D01*
X105548346Y-52355114D02*
X105548346Y-53140828D01*
X105548346Y-52355114D02*
X105476917Y-52212257D01*
X105476917Y-52212257D02*
X105334060Y-52140828D01*
X105334060Y-52140828D02*
X105119774Y-52140828D01*
X105119774Y-52140828D02*
X104976917Y-52212257D01*
X104976917Y-52212257D02*
X104905488Y-52355114D01*
X104905488Y-52355114D02*
X104905488Y-53140828D01*
X103976917Y-53140828D02*
X104119774Y-53069400D01*
X104119774Y-53069400D02*
X104191203Y-52997971D01*
X104191203Y-52997971D02*
X104262631Y-52855114D01*
X104262631Y-52855114D02*
X104262631Y-52426542D01*
X104262631Y-52426542D02*
X104191203Y-52283685D01*
X104191203Y-52283685D02*
X104119774Y-52212257D01*
X104119774Y-52212257D02*
X103976917Y-52140828D01*
X103976917Y-52140828D02*
X103762631Y-52140828D01*
X103762631Y-52140828D02*
X103619774Y-52212257D01*
X103619774Y-52212257D02*
X103548346Y-52283685D01*
X103548346Y-52283685D02*
X103476917Y-52426542D01*
X103476917Y-52426542D02*
X103476917Y-52855114D01*
X103476917Y-52855114D02*
X103548346Y-52997971D01*
X103548346Y-52997971D02*
X103619774Y-53069400D01*
X103619774Y-53069400D02*
X103762631Y-53140828D01*
X103762631Y-53140828D02*
X103976917Y-53140828D01*
X102834060Y-53140828D02*
X102834060Y-52140828D01*
X102834060Y-52426542D02*
X102762631Y-52283685D01*
X102762631Y-52283685D02*
X102691203Y-52212257D01*
X102691203Y-52212257D02*
X102548345Y-52140828D01*
X102548345Y-52140828D02*
X102405488Y-52140828D01*
X101334060Y-53069400D02*
X101476917Y-53140828D01*
X101476917Y-53140828D02*
X101762632Y-53140828D01*
X101762632Y-53140828D02*
X101905489Y-53069400D01*
X101905489Y-53069400D02*
X101976917Y-52926542D01*
X101976917Y-52926542D02*
X101976917Y-52355114D01*
X101976917Y-52355114D02*
X101905489Y-52212257D01*
X101905489Y-52212257D02*
X101762632Y-52140828D01*
X101762632Y-52140828D02*
X101476917Y-52140828D01*
X101476917Y-52140828D02*
X101334060Y-52212257D01*
X101334060Y-52212257D02*
X101262632Y-52355114D01*
X101262632Y-52355114D02*
X101262632Y-52497971D01*
X101262632Y-52497971D02*
X101976917Y-52640828D01*
X99476918Y-53140828D02*
X99476918Y-51640828D01*
X98619775Y-53140828D02*
X99262632Y-52283685D01*
X98619775Y-51640828D02*
X99476918Y-52497971D01*
X97976918Y-53140828D02*
X97976918Y-51640828D01*
X97976918Y-51640828D02*
X97119775Y-53140828D01*
X97119775Y-53140828D02*
X97119775Y-51640828D01*
X95762632Y-51640828D02*
X96048346Y-51640828D01*
X96048346Y-51640828D02*
X96191203Y-51712257D01*
X96191203Y-51712257D02*
X96262632Y-51783685D01*
X96262632Y-51783685D02*
X96405489Y-51997971D01*
X96405489Y-51997971D02*
X96476917Y-52283685D01*
X96476917Y-52283685D02*
X96476917Y-52855114D01*
X96476917Y-52855114D02*
X96405489Y-52997971D01*
X96405489Y-52997971D02*
X96334060Y-53069400D01*
X96334060Y-53069400D02*
X96191203Y-53140828D01*
X96191203Y-53140828D02*
X95905489Y-53140828D01*
X95905489Y-53140828D02*
X95762632Y-53069400D01*
X95762632Y-53069400D02*
X95691203Y-52997971D01*
X95691203Y-52997971D02*
X95619774Y-52855114D01*
X95619774Y-52855114D02*
X95619774Y-52497971D01*
X95619774Y-52497971D02*
X95691203Y-52355114D01*
X95691203Y-52355114D02*
X95762632Y-52283685D01*
X95762632Y-52283685D02*
X95905489Y-52212257D01*
X95905489Y-52212257D02*
X96191203Y-52212257D01*
X96191203Y-52212257D02*
X96334060Y-52283685D01*
X96334060Y-52283685D02*
X96405489Y-52355114D01*
X96405489Y-52355114D02*
X96476917Y-52497971D01*
X94262632Y-53140828D02*
X94976918Y-53140828D01*
X94976918Y-53140828D02*
X94976918Y-51640828D01*
X93262632Y-52355114D02*
X93762632Y-52355114D01*
X93762632Y-53140828D02*
X93762632Y-51640828D01*
X93762632Y-51640828D02*
X93048346Y-51640828D01*
X91976918Y-52355114D02*
X91762632Y-52426542D01*
X91762632Y-52426542D02*
X91691203Y-52497971D01*
X91691203Y-52497971D02*
X91619775Y-52640828D01*
X91619775Y-52640828D02*
X91619775Y-52855114D01*
X91619775Y-52855114D02*
X91691203Y-52997971D01*
X91691203Y-52997971D02*
X91762632Y-53069400D01*
X91762632Y-53069400D02*
X91905489Y-53140828D01*
X91905489Y-53140828D02*
X92476918Y-53140828D01*
X92476918Y-53140828D02*
X92476918Y-51640828D01*
X92476918Y-51640828D02*
X91976918Y-51640828D01*
X91976918Y-51640828D02*
X91834061Y-51712257D01*
X91834061Y-51712257D02*
X91762632Y-51783685D01*
X91762632Y-51783685D02*
X91691203Y-51926542D01*
X91691203Y-51926542D02*
X91691203Y-52069400D01*
X91691203Y-52069400D02*
X91762632Y-52212257D01*
X91762632Y-52212257D02*
X91834061Y-52283685D01*
X91834061Y-52283685D02*
X91976918Y-52355114D01*
X91976918Y-52355114D02*
X92476918Y-52355114D01*
M02*
