%TF.GenerationSoftware,KiCad,Pcbnew,7.0.8*%
%TF.CreationDate,2024-01-03T10:18:05-08:00*%
%TF.ProjectId,QSE Filter,51534520-4669-46c7-9465-722e6b696361,rev?*%
%TF.SameCoordinates,Original*%
%TF.FileFunction,Drillmap*%
%TF.FilePolarity,Positive*%
%FSLAX45Y45*%
G04 Gerber Fmt 4.5, Leading zero omitted, Abs format (unit mm)*
G04 Created by KiCad (PCBNEW 7.0.8) date 2024-01-03 10:18:05*
%MOMM*%
%LPD*%
G01*
G04 APERTURE LIST*
%ADD10C,0.100000*%
%ADD11C,0.200000*%
%ADD12C,0.320000*%
G04 APERTURE END LIST*
D10*
X7750000Y-4725000D02*
X14275000Y-4725000D01*
X14275000Y-12170000D01*
X7750000Y-12170000D01*
X7750000Y-4725000D01*
D11*
D12*
X7965000Y-11640000D02*
X8285000Y-11960000D01*
X8285000Y-11640000D02*
X7965000Y-11960000D01*
X13740000Y-11640000D02*
X14060000Y-11960000D01*
X14060000Y-11640000D02*
X13740000Y-11960000D01*
D11*
X8005777Y-12486484D02*
X8005777Y-12286484D01*
X8005777Y-12286484D02*
X8053396Y-12286484D01*
X8053396Y-12286484D02*
X8081967Y-12296008D01*
X8081967Y-12296008D02*
X8101015Y-12315055D01*
X8101015Y-12315055D02*
X8110539Y-12334103D01*
X8110539Y-12334103D02*
X8120062Y-12372198D01*
X8120062Y-12372198D02*
X8120062Y-12400769D01*
X8120062Y-12400769D02*
X8110539Y-12438865D01*
X8110539Y-12438865D02*
X8101015Y-12457912D01*
X8101015Y-12457912D02*
X8081967Y-12476960D01*
X8081967Y-12476960D02*
X8053396Y-12486484D01*
X8053396Y-12486484D02*
X8005777Y-12486484D01*
X8205777Y-12486484D02*
X8205777Y-12353150D01*
X8205777Y-12391246D02*
X8215301Y-12372198D01*
X8215301Y-12372198D02*
X8224824Y-12362674D01*
X8224824Y-12362674D02*
X8243872Y-12353150D01*
X8243872Y-12353150D02*
X8262920Y-12353150D01*
X8329586Y-12486484D02*
X8329586Y-12353150D01*
X8329586Y-12286484D02*
X8320062Y-12296008D01*
X8320062Y-12296008D02*
X8329586Y-12305531D01*
X8329586Y-12305531D02*
X8339110Y-12296008D01*
X8339110Y-12296008D02*
X8329586Y-12286484D01*
X8329586Y-12286484D02*
X8329586Y-12305531D01*
X8453396Y-12486484D02*
X8434348Y-12476960D01*
X8434348Y-12476960D02*
X8424824Y-12457912D01*
X8424824Y-12457912D02*
X8424824Y-12286484D01*
X8558158Y-12486484D02*
X8539110Y-12476960D01*
X8539110Y-12476960D02*
X8529586Y-12457912D01*
X8529586Y-12457912D02*
X8529586Y-12286484D01*
X8786729Y-12486484D02*
X8786729Y-12286484D01*
X8786729Y-12286484D02*
X8853396Y-12429341D01*
X8853396Y-12429341D02*
X8920063Y-12286484D01*
X8920063Y-12286484D02*
X8920063Y-12486484D01*
X9101015Y-12486484D02*
X9101015Y-12381722D01*
X9101015Y-12381722D02*
X9091491Y-12362674D01*
X9091491Y-12362674D02*
X9072444Y-12353150D01*
X9072444Y-12353150D02*
X9034348Y-12353150D01*
X9034348Y-12353150D02*
X9015301Y-12362674D01*
X9101015Y-12476960D02*
X9081967Y-12486484D01*
X9081967Y-12486484D02*
X9034348Y-12486484D01*
X9034348Y-12486484D02*
X9015301Y-12476960D01*
X9015301Y-12476960D02*
X9005777Y-12457912D01*
X9005777Y-12457912D02*
X9005777Y-12438865D01*
X9005777Y-12438865D02*
X9015301Y-12419817D01*
X9015301Y-12419817D02*
X9034348Y-12410293D01*
X9034348Y-12410293D02*
X9081967Y-12410293D01*
X9081967Y-12410293D02*
X9101015Y-12400769D01*
X9196253Y-12353150D02*
X9196253Y-12553150D01*
X9196253Y-12362674D02*
X9215301Y-12353150D01*
X9215301Y-12353150D02*
X9253396Y-12353150D01*
X9253396Y-12353150D02*
X9272444Y-12362674D01*
X9272444Y-12362674D02*
X9281967Y-12372198D01*
X9281967Y-12372198D02*
X9291491Y-12391246D01*
X9291491Y-12391246D02*
X9291491Y-12448388D01*
X9291491Y-12448388D02*
X9281967Y-12467436D01*
X9281967Y-12467436D02*
X9272444Y-12476960D01*
X9272444Y-12476960D02*
X9253396Y-12486484D01*
X9253396Y-12486484D02*
X9215301Y-12486484D01*
X9215301Y-12486484D02*
X9196253Y-12476960D01*
X9377205Y-12467436D02*
X9386729Y-12476960D01*
X9386729Y-12476960D02*
X9377205Y-12486484D01*
X9377205Y-12486484D02*
X9367682Y-12476960D01*
X9367682Y-12476960D02*
X9377205Y-12467436D01*
X9377205Y-12467436D02*
X9377205Y-12486484D01*
X9377205Y-12362674D02*
X9386729Y-12372198D01*
X9386729Y-12372198D02*
X9377205Y-12381722D01*
X9377205Y-12381722D02*
X9367682Y-12372198D01*
X9367682Y-12372198D02*
X9377205Y-12362674D01*
X9377205Y-12362674D02*
X9377205Y-12381722D01*
X7545000Y-12715000D02*
X7745000Y-12915000D01*
X7745000Y-12715000D02*
X7545000Y-12915000D01*
X7986729Y-12706484D02*
X8110539Y-12706484D01*
X8110539Y-12706484D02*
X8043872Y-12782674D01*
X8043872Y-12782674D02*
X8072443Y-12782674D01*
X8072443Y-12782674D02*
X8091491Y-12792198D01*
X8091491Y-12792198D02*
X8101015Y-12801722D01*
X8101015Y-12801722D02*
X8110539Y-12820769D01*
X8110539Y-12820769D02*
X8110539Y-12868388D01*
X8110539Y-12868388D02*
X8101015Y-12887436D01*
X8101015Y-12887436D02*
X8091491Y-12896960D01*
X8091491Y-12896960D02*
X8072443Y-12906484D01*
X8072443Y-12906484D02*
X8015301Y-12906484D01*
X8015301Y-12906484D02*
X7996253Y-12896960D01*
X7996253Y-12896960D02*
X7986729Y-12887436D01*
X8196253Y-12887436D02*
X8205777Y-12896960D01*
X8205777Y-12896960D02*
X8196253Y-12906484D01*
X8196253Y-12906484D02*
X8186729Y-12896960D01*
X8186729Y-12896960D02*
X8196253Y-12887436D01*
X8196253Y-12887436D02*
X8196253Y-12906484D01*
X8281967Y-12725531D02*
X8291491Y-12716008D01*
X8291491Y-12716008D02*
X8310539Y-12706484D01*
X8310539Y-12706484D02*
X8358158Y-12706484D01*
X8358158Y-12706484D02*
X8377205Y-12716008D01*
X8377205Y-12716008D02*
X8386729Y-12725531D01*
X8386729Y-12725531D02*
X8396253Y-12744579D01*
X8396253Y-12744579D02*
X8396253Y-12763627D01*
X8396253Y-12763627D02*
X8386729Y-12792198D01*
X8386729Y-12792198D02*
X8272443Y-12906484D01*
X8272443Y-12906484D02*
X8396253Y-12906484D01*
X8520063Y-12706484D02*
X8539110Y-12706484D01*
X8539110Y-12706484D02*
X8558158Y-12716008D01*
X8558158Y-12716008D02*
X8567682Y-12725531D01*
X8567682Y-12725531D02*
X8577205Y-12744579D01*
X8577205Y-12744579D02*
X8586729Y-12782674D01*
X8586729Y-12782674D02*
X8586729Y-12830293D01*
X8586729Y-12830293D02*
X8577205Y-12868388D01*
X8577205Y-12868388D02*
X8567682Y-12887436D01*
X8567682Y-12887436D02*
X8558158Y-12896960D01*
X8558158Y-12896960D02*
X8539110Y-12906484D01*
X8539110Y-12906484D02*
X8520063Y-12906484D01*
X8520063Y-12906484D02*
X8501015Y-12896960D01*
X8501015Y-12896960D02*
X8491491Y-12887436D01*
X8491491Y-12887436D02*
X8481967Y-12868388D01*
X8481967Y-12868388D02*
X8472444Y-12830293D01*
X8472444Y-12830293D02*
X8472444Y-12782674D01*
X8472444Y-12782674D02*
X8481967Y-12744579D01*
X8481967Y-12744579D02*
X8491491Y-12725531D01*
X8491491Y-12725531D02*
X8501015Y-12716008D01*
X8501015Y-12716008D02*
X8520063Y-12706484D01*
X8710539Y-12706484D02*
X8729586Y-12706484D01*
X8729586Y-12706484D02*
X8748634Y-12716008D01*
X8748634Y-12716008D02*
X8758158Y-12725531D01*
X8758158Y-12725531D02*
X8767682Y-12744579D01*
X8767682Y-12744579D02*
X8777205Y-12782674D01*
X8777205Y-12782674D02*
X8777205Y-12830293D01*
X8777205Y-12830293D02*
X8767682Y-12868388D01*
X8767682Y-12868388D02*
X8758158Y-12887436D01*
X8758158Y-12887436D02*
X8748634Y-12896960D01*
X8748634Y-12896960D02*
X8729586Y-12906484D01*
X8729586Y-12906484D02*
X8710539Y-12906484D01*
X8710539Y-12906484D02*
X8691491Y-12896960D01*
X8691491Y-12896960D02*
X8681967Y-12887436D01*
X8681967Y-12887436D02*
X8672444Y-12868388D01*
X8672444Y-12868388D02*
X8662920Y-12830293D01*
X8662920Y-12830293D02*
X8662920Y-12782674D01*
X8662920Y-12782674D02*
X8672444Y-12744579D01*
X8672444Y-12744579D02*
X8681967Y-12725531D01*
X8681967Y-12725531D02*
X8691491Y-12716008D01*
X8691491Y-12716008D02*
X8710539Y-12706484D01*
X8862920Y-12906484D02*
X8862920Y-12773150D01*
X8862920Y-12792198D02*
X8872444Y-12782674D01*
X8872444Y-12782674D02*
X8891491Y-12773150D01*
X8891491Y-12773150D02*
X8920063Y-12773150D01*
X8920063Y-12773150D02*
X8939110Y-12782674D01*
X8939110Y-12782674D02*
X8948634Y-12801722D01*
X8948634Y-12801722D02*
X8948634Y-12906484D01*
X8948634Y-12801722D02*
X8958158Y-12782674D01*
X8958158Y-12782674D02*
X8977205Y-12773150D01*
X8977205Y-12773150D02*
X9005777Y-12773150D01*
X9005777Y-12773150D02*
X9024825Y-12782674D01*
X9024825Y-12782674D02*
X9034348Y-12801722D01*
X9034348Y-12801722D02*
X9034348Y-12906484D01*
X9129586Y-12906484D02*
X9129586Y-12773150D01*
X9129586Y-12792198D02*
X9139110Y-12782674D01*
X9139110Y-12782674D02*
X9158158Y-12773150D01*
X9158158Y-12773150D02*
X9186729Y-12773150D01*
X9186729Y-12773150D02*
X9205777Y-12782674D01*
X9205777Y-12782674D02*
X9215301Y-12801722D01*
X9215301Y-12801722D02*
X9215301Y-12906484D01*
X9215301Y-12801722D02*
X9224825Y-12782674D01*
X9224825Y-12782674D02*
X9243872Y-12773150D01*
X9243872Y-12773150D02*
X9272444Y-12773150D01*
X9272444Y-12773150D02*
X9291491Y-12782674D01*
X9291491Y-12782674D02*
X9301015Y-12801722D01*
X9301015Y-12801722D02*
X9301015Y-12906484D01*
X9691491Y-12696960D02*
X9520063Y-12954103D01*
X9948634Y-12706484D02*
X9967682Y-12706484D01*
X9967682Y-12706484D02*
X9986729Y-12716008D01*
X9986729Y-12716008D02*
X9996253Y-12725531D01*
X9996253Y-12725531D02*
X10005777Y-12744579D01*
X10005777Y-12744579D02*
X10015301Y-12782674D01*
X10015301Y-12782674D02*
X10015301Y-12830293D01*
X10015301Y-12830293D02*
X10005777Y-12868388D01*
X10005777Y-12868388D02*
X9996253Y-12887436D01*
X9996253Y-12887436D02*
X9986729Y-12896960D01*
X9986729Y-12896960D02*
X9967682Y-12906484D01*
X9967682Y-12906484D02*
X9948634Y-12906484D01*
X9948634Y-12906484D02*
X9929587Y-12896960D01*
X9929587Y-12896960D02*
X9920063Y-12887436D01*
X9920063Y-12887436D02*
X9910539Y-12868388D01*
X9910539Y-12868388D02*
X9901015Y-12830293D01*
X9901015Y-12830293D02*
X9901015Y-12782674D01*
X9901015Y-12782674D02*
X9910539Y-12744579D01*
X9910539Y-12744579D02*
X9920063Y-12725531D01*
X9920063Y-12725531D02*
X9929587Y-12716008D01*
X9929587Y-12716008D02*
X9948634Y-12706484D01*
X10101015Y-12887436D02*
X10110539Y-12896960D01*
X10110539Y-12896960D02*
X10101015Y-12906484D01*
X10101015Y-12906484D02*
X10091491Y-12896960D01*
X10091491Y-12896960D02*
X10101015Y-12887436D01*
X10101015Y-12887436D02*
X10101015Y-12906484D01*
X10301015Y-12906484D02*
X10186729Y-12906484D01*
X10243872Y-12906484D02*
X10243872Y-12706484D01*
X10243872Y-12706484D02*
X10224825Y-12735055D01*
X10224825Y-12735055D02*
X10205777Y-12754103D01*
X10205777Y-12754103D02*
X10186729Y-12763627D01*
X10377206Y-12725531D02*
X10386729Y-12716008D01*
X10386729Y-12716008D02*
X10405777Y-12706484D01*
X10405777Y-12706484D02*
X10453396Y-12706484D01*
X10453396Y-12706484D02*
X10472444Y-12716008D01*
X10472444Y-12716008D02*
X10481968Y-12725531D01*
X10481968Y-12725531D02*
X10491491Y-12744579D01*
X10491491Y-12744579D02*
X10491491Y-12763627D01*
X10491491Y-12763627D02*
X10481968Y-12792198D01*
X10481968Y-12792198D02*
X10367682Y-12906484D01*
X10367682Y-12906484D02*
X10491491Y-12906484D01*
X10662920Y-12706484D02*
X10624825Y-12706484D01*
X10624825Y-12706484D02*
X10605777Y-12716008D01*
X10605777Y-12716008D02*
X10596253Y-12725531D01*
X10596253Y-12725531D02*
X10577206Y-12754103D01*
X10577206Y-12754103D02*
X10567682Y-12792198D01*
X10567682Y-12792198D02*
X10567682Y-12868388D01*
X10567682Y-12868388D02*
X10577206Y-12887436D01*
X10577206Y-12887436D02*
X10586729Y-12896960D01*
X10586729Y-12896960D02*
X10605777Y-12906484D01*
X10605777Y-12906484D02*
X10643872Y-12906484D01*
X10643872Y-12906484D02*
X10662920Y-12896960D01*
X10662920Y-12896960D02*
X10672444Y-12887436D01*
X10672444Y-12887436D02*
X10681968Y-12868388D01*
X10681968Y-12868388D02*
X10681968Y-12820769D01*
X10681968Y-12820769D02*
X10672444Y-12801722D01*
X10672444Y-12801722D02*
X10662920Y-12792198D01*
X10662920Y-12792198D02*
X10643872Y-12782674D01*
X10643872Y-12782674D02*
X10605777Y-12782674D01*
X10605777Y-12782674D02*
X10586729Y-12792198D01*
X10586729Y-12792198D02*
X10577206Y-12801722D01*
X10577206Y-12801722D02*
X10567682Y-12820769D01*
X10805777Y-12706484D02*
X10824825Y-12706484D01*
X10824825Y-12706484D02*
X10843872Y-12716008D01*
X10843872Y-12716008D02*
X10853396Y-12725531D01*
X10853396Y-12725531D02*
X10862920Y-12744579D01*
X10862920Y-12744579D02*
X10872444Y-12782674D01*
X10872444Y-12782674D02*
X10872444Y-12830293D01*
X10872444Y-12830293D02*
X10862920Y-12868388D01*
X10862920Y-12868388D02*
X10853396Y-12887436D01*
X10853396Y-12887436D02*
X10843872Y-12896960D01*
X10843872Y-12896960D02*
X10824825Y-12906484D01*
X10824825Y-12906484D02*
X10805777Y-12906484D01*
X10805777Y-12906484D02*
X10786729Y-12896960D01*
X10786729Y-12896960D02*
X10777206Y-12887436D01*
X10777206Y-12887436D02*
X10767682Y-12868388D01*
X10767682Y-12868388D02*
X10758158Y-12830293D01*
X10758158Y-12830293D02*
X10758158Y-12782674D01*
X10758158Y-12782674D02*
X10767682Y-12744579D01*
X10767682Y-12744579D02*
X10777206Y-12725531D01*
X10777206Y-12725531D02*
X10786729Y-12716008D01*
X10786729Y-12716008D02*
X10805777Y-12706484D01*
X10948634Y-12706484D02*
X10948634Y-12744579D01*
X11024825Y-12706484D02*
X11024825Y-12744579D01*
X11320063Y-12982674D02*
X11310539Y-12973150D01*
X11310539Y-12973150D02*
X11291491Y-12944579D01*
X11291491Y-12944579D02*
X11281968Y-12925531D01*
X11281968Y-12925531D02*
X11272444Y-12896960D01*
X11272444Y-12896960D02*
X11262920Y-12849341D01*
X11262920Y-12849341D02*
X11262920Y-12811246D01*
X11262920Y-12811246D02*
X11272444Y-12763627D01*
X11272444Y-12763627D02*
X11281968Y-12735055D01*
X11281968Y-12735055D02*
X11291491Y-12716008D01*
X11291491Y-12716008D02*
X11310539Y-12687436D01*
X11310539Y-12687436D02*
X11320063Y-12677912D01*
X11386729Y-12725531D02*
X11396253Y-12716008D01*
X11396253Y-12716008D02*
X11415301Y-12706484D01*
X11415301Y-12706484D02*
X11462920Y-12706484D01*
X11462920Y-12706484D02*
X11481968Y-12716008D01*
X11481968Y-12716008D02*
X11491491Y-12725531D01*
X11491491Y-12725531D02*
X11501015Y-12744579D01*
X11501015Y-12744579D02*
X11501015Y-12763627D01*
X11501015Y-12763627D02*
X11491491Y-12792198D01*
X11491491Y-12792198D02*
X11377206Y-12906484D01*
X11377206Y-12906484D02*
X11501015Y-12906484D01*
X11739110Y-12906484D02*
X11739110Y-12706484D01*
X11824825Y-12906484D02*
X11824825Y-12801722D01*
X11824825Y-12801722D02*
X11815301Y-12782674D01*
X11815301Y-12782674D02*
X11796253Y-12773150D01*
X11796253Y-12773150D02*
X11767682Y-12773150D01*
X11767682Y-12773150D02*
X11748634Y-12782674D01*
X11748634Y-12782674D02*
X11739110Y-12792198D01*
X11948634Y-12906484D02*
X11929587Y-12896960D01*
X11929587Y-12896960D02*
X11920063Y-12887436D01*
X11920063Y-12887436D02*
X11910539Y-12868388D01*
X11910539Y-12868388D02*
X11910539Y-12811246D01*
X11910539Y-12811246D02*
X11920063Y-12792198D01*
X11920063Y-12792198D02*
X11929587Y-12782674D01*
X11929587Y-12782674D02*
X11948634Y-12773150D01*
X11948634Y-12773150D02*
X11977206Y-12773150D01*
X11977206Y-12773150D02*
X11996253Y-12782674D01*
X11996253Y-12782674D02*
X12005777Y-12792198D01*
X12005777Y-12792198D02*
X12015301Y-12811246D01*
X12015301Y-12811246D02*
X12015301Y-12868388D01*
X12015301Y-12868388D02*
X12005777Y-12887436D01*
X12005777Y-12887436D02*
X11996253Y-12896960D01*
X11996253Y-12896960D02*
X11977206Y-12906484D01*
X11977206Y-12906484D02*
X11948634Y-12906484D01*
X12129587Y-12906484D02*
X12110539Y-12896960D01*
X12110539Y-12896960D02*
X12101015Y-12877912D01*
X12101015Y-12877912D02*
X12101015Y-12706484D01*
X12281968Y-12896960D02*
X12262920Y-12906484D01*
X12262920Y-12906484D02*
X12224825Y-12906484D01*
X12224825Y-12906484D02*
X12205777Y-12896960D01*
X12205777Y-12896960D02*
X12196253Y-12877912D01*
X12196253Y-12877912D02*
X12196253Y-12801722D01*
X12196253Y-12801722D02*
X12205777Y-12782674D01*
X12205777Y-12782674D02*
X12224825Y-12773150D01*
X12224825Y-12773150D02*
X12262920Y-12773150D01*
X12262920Y-12773150D02*
X12281968Y-12782674D01*
X12281968Y-12782674D02*
X12291491Y-12801722D01*
X12291491Y-12801722D02*
X12291491Y-12820769D01*
X12291491Y-12820769D02*
X12196253Y-12839817D01*
X12367682Y-12896960D02*
X12386730Y-12906484D01*
X12386730Y-12906484D02*
X12424825Y-12906484D01*
X12424825Y-12906484D02*
X12443872Y-12896960D01*
X12443872Y-12896960D02*
X12453396Y-12877912D01*
X12453396Y-12877912D02*
X12453396Y-12868388D01*
X12453396Y-12868388D02*
X12443872Y-12849341D01*
X12443872Y-12849341D02*
X12424825Y-12839817D01*
X12424825Y-12839817D02*
X12396253Y-12839817D01*
X12396253Y-12839817D02*
X12377206Y-12830293D01*
X12377206Y-12830293D02*
X12367682Y-12811246D01*
X12367682Y-12811246D02*
X12367682Y-12801722D01*
X12367682Y-12801722D02*
X12377206Y-12782674D01*
X12377206Y-12782674D02*
X12396253Y-12773150D01*
X12396253Y-12773150D02*
X12424825Y-12773150D01*
X12424825Y-12773150D02*
X12443872Y-12782674D01*
X12520063Y-12982674D02*
X12529587Y-12973150D01*
X12529587Y-12973150D02*
X12548634Y-12944579D01*
X12548634Y-12944579D02*
X12558158Y-12925531D01*
X12558158Y-12925531D02*
X12567682Y-12896960D01*
X12567682Y-12896960D02*
X12577206Y-12849341D01*
X12577206Y-12849341D02*
X12577206Y-12811246D01*
X12577206Y-12811246D02*
X12567682Y-12763627D01*
X12567682Y-12763627D02*
X12558158Y-12735055D01*
X12558158Y-12735055D02*
X12548634Y-12716008D01*
X12548634Y-12716008D02*
X12529587Y-12687436D01*
X12529587Y-12687436D02*
X12520063Y-12677912D01*
X12881968Y-12982674D02*
X12872444Y-12973150D01*
X12872444Y-12973150D02*
X12853396Y-12944579D01*
X12853396Y-12944579D02*
X12843872Y-12925531D01*
X12843872Y-12925531D02*
X12834349Y-12896960D01*
X12834349Y-12896960D02*
X12824825Y-12849341D01*
X12824825Y-12849341D02*
X12824825Y-12811246D01*
X12824825Y-12811246D02*
X12834349Y-12763627D01*
X12834349Y-12763627D02*
X12843872Y-12735055D01*
X12843872Y-12735055D02*
X12853396Y-12716008D01*
X12853396Y-12716008D02*
X12872444Y-12687436D01*
X12872444Y-12687436D02*
X12881968Y-12677912D01*
X12958158Y-12773150D02*
X12958158Y-12906484D01*
X12958158Y-12792198D02*
X12967682Y-12782674D01*
X12967682Y-12782674D02*
X12986730Y-12773150D01*
X12986730Y-12773150D02*
X13015301Y-12773150D01*
X13015301Y-12773150D02*
X13034349Y-12782674D01*
X13034349Y-12782674D02*
X13043872Y-12801722D01*
X13043872Y-12801722D02*
X13043872Y-12906484D01*
X13167682Y-12906484D02*
X13148634Y-12896960D01*
X13148634Y-12896960D02*
X13139111Y-12887436D01*
X13139111Y-12887436D02*
X13129587Y-12868388D01*
X13129587Y-12868388D02*
X13129587Y-12811246D01*
X13129587Y-12811246D02*
X13139111Y-12792198D01*
X13139111Y-12792198D02*
X13148634Y-12782674D01*
X13148634Y-12782674D02*
X13167682Y-12773150D01*
X13167682Y-12773150D02*
X13196253Y-12773150D01*
X13196253Y-12773150D02*
X13215301Y-12782674D01*
X13215301Y-12782674D02*
X13224825Y-12792198D01*
X13224825Y-12792198D02*
X13234349Y-12811246D01*
X13234349Y-12811246D02*
X13234349Y-12868388D01*
X13234349Y-12868388D02*
X13224825Y-12887436D01*
X13224825Y-12887436D02*
X13215301Y-12896960D01*
X13215301Y-12896960D02*
X13196253Y-12906484D01*
X13196253Y-12906484D02*
X13167682Y-12906484D01*
X13291492Y-12773150D02*
X13367682Y-12773150D01*
X13320063Y-12706484D02*
X13320063Y-12877912D01*
X13320063Y-12877912D02*
X13329587Y-12896960D01*
X13329587Y-12896960D02*
X13348634Y-12906484D01*
X13348634Y-12906484D02*
X13367682Y-12906484D01*
X13586730Y-12773150D02*
X13586730Y-12973150D01*
X13586730Y-12782674D02*
X13605777Y-12773150D01*
X13605777Y-12773150D02*
X13643873Y-12773150D01*
X13643873Y-12773150D02*
X13662920Y-12782674D01*
X13662920Y-12782674D02*
X13672444Y-12792198D01*
X13672444Y-12792198D02*
X13681968Y-12811246D01*
X13681968Y-12811246D02*
X13681968Y-12868388D01*
X13681968Y-12868388D02*
X13672444Y-12887436D01*
X13672444Y-12887436D02*
X13662920Y-12896960D01*
X13662920Y-12896960D02*
X13643873Y-12906484D01*
X13643873Y-12906484D02*
X13605777Y-12906484D01*
X13605777Y-12906484D02*
X13586730Y-12896960D01*
X13796253Y-12906484D02*
X13777206Y-12896960D01*
X13777206Y-12896960D02*
X13767682Y-12877912D01*
X13767682Y-12877912D02*
X13767682Y-12706484D01*
X13958158Y-12906484D02*
X13958158Y-12801722D01*
X13958158Y-12801722D02*
X13948634Y-12782674D01*
X13948634Y-12782674D02*
X13929587Y-12773150D01*
X13929587Y-12773150D02*
X13891492Y-12773150D01*
X13891492Y-12773150D02*
X13872444Y-12782674D01*
X13958158Y-12896960D02*
X13939111Y-12906484D01*
X13939111Y-12906484D02*
X13891492Y-12906484D01*
X13891492Y-12906484D02*
X13872444Y-12896960D01*
X13872444Y-12896960D02*
X13862920Y-12877912D01*
X13862920Y-12877912D02*
X13862920Y-12858865D01*
X13862920Y-12858865D02*
X13872444Y-12839817D01*
X13872444Y-12839817D02*
X13891492Y-12830293D01*
X13891492Y-12830293D02*
X13939111Y-12830293D01*
X13939111Y-12830293D02*
X13958158Y-12820769D01*
X14024825Y-12773150D02*
X14101015Y-12773150D01*
X14053396Y-12706484D02*
X14053396Y-12877912D01*
X14053396Y-12877912D02*
X14062920Y-12896960D01*
X14062920Y-12896960D02*
X14081968Y-12906484D01*
X14081968Y-12906484D02*
X14101015Y-12906484D01*
X14243873Y-12896960D02*
X14224825Y-12906484D01*
X14224825Y-12906484D02*
X14186730Y-12906484D01*
X14186730Y-12906484D02*
X14167682Y-12896960D01*
X14167682Y-12896960D02*
X14158158Y-12877912D01*
X14158158Y-12877912D02*
X14158158Y-12801722D01*
X14158158Y-12801722D02*
X14167682Y-12782674D01*
X14167682Y-12782674D02*
X14186730Y-12773150D01*
X14186730Y-12773150D02*
X14224825Y-12773150D01*
X14224825Y-12773150D02*
X14243873Y-12782674D01*
X14243873Y-12782674D02*
X14253396Y-12801722D01*
X14253396Y-12801722D02*
X14253396Y-12820769D01*
X14253396Y-12820769D02*
X14158158Y-12839817D01*
X14424825Y-12906484D02*
X14424825Y-12706484D01*
X14424825Y-12896960D02*
X14405777Y-12906484D01*
X14405777Y-12906484D02*
X14367682Y-12906484D01*
X14367682Y-12906484D02*
X14348634Y-12896960D01*
X14348634Y-12896960D02*
X14339111Y-12887436D01*
X14339111Y-12887436D02*
X14329587Y-12868388D01*
X14329587Y-12868388D02*
X14329587Y-12811246D01*
X14329587Y-12811246D02*
X14339111Y-12792198D01*
X14339111Y-12792198D02*
X14348634Y-12782674D01*
X14348634Y-12782674D02*
X14367682Y-12773150D01*
X14367682Y-12773150D02*
X14405777Y-12773150D01*
X14405777Y-12773150D02*
X14424825Y-12782674D01*
X14501015Y-12982674D02*
X14510539Y-12973150D01*
X14510539Y-12973150D02*
X14529587Y-12944579D01*
X14529587Y-12944579D02*
X14539111Y-12925531D01*
X14539111Y-12925531D02*
X14548634Y-12896960D01*
X14548634Y-12896960D02*
X14558158Y-12849341D01*
X14558158Y-12849341D02*
X14558158Y-12811246D01*
X14558158Y-12811246D02*
X14548634Y-12763627D01*
X14548634Y-12763627D02*
X14539111Y-12735055D01*
X14539111Y-12735055D02*
X14529587Y-12716008D01*
X14529587Y-12716008D02*
X14510539Y-12687436D01*
X14510539Y-12687436D02*
X14501015Y-12677912D01*
M02*
